<svg xmlns="http://www.w3.org/2000/svg" width="48.006" height="41.256" viewBox="0 0 48.006 41.256">
  <g id="COMILLAS_2" data-name="COMILLAS 2" transform="translate(-653.875 892.141) rotate(180)">
    <path id="Trazado_1193" data-name="Trazado 1193" d="M-701.881,876.812c0-11.365,6.118-20.52,17.393-25.927l3.578,6.933c-7.624,3.9-11.761,9.69-11.761,17.673l1.35,9.45-6.227-8.092a11.43,11.43,0,0,1,7.457-3.392c5.142,0,8.779,3.625,8.779,8.985,0,5.778-3.825,9.7-9.253,9.7C-697.465,892.141-701.881,886.444-701.881,876.812Zm27.035,0c0-11.365,6.117-20.52,17.393-25.927l3.578,6.933c-7.624,3.9-11.761,9.69-11.761,17.673l1.349,9.45-6.227-8.092a11.432,11.432,0,0,1,7.457-3.392c5.142,0,8.779,3.625,8.779,8.985,0,5.778-3.825,9.7-9.254,9.7C-670.43,892.141-674.846,886.444-674.846,876.812Z" fill="#fff"/>
  </g>
</svg>
