<svg xmlns="http://www.w3.org/2000/svg" width="166.458" height="164.775" viewBox="0 0 166.458 164.775">
  <g id="alto_desempeño" data-name="alto desempeño" transform="translate(-1372 -3679.484)">
    <g id="Grupo_1793" data-name="Grupo 1793" transform="translate(1372 3679.485)">
      <g id="Grupo_936" data-name="Grupo 936" transform="translate(0 0)">
        <g id="Grupo_282" data-name="Grupo 282" transform="translate(0 0)">
          <path id="Trazado_498" data-name="Trazado 498" d="M83.229,0c45.966,0,83.229,36.886,83.229,82.388s-37.263,82.388-83.229,82.388S0,127.89,0,82.388,37.263,0,83.229,0Z" fill="#d8e500"/>
          <g id="Grupo_1829" data-name="Grupo 1829" transform="translate(33.228 33.179)">
            <path id="Trazado_752" data-name="Trazado 752" d="M94.51,159.289a6.3,6.3,0,0,0-6.843,3.782,1.539,1.539,0,0,1-1.723,1.111c-2.967-.024-5.982-.024-8.9-.024H72.783c-.239,0-.479-.024-.742-.047-.12,0-.239-.024-.383-.024l-.335-.024v-2.033c.024-1.348.024-2.624-.024-3.9a1.88,1.88,0,0,1,1.507-2.246,7.18,7.18,0,0,0,2.082-1.135,11.186,11.186,0,0,0,4.69-7.47l.048-.236.239-.047a.6.6,0,0,1,.191-.024,1.87,1.87,0,0,1,.359-.047,10.324,10.324,0,0,0,7.274-3.664,10.115,10.115,0,0,0,1.866-7.9,2.318,2.318,0,0,1,.694-1.773,15.959,15.959,0,0,0,1.675-20.213,16.737,16.737,0,0,0-5.91-5.225l-.263-.142.1-.284c.167-.5.311-.993.479-1.489.55-1.726,1.053-3.357,1.627-4.988.144-.426.837-.638,1.149-.662.837-.024,1.675-.024,2.488-.024h1.364c1.436,0,1.842-.426,1.842-1.868V96.146c0-2.884.024-5.863-.024-8.794A2.234,2.234,0,0,1,96.28,84.94,6.085,6.085,0,0,0,99.343,77a6.393,6.393,0,0,0-7.968-3.522,6.259,6.259,0,0,0-4.02,7.541,6.406,6.406,0,0,0,4.474,4.468l.239.095V97.966H90.921c-.574,0-1.1-.024-1.651.024-.885.047-1.292-.284-1.436-1.182A14.577,14.577,0,0,0,71.348,84.917c-.287.047-.6.071-.885.095-.144.024-.263.024-.407.047l-.311.024-.072-.307a1.16,1.16,0,0,0-.1-.307,5.267,5.267,0,0,1-.12-.52,13.131,13.131,0,0,0-18.735-9.433,2.429,2.429,0,0,1-1.938-.142,13.078,13.078,0,0,0-10.337-.307,12.667,12.667,0,0,0-7.25,7.092,23.749,23.749,0,0,0-.766,2.411c-.12.4-.215.8-.335,1.206l-.1.284-3.876-.449v-4.8c-.024-1.206-.479-1.678-1.7-1.678-1.651-.024-3.35,0-4.977,0H12.677l-.1-.213c-1.46-3.215-3.326-4.681-6.054-4.752a6.236,6.236,0,0,0-2.2,12.175,6.2,6.2,0,0,0,7.657-3.286,2.056,2.056,0,0,1,2.273-1.395c1.579.071,3.182.047,4.738.047h4.355v4.326l-.287.071a14.829,14.829,0,0,0-10.289,8.747,14.464,14.464,0,0,0,1.364,13.617l.191.307-.311.189a3.89,3.89,0,0,1-.431.236,6.805,6.805,0,0,0-.814.52c-.431.378-.885.733-1.316,1.087a16.044,16.044,0,0,0-2.991,2.813c-5.121,6.738-4.642,14.87,1.292,21.182a2.335,2.335,0,0,1,.479,1.466,7.945,7.945,0,0,1-.191,1.466c-.048.213-.072.426-.12.662l-.048.307H7.365c-2.034,0-2.321.284-2.321,2.246v3.759c0,4.7,0,9.551.024,14.326a1.563,1.563,0,0,1-1.1,1.726,6.124,6.124,0,0,0-3.828,6.856,6.268,6.268,0,0,0,6.245,5.154h0a6.3,6.3,0,0,0,6.221-5.035,6.132,6.132,0,0,0-3.8-6.974,1.527,1.527,0,0,1-1.1-1.7c.024-3.782.024-7.659.024-11.371v-4.941a6.216,6.216,0,0,1,.048-.709c0-.095.024-.189.024-.26l.024-.26.263-.047c1.723-.378,2.728.095,3.374,1.608a8.9,8.9,0,0,0,2.225,2.671,9.6,9.6,0,0,0,6.2,2.293l.287.024.048.26a11.56,11.56,0,0,0,14.5,9.2l.431-.118v.449a14.866,14.866,0,0,0,14.668,14.988h.167a14.907,14.907,0,0,0,14.811-14.964v-.4l3.948.615v7.73c0,1.678.359,2.033,2.058,2.033h2.728c4.044,0,8.231,0,12.347-.024H85.9a1.722,1.722,0,0,1,1.866,1.206,6.137,6.137,0,0,0,6.891,3.617,6.291,6.291,0,0,0,5.192-6.194A6.452,6.452,0,0,0,94.51,159.289ZM89.748,79.409a3.7,3.7,0,0,1,1.077-2.6,3.608,3.608,0,0,1,2.584-1.087h.024a3.685,3.685,0,0,1,3.709,3.641,3.609,3.609,0,0,1-1.077,2.577,3.744,3.744,0,0,1-2.608,1.111h-.024A3.744,3.744,0,0,1,89.748,79.409ZM8.92,82.009a3.707,3.707,0,0,1-2.56,1.04H6.288A3.636,3.636,0,0,1,3.8,76.761a3.633,3.633,0,0,1,2.608-1.017,3.683,3.683,0,0,1,3.637,3.712A3.508,3.508,0,0,1,8.92,82.009Zm1.125,83.4a3.582,3.582,0,0,1-1.053,2.6,3.757,3.757,0,0,1-2.584,1.135H6.36a3.707,3.707,0,0,1-2.56-1.04,3.594,3.594,0,0,1-.072-5.154,3.591,3.591,0,0,1,2.584-1.111H6.36A3.635,3.635,0,0,1,10.045,165.412ZM69.96,145.98c-1.1.047-1.268,1.182-1.268,1.844v6.17l-.287.047c-2.9.544-6.676-1.962-7.729-4.373a17.638,17.638,0,0,1-1.053-3.806c-.144-.733-.479-1.584-1.388-1.56a1.218,1.218,0,0,0-.885.378,1.634,1.634,0,0,0-.383,1.206,10.455,10.455,0,0,0,3.828,8.038,3.2,3.2,0,0,1,1.172,2.364A12.057,12.057,0,0,1,51.32,169.029a10.089,10.089,0,0,1-1.46.095,12.21,12.21,0,0,1-11.772-9.645,14.98,14.98,0,0,1-.239-2.411,3.985,3.985,0,0,1,1.484-3.451,10.315,10.315,0,0,0,3.517-7.47c.072-1.111-.383-1.82-1.22-1.868-1.1-.071-1.364,1.111-1.412,1.631-.5,4.09-2.728,6.808-6.46,7.825a8.81,8.81,0,0,1-10.313-5.083,8.525,8.525,0,0,1,3.948-10.567,11.8,11.8,0,0,1,6.078-1.158,9.741,9.741,0,0,0,5.144-.969c3.158-1.726,4.594-4.681,4.235-8.771a1.2,1.2,0,0,0-1.268-1.135h-.024a1.236,1.236,0,0,0-1.268,1.135,2.3,2.3,0,0,0-.024.709v.284c-.024,4.043-2.13,6.1-6.269,6.146h-.718a17.31,17.31,0,0,0-3.852.284,11.3,11.3,0,0,0-8.9,8.416,4.629,4.629,0,0,1-.191.615,1.144,1.144,0,0,1-.1.26l-.072.236-.239.024a6.386,6.386,0,0,1-6.078-3.4l-.287-.52h1.316c.5,0,.957,0,1.436-.024a1.588,1.588,0,0,0,1.149-.52,1.094,1.094,0,0,0,.263-.8,1.29,1.29,0,0,0-1.388-1.277c-.718-.024-1.436-.024-2.13-.024H12.964l-.048-.307c-.455-3.121,2.249-6.052,4.929-6.738.455-.118.933-.165,1.364-.236.191-.024.359-.047.55-.071a1.3,1.3,0,0,0,1.316-1.371,1.119,1.119,0,0,0-.335-.8,1.492,1.492,0,0,0-1.149-.4,9.75,9.75,0,0,0-7.035,3.215c-.12.118-.239.26-.359.4a2.515,2.515,0,0,0-.215.26l-.263.307-.263-.284a12.677,12.677,0,0,1-3.422-11.891,13.687,13.687,0,0,1,8.877-10.142,14.014,14.014,0,0,1,13.423,2.435c.072.071.167.142.239.213.215.189.526.473.694.449a2.62,2.62,0,0,0,1.6-.567.9.9,0,0,0,.287-.733,1.064,1.064,0,0,0-.526-.8l-.718-.5a29.917,29.917,0,0,0-4.57-2.742,14.246,14.246,0,0,0-9.021-.78,1.558,1.558,0,0,1-1.795-.591,11.9,11.9,0,0,1,5.934-17.943,1.835,1.835,0,0,1,.383-.071c.072,0,.144-.024.239-.024l.407-.071v.426c0,.757-.024,1.489-.048,2.222a34.132,34.132,0,0,0,.1,4.964,6.389,6.389,0,0,1-.12,1.773c-.239,1.466-.407,2.624,1.34,3.286,1.842-.638,1.651-1.82,1.412-3.31a7.692,7.692,0,0,1-.144-1.8,39.3,39.3,0,0,0,.12-5.343c-.024-.8-.048-1.631-.048-2.482v-.426l.431.071c.311.047.622.095.909.142a21.769,21.769,0,0,1,2.225.426,1.556,1.556,0,0,1,.885,1.111,12.776,12.776,0,0,0,7.657,8.983,5.615,5.615,0,0,1,3.709,5.816,17.12,17.12,0,0,0,.024,2.2,1.292,1.292,0,0,0,2.536.284A9.065,9.065,0,0,0,40.1,95.839c-.215-.095-.431-.213-.646-.307-.287-.142-.574-.26-.861-.4a10.38,10.38,0,0,1-5.312-6.123,9.9,9.9,0,0,1,.766-7.849,10.429,10.429,0,0,1,6.46-5.106A10.226,10.226,0,0,1,48.5,77.186a2.356,2.356,0,0,0,2.776.024,10.415,10.415,0,0,1,14.4,3.688,10.008,10.008,0,0,1,.981,7.8,10.359,10.359,0,0,1-5,6.288,1.123,1.123,0,0,1-.239.118,1.791,1.791,0,0,0-.359.213c-.79.544-.957,1.064-.574,1.749a1.29,1.29,0,0,0,1.89.473,12.426,12.426,0,0,0,6.748-8.2,2.226,2.226,0,0,1,1.986-1.82A12.157,12.157,0,0,1,85.13,96.855a3.449,3.449,0,0,1,.024.5v.591H75.99c-.79,0-1.627,0-2.417.024a1.386,1.386,0,0,0-1.507,1.277,1.289,1.289,0,0,0,.335.875,1.713,1.713,0,0,0,1.22.449c2.345.024,4.738.024,7.059,0h4.57l-.024.378a9.824,9.824,0,0,1-2.177,5.366c-.311.426-1.172.307-1.531.26a16.235,16.235,0,0,0-14.117,3.9c-.694.615-.814,1.3-.311,1.891.526.615,1.172.638,1.962.095a2.842,2.842,0,0,0,.431-.355,13.452,13.452,0,0,1,6.939-3.1,13.726,13.726,0,0,1,11.509,3.712,13.581,13.581,0,0,1,4.092,11.466,12.38,12.38,0,0,1-3.637,7.494l-.287.284-.263-.307a10.052,10.052,0,0,0-6.389-3.759A6.991,6.991,0,0,0,80.2,127.8c-.622.024-1.388.236-1.436,1.206-.048.78.383,1.253,1.268,1.395.191.024.383.047.6.071a4.763,4.763,0,0,1,.837.118,6.951,6.951,0,0,1,5.623,7,7.1,7.1,0,0,1-6.269,6.714,5.468,5.468,0,0,1-.622.024h-.6l-.048-.284a11.891,11.891,0,0,0-2.823-5.721,11.6,11.6,0,0,0-7.824-3.806,33.482,33.482,0,0,0-3.781-.047,1.3,1.3,0,1,0,.024,2.577,14.06,14.06,0,0,0,1.412,0c.67,0,1.364,0,2.058.047a9,9,0,0,1,8.112,6.572,8.363,8.363,0,0,1-3.565,9.149,5.2,5.2,0,0,1-.814.449c-.167.071-.335.165-.526.26l-.526.284v-5.91a2.18,2.18,0,0,0-.5-1.56A.9.9,0,0,0,69.96,145.98Zm26.081,22.1a3.684,3.684,0,0,1-2.584,1.064h-.048a3.731,3.731,0,0,1-3.661-3.688,3.56,3.56,0,0,1,1.125-2.577,3.7,3.7,0,0,1,6.269,2.648A3.433,3.433,0,0,1,96.041,168.084Z" transform="translate(0.038 -73.126)" fill="#31404b"/>
            <path id="Trazado_753" data-name="Trazado 753" d="M203.075,189.246a3.539,3.539,0,0,0,.024.73,1.24,1.24,0,0,0,1.314,1.144h0a1.24,1.24,0,0,0,1.314-1.144,3.539,3.539,0,0,0,.024-.73V117.122a3.094,3.094,0,0,0-.049-.827,1.24,1.24,0,0,0-1.265-1.1h-.049a1.25,1.25,0,0,0-1.314,1.119,2.393,2.393,0,0,0-.024.73v71.929A.912.912,0,0,1,203.075,189.246Z" transform="translate(-154.466 -104.962)" fill="#31404b"/>
            <path id="Trazado_754" data-name="Trazado 754" d="M69.8,241.2h0a6.511,6.511,0,0,0-4.623,1.971,5.881,5.881,0,0,0-1.776,4.21,2.094,2.094,0,0,0,.754,1.387,1.378,1.378,0,0,0,1.192-.073A2.324,2.324,0,0,0,66,247.283a4.136,4.136,0,0,1,1.825-2.847,3.589,3.589,0,0,1,1.9-.56,3.7,3.7,0,0,1,1.022.146,3.763,3.763,0,0,1,2.774,3.82,3.813,3.813,0,0,1-3.528,3.553,2,2,0,0,0-1.338.657,1.15,1.15,0,0,0-.195.852c.122.827.827,1.241,1.9,1.144a6.509,6.509,0,0,0,5.864-6.643A6.438,6.438,0,0,0,69.8,241.2Z" transform="translate(-48.256 -201.635)" fill="#31404b"/>
            <path id="Trazado_755" data-name="Trazado 755" d="M286.134,274.972a1.893,1.893,0,0,0,1.411-.292,1.286,1.286,0,0,0,.462-.827,1.184,1.184,0,0,0-.219-.925,1.914,1.914,0,0,0-1.314-.608,3.781,3.781,0,0,1-3.042-1.9,3.646,3.646,0,0,1-.17-3.455,4.229,4.229,0,0,1,3.309-2.19c.949-.122,1.484-.657,1.46-1.387-.049-.8-.681-1.265-1.752-1.29-.049,0-.122.024-.195.024a4.18,4.18,0,0,0-.827.17,6.475,6.475,0,0,0-4.988,6.57A6.393,6.393,0,0,0,286.134,274.972Z" transform="translate(-213.285 -217.616)" fill="#31404b"/>
            <path id="Trazado_756" data-name="Trazado 756" d="M245.743,248.929c-.681-.973-1.7-.487-2.263-.1a11.56,11.56,0,0,0-5.28,9.733v.487a2.656,2.656,0,0,0,.511,1.874,1.206,1.206,0,0,0,.852.292c.341,0,1.338-.024,1.314-2.093A9.061,9.061,0,0,1,245.062,251a1.93,1.93,0,0,0,.925-1.168A1.143,1.143,0,0,0,245.743,248.929Z" transform="translate(-181.275 -207.11)" fill="#31404b"/>
            <path id="Trazado_757" data-name="Trazado 757" d="M116.677,366.989a2.053,2.053,0,0,1-1.776-2.02,1.991,1.991,0,0,1,1.728-2.044c.1-.024.195-.024.292-.049a.361.361,0,0,0,.17-.024c.852-.243,1.217-.73,1.144-1.46a1.226,1.226,0,0,0-1.1-1.192,4.892,4.892,0,0,0-4.915,4.283,4.715,4.715,0,0,0,3.82,5.11c1.168.243,2-.122,2.19-1C118.429,367.841,117.894,367.281,116.677,366.989Z" transform="translate(-85.373 -292.539)" fill="#31404b"/>
            <path id="Trazado_758" data-name="Trazado 758" d="M229.365,107.575c.146.9.73,1.46,1.46,1.387a1.428,1.428,0,0,0,1.217-1.606,6.52,6.52,0,0,0-6.132-6.156h-.073a1.446,1.446,0,0,0-1.557,1.192c-.073.73.462,1.314,1.363,1.46C228.075,104.266,228.976,105.166,229.365,107.575Z" transform="translate(-170.676 -94.369)" fill="#31404b"/>
            <path id="Trazado_759" data-name="Trazado 759" d="M160.592,127.21c-2.312-.341-3.334-1.363-3.65-3.65-.122-.9-.657-1.46-1.338-1.46h-.073a1.43,1.43,0,0,0-1.241,1.679,6.465,6.465,0,0,0,6.083,6.083,1.43,1.43,0,0,0,1.679-1.241C162.077,127.916,161.517,127.356,160.592,127.21Z" transform="translate(-117.412 -110.183)" fill="#31404b"/>
            <path id="Trazado_760" data-name="Trazado 760" d="M330.729,250.952c2.385.389,3.334,1.314,3.723,3.723.146.9.73,1.46,1.46,1.387a1.438,1.438,0,0,0,1.217-1.63A6.479,6.479,0,0,0,331,248.3h-.073a1.429,1.429,0,0,0-1.557,1.217C329.269,250.222,329.828,250.806,330.729,250.952Z" transform="translate(-250.896 -206.989)" fill="#31404b"/>
            <path id="Trazado_761" data-name="Trazado 761" d="M232.487,189.556a1.234,1.234,0,0,0,1.29-1.265,8.971,8.971,0,0,0-.024-1.971,1.187,1.187,0,0,0-1.29-1.119h0a1.238,1.238,0,0,0-1.314,1.119,2.857,2.857,0,0,0-.024.657v.73H231.1v.56A1.328,1.328,0,0,0,232.487,189.556Z" transform="translate(-175.82 -158.74)" fill="#31404b"/>
            <path id="Trazado_762" data-name="Trazado 762" d="M170.877,264.487v-.365h.024v-.462a1.352,1.352,0,0,0-1.338-1.46h0a1.352,1.352,0,0,0-1.338,1.46v.146a8.82,8.82,0,0,0,.024,1.606,1.22,1.22,0,0,0,1.265,1.168,1.233,1.233,0,0,0,1.363-1.192,4.314,4.314,0,0,0,.024-.584A1.5,1.5,0,0,1,170.877,264.487Z" transform="translate(-127.963 -217.561)" fill="#31404b"/>
            <path id="Trazado_763" data-name="Trazado 763" d="M234.425,332.149a2.857,2.857,0,0,0-.657-.024h-.73V332.1h-.462a1.652,1.652,0,0,0-1.119.487,1.22,1.22,0,0,0-.268.876,1.285,1.285,0,0,0,1.387,1.314h.17a9.955,9.955,0,0,0,1.7-.024,1.209,1.209,0,0,0,1.119-1.314A1.248,1.248,0,0,0,234.425,332.149Z" transform="translate(-175.901 -270.927)" fill="#31404b"/>
            <path id="Trazado_764" data-name="Trazado 764" d="M205.8,446.855h-.049v-.365a2.091,2.091,0,0,1,.024-.389,2.394,2.394,0,0,0-.024-.73,1.2,1.2,0,0,0-1.265-1.071h-.049a1.182,1.182,0,0,0-1.29,1.071,7.2,7.2,0,0,0,.024,2.287,1.178,1.178,0,0,0,1.29,1,1.24,1.24,0,0,0,1.29-1.046,3.567,3.567,0,0,0,.049-.754Z" transform="translate(-154.495 -356.875)" fill="#31404b"/>
          </g>
        </g>
      </g>
    </g>
  </g>
</svg>
