<svg xmlns="http://www.w3.org/2000/svg" width="212" height="212" viewBox="0 0 212 212">
  <g id="a_cademicos" data-name="a cademicos" transform="translate(-405 -5917)">
    <path id="Trazado_2307" data-name="Trazado 2307" d="M106,0A106,106,0,1,1,0,106,106,106,0,0,1,106,0Z" transform="translate(405 5917)" fill="#007387"/>
    <g id="Grupo_2371" data-name="Grupo 2371" transform="translate(456.67 5962.508)">
      <path id="Trazado_1799" data-name="Trazado 1799" d="M108.441,30.118c-.952-1.659-2.557-2.448-4.9-2.448-4.787.027-9.492,0-14.47,0H83.119V6.1c0-4.161-2.04-6.2-6.256-6.2H41.587q-17.625,0-35.3.027C2.067-.073,0,1.994,0,6.264V115.086c0,4.27,2.067,6.337,6.283,6.337h70.58c4.216,0,6.256-2.04,6.256-6.2V93.681h20.4c3.672,0,5.875-2.176,5.875-5.793.027-21.378.027-38.676-.027-54.4A7.315,7.315,0,0,0,108.441,30.118ZM80.209,114.95c0,2.829-.734,3.563-3.563,3.563H6.5c-2.883,0-3.536-.68-3.536-3.59V6.645a15.989,15.989,0,0,1,.082-1.632,2.261,2.261,0,0,1,2.2-2.176A6.647,6.647,0,0,1,6.283,2.81H76.537c2.992,0,3.7.707,3.7,3.726V114.95ZM83.2,43.091l.19-.027a8.042,8.042,0,0,1,7.616,12.022,7.887,7.887,0,0,1-7.316,4.08h-.462V43.091Zm-.027,30.843H99.139v6.174H83.173ZM106.455,87.48c0,2.285-.843,3.264-2.774,3.264-3.019.027-6.011.027-9.057.027H83.173V83.128H99.928c1.822,0,2.23-.381,2.23-2.176V73.2c0-1.85-.381-2.2-2.2-2.23H83.2V62.212h.19a11.446,11.446,0,0,0,9.574-4.787,10.368,10.368,0,0,0,1.985-6.392,10.786,10.786,0,0,0-3.481-7.969,11.5,11.5,0,0,0-8.105-3.019h-.19V30.662h.19c.163,0,.3-.027.462-.027.326-.027.626-.027.925-.027H103.11c2.475,0,3.318.843,3.318,3.291C106.455,50.9,106.455,68.44,106.455,87.48Z" transform="translate(0 0)" fill="#fff"/>
      <g id="Grupo_1484" data-name="Grupo 1484" transform="translate(22.454 9.674)">
        <path id="Trazado_1800" data-name="Trazado 1800" d="M101.607,172.737H84.771c-1.741,0-2.2-.462-2.2-2.23,0-2.23-.027-4.433,0-6.664A9.977,9.977,0,0,1,90.292,154a11.178,11.178,0,0,1,2.693-.272c5.739-.027,11.478.027,17.217-.027a10.118,10.118,0,0,1,10.2,7.969,11.439,11.439,0,0,1,.218,2.366c.027,2.149,0,4.27,0,6.419,0,1.877-.435,2.312-2.339,2.312C112.758,172.737,107.182,172.737,101.607,172.737Zm15.83-3.209c0-2.149.082-4.216-.027-6.283a6.747,6.747,0,0,0-6.555-6.364q-9.261-.082-18.522,0a6.747,6.747,0,0,0-6.555,6.364c-.082,2.013-.027,4.053-.027,6.092a.692.692,0,0,0,.054.19Z" transform="translate(-82.556 -128.295)" fill="#fff"/>
        <path id="Trazado_1801" data-name="Trazado 1801" d="M124.207,60.3A10.58,10.58,0,1,1,113.6,70.907,10.633,10.633,0,0,1,124.207,60.3Zm.027,17.951a7.384,7.384,0,0,0,0-14.769,7.447,7.447,0,0,0-7.425,7.4A7.354,7.354,0,0,0,124.235,78.251Z" transform="translate(-105.156 -60.3)" fill="#fff"/>
      </g>
      <path id="Trazado_1802" data-name="Trazado 1802" d="M99.319,275.227c-.381-.027-.789-.027-1.2-.027H42.773a12.77,12.77,0,0,0-1.469.054A1.539,1.539,0,0,0,39.7,277v5.168c0,1.85.3,2.149,2.2,2.149H99.265c1.55,0,2.04-.462,2.04-1.958.027-1.632.027-3.318,0-5.032C101.3,275.771,100.87,275.336,99.319,275.227Zm-1.088,6.011H42.746l-.027-.19c-.136-1.5-.218-2.2.163-2.584.354-.381,1.006-.381,2.312-.381H98.231Z" transform="translate(-28.902 -208.027)" fill="#fff"/>
      <path id="Trazado_1831" data-name="Trazado 1831" d="M99.319,275.227c-.381-.027-.789-.027-1.2-.027H42.773a12.77,12.77,0,0,0-1.469.054A1.539,1.539,0,0,0,39.7,277v5.168c0,1.85.3,2.149,2.2,2.149H99.265c1.55,0,2.04-.462,2.04-1.958.027-1.632.027-3.318,0-5.032C101.3,275.771,100.87,275.336,99.319,275.227Zm-1.088,6.011H42.746l-.027-.19c-.136-1.5-.218-2.2.163-2.584.354-.381,1.006-.381,2.312-.381H98.231Z" transform="translate(-28.902 -191.867)" fill="#fff"/>
      <path id="Trazado_1832" data-name="Trazado 1832" d="M99.319,275.227c-.381-.027-.789-.027-1.2-.027H42.773a12.77,12.77,0,0,0-1.469.054A1.539,1.539,0,0,0,39.7,277v5.168c0,1.85.3,2.149,2.2,2.149H99.265c1.55,0,2.04-.462,2.04-1.958.027-1.632.027-3.318,0-5.032C101.3,275.771,100.87,275.336,99.319,275.227Zm-1.088,6.011H42.746l-.027-.19c-.136-1.5-.218-2.2.163-2.584.354-.381,1.006-.381,2.312-.381H98.231Z" transform="translate(-28.902 -175.706)" fill="#fff"/>
    </g>
  </g>
</svg>
