<svg xmlns="http://www.w3.org/2000/svg" width="212" height="212" viewBox="0 0 212 212">
  <g id="e_conomi" data-name="e conomi" transform="translate(-1276 -5917)">
    <path id="Trazado_2014" data-name="Trazado 2014" d="M106,0A106,106,0,1,1,0,106,106,106,0,0,1,106,0Z" transform="translate(1276 5917)" fill="#95c11f"/>
    <g id="Grupo_2369" data-name="Grupo 2369" transform="translate(1336.004 5952)">
      <path id="Trazado_1882" data-name="Trazado 1882" d="M91.052,103.124a10.763,10.763,0,0,1-1.228-5.32q-.153-37.444-.307-74.785l-.1-15.755C89.415,2.353,87.062.1,82.151.1H63.532C46.754.1,29.464.1,12.379,0h-.1A7.275,7.275,0,0,0,7.059,1.944,7.351,7.351,0,0,0,5.115,7.366c.1,16.062.1,32.431.1,48.288V91.665a15.555,15.555,0,0,1-2.251,9,39.912,39.912,0,0,0-1.944,3.581c-.2.307-.307.716-.512,1.023-1.023,2.046-.512,3.581,1.432,4.6,1.535.818,2.967,1.739,4.5,2.558,3.274,1.739,4.092,1.535,6.138-1.432a.884.884,0,0,1,.614-.307h.2l.409-.1,2.558,2.353-.307.512c-.409.614-.818,1.125-1.228,1.739-.921,1.228-1.739,2.353-2.558,3.581a5.413,5.413,0,0,0-.614,5.115,5.042,5.042,0,0,0,3.683,3.171c.409.1.921.1,1.432.2a2.253,2.253,0,0,1,.818.1h.409l.1.409c.818,3.069,2.865,4.5,6.241,4.4h.512l.1.512c.921,2.967,2.66,4.4,5.627,4.5.818,0,1.432,1.023,1.535,1.432A5.626,5.626,0,0,0,36.216,142a5.245,5.245,0,0,0,4.911-1.944,12.777,12.777,0,0,0,.921-1.228,4.332,4.332,0,0,0,.512-.716l.409-.512,1.125.921c1.841,1.535,3.683,2.967,6.138,2.66,2.66-.409,4.3-1.944,5.013-4.808l.1-.512h.512c4.3.307,5.831-.716,7.571-4.808l.2-.512.512.1c3.683.614,6.036-.921,7.264-4.5l.2-.512.512.1c3.683.512,6.036-.409,7.264-2.967,1.432-2.865.614-5.32-2.558-7.775l-.614-.512,3.581-3.171.409.409c1.228,1.228,2.455,1.535,3.785.921,2.046-.818,4.3-1.739,6.548-2.762a2.93,2.93,0,0,0,1.535-3.99A7.813,7.813,0,0,0,91.052,103.124ZM7.264,7.264c0-3.785,1.228-5.013,5.115-5.013H82.151c3.888,0,5.115,1.228,5.115,5.115l.409,84.2v1.023l-1.432.2-6.65-14.016c-.921-2.046-1.944-3.99-2.865-6.036-1.023-2.148-2.353-2.762-4.6-1.944-1.125.409-2.251.818-3.376,1.33-.614.307-1.33.512-1.944.818a4.414,4.414,0,0,0-2.66,2.046,4.789,4.789,0,0,0,.307,3.274c.1.1.1.307.2.512l.307.921-.614.2a9.923,9.923,0,0,1-6.241.1c-2.148-.512-4.4-1.125-6.548-1.739l-.716-.2a10.5,10.5,0,0,0-6.65.1c-1.637.614-3.376,1.228-5.013,1.944l-3.99,1.535a3.252,3.252,0,0,1-1.432.2c-1.023-.1-2.046-.2-3.171-.307l-2.046-.2.614-1.944a3.087,3.087,0,0,0-1.33-3.785c-1.739-1.125-3.683-2.251-5.934-3.581a2.961,2.961,0,0,0-2.558-.409,3.493,3.493,0,0,0-2.046,1.841c-1.841,3.376-3.581,6.752-5.32,10.128-.818,1.535-1.637,3.171-2.455,4.706a4.461,4.461,0,0,1-1.33,1.535l-1.023.614ZM9.617,111.819l-7.877-4.4L19.95,72.944l7.775,4.706Zm9.617,11.254a3.679,3.679,0,0,1-2.865,1.739,2.778,2.778,0,0,1-1.739-.614,3.08,3.08,0,0,1-1.33-1.944,3.92,3.92,0,0,1,.921-2.967c1.944-2.762,3.888-5.422,5.934-8.184,1.023-1.432,2.455-1.944,3.785-1.228a5.516,5.516,0,0,1,1.637,1.432l.614.614.307.307-.2.409a3.634,3.634,0,0,0-.409.921,6.25,6.25,0,0,1-.716,1.432C23.121,117.753,21.075,120.515,19.233,123.073Zm6.445,5.422a4.158,4.158,0,0,1-1.432,1.023c-.1,0-.2.1-.307.1l-.2.1h-.2a3.5,3.5,0,0,1-3.171-1.841,2.835,2.835,0,0,1,.2-2.967c1.535-2.455,3.376-4.706,4.911-6.752a3.078,3.078,0,0,1,4.3-.614,3.132,3.132,0,0,1,.818,4.4C28.748,124.4,27.213,126.551,25.679,128.5Zm6.65,5.115a2.756,2.756,0,0,1-1.33.818.357.357,0,0,0-.2.1l-.1.1h-.2a3.743,3.743,0,0,1-3.171-1.739,2.823,2.823,0,0,1,.1-2.967A41.97,41.97,0,0,1,31,125.017a3.006,3.006,0,0,1,4.092-.512c1.432,1.023,1.944,2.558,1.023,3.99A38.952,38.952,0,0,1,32.329,133.61Zm9.207,1.841a19.529,19.529,0,0,1-2.251,3.069,4.685,4.685,0,0,1-1.33.818.357.357,0,0,0-.2.1l-.1.1h-.307a3.659,3.659,0,0,1-3.171-1.637,3.06,3.06,0,0,1,0-2.967,13.524,13.524,0,0,1,2.148-2.967,3.086,3.086,0,0,1,4.3-.512A2.892,2.892,0,0,1,41.536,135.452Zm35.6-13.3c-1.432,1.637-3.683,1.637-5.524,0-2.455-2.046-5.013-4.3-8.184-6.957-.409-.409-.921-.818-1.33-.716-.2,0-.409.2-.614.409-.409.614-.512,1.023.716,1.944,1.841,1.535,3.683,3.171,5.524,4.808s2.148,3.683.818,5.32-3.581,1.739-5.422.2l-4.3-3.683-1.432-1.228c-1.125-1.023-1.535-.921-2.046-.307a1.107,1.107,0,0,0-.307.716c0,.409.512.818.921,1.228,1.228,1.023,2.558,2.148,3.888,3.274,1.637,1.535,1.841,3.581.512,5.115a3.489,3.489,0,0,1-5.115.307,35.477,35.477,0,0,1-2.967-2.558c-.409-.307-.818-.716-1.228-1.023a2.409,2.409,0,0,0-1.023-.512c-.2,0-.409.2-.614.409-.2.307-.614.818.409,1.637l.614.512a20.481,20.481,0,0,1,1.637,1.432,3.525,3.525,0,0,1,.307,4.911,3.761,3.761,0,0,1-2.762,1.33,4.3,4.3,0,0,1-2.148-.614c-.818-.614-1.739-1.228-2.66-2.046a2.176,2.176,0,0,1-.716-1.535c-.409-3.785-1.228-4.706-4.911-5.934l-.409-.1v-.409c-.307-3.99-1.228-5.218-4.911-6.241l-.409-.1-.1-.409c-.818-4.5-1.228-5.115-4.911-6.445l-.512-.2v-.512c.2-3.274-.921-5.32-3.581-6.241-2.455-.818-4.5-.1-6.445,2.353l-.409.512-.512-.307c-3.069-1.944-3.171-2.353-1.535-5.32l2.762-5.218c2.455-4.5,4.911-9.105,7.264-13.709a4.688,4.688,0,0,1,4.706-2.865h2.558l-.409,1.33a7.05,7.05,0,0,1-.307.818c-.512,1.432-1.125,2.865-1.637,4.4-1.125,2.967-2.251,6.036-3.376,9-.307.921-.409,1.432-.2,1.637.1.307.614.512,1.535.921a9.073,9.073,0,0,0,7.98-.614,9.472,9.472,0,0,0,4.6-6.752c.409-1.944.818-3.376,1.944-3.99s2.66-.2,4.195.409a12.021,12.021,0,0,1,3.478,2.251c2.148,2.046,4.195,4.092,6.241,6.138,2.558,2.558,5.32,5.218,7.98,7.775,2.762,2.558,5.627,5.115,8.389,7.468,1.023.921,2.046,1.739,2.967,2.66C78.263,118.469,78.57,120.515,77.138,122.152ZM76.831,110.8a3.187,3.187,0,0,1-2.148,1.125,3,3,0,0,1-2.046-1.023c-2.66-2.558-5.422-5.218-8.082-7.775-3.785-3.581-7.673-7.366-11.458-11.049a15.279,15.279,0,0,0-8.287-4.4,3.6,3.6,0,0,0-3.785,1.535,13.86,13.86,0,0,0-1.944,4.6,7.357,7.357,0,0,1-3.274,4.911,7.643,7.643,0,0,1-6.241.818l-.716-.2.307-.716c.512-1.228,1.023-2.558,1.432-3.785,1.228-3.274,2.455-6.343,3.888-9.31a8.456,8.456,0,0,1,3.99-3.478A31.092,31.092,0,0,1,45.526,79.8a10.091,10.091,0,0,1,4.3,0,45.326,45.326,0,0,1,5.729,1.535,16.511,16.511,0,0,0,9.924.307l.512-.1.614,1.228a12.213,12.213,0,0,1,.818,1.637c3.376,7.161,6.854,14.425,10.231,21.586C78.98,108.546,78.775,108.955,76.831,110.8Zm5.524-.1L65.68,75.6l8.491-3.274,16.471,34.886Z" transform="translate(0)" fill="#fff" stroke="#fff" stroke-width="0.6"/>
      <path id="Trazado_1883" data-name="Trazado 1883" d="M12.823,44.549H81.367a1.953,1.953,0,0,0,.921-1.125A2.144,2.144,0,0,0,81.265,42.4c-.1-.1-.512,0-.716,0H12.823a2.247,2.247,0,0,0-1.023.921A3.27,3.27,0,0,0,12.823,44.549Z" transform="translate(0.272 0.976)" fill="#fff" stroke="#fff" stroke-width="0.6"/>
      <path id="Trazado_1884" data-name="Trazado 1884" d="M13.028,33.846H80.14c1.228,0,1.944-.1,2.251-.409.1-.1.2-.2.2-.614,0-.512,0-1.023-2.455-1.023H13.028c-1.125,0-1.228.512-1.228,1.023S11.9,33.846,13.028,33.846Z" transform="translate(0.272 0.733)" fill="#fff" stroke="#fff" stroke-width="0.6"/>
      <path id="Trazado_1885" data-name="Trazado 1885" d="M40.223,60.606a2.942,2.942,0,0,0-1.535.307,7.16,7.16,0,0,1-7.877-.818c-1.535-1.125-2.66-1.023-3.888.512-.1.1-.2.307-.409.409a10.185,10.185,0,0,1-1.432,1.535A4.761,4.761,0,0,1,21.4,63.573a3.627,3.627,0,0,1-2.558-1.432l-.614-.818.921-.307a7.74,7.74,0,0,0,5.422-4.6,3.719,3.719,0,0,0,0-2.967,3.529,3.529,0,0,0-2.455-1.739,5.963,5.963,0,0,0-4.808.614,6.086,6.086,0,0,0-2.455,4.092c0,.307-.1.512-.1.818l-.307,1.432-.614-.512c-.1.1-.2.2-.307.2-.409.409-.818.716-.921,1.023-.1.512.1.716,1.228,1.228l.2.1a4.907,4.907,0,0,1,2.046,1.739,6.52,6.52,0,0,0,6.343,3.274,8.086,8.086,0,0,0,6.138-3.785l.307-.512.512.307c3.888,2.251,7.059,2.558,10.231,1.023,1.33-.614,1.432-1.023,1.125-1.739C40.53,60.708,40.325,60.606,40.223,60.606ZM17.307,59.174l-.1-.614c-.307-2.148.307-3.376.818-3.888a3.454,3.454,0,0,1,3.069-.921,1.685,1.685,0,0,1,1.535.818,1.848,1.848,0,0,1-.2,1.739,5.179,5.179,0,0,1-4.5,2.762Z" transform="translate(0.29 1.186)" fill="#fff" stroke="#fff" stroke-width="0.6"/>
      <path id="Trazado_1886" data-name="Trazado 1886" d="M14.325,12.647H43.687a2.52,2.52,0,0,0,.818-1.023c0-.2-.307-.614-.818-.921a1.759,1.759,0,0,0-.818-.1h-26.7a5.88,5.88,0,0,0-1.944.1A1.827,1.827,0,0,0,13.2,11.828a9.908,9.908,0,0,0,.921.716Z" transform="translate(0.304 0.244)" fill="#fff" stroke="#fff" stroke-width="0.6"/>
      <path id="Trazado_1887" data-name="Trazado 1887" d="M13.439,23.244H42.8a2.264,2.264,0,0,0,1.432-.307c.1-.1.2-.2.2-.716,0-.614-.307-.921-1.637-.921H13.337c-1.432,0-1.637.307-1.637.921,0,.512.1.716.2.716C12.212,23.244,12.928,23.244,13.439,23.244Z" transform="translate(0.27 0.491)" fill="#fff" stroke="#fff" stroke-width="0.6"/>
      <path id="Trazado_1888" data-name="Trazado 1888" d="M79.885,58.6H55.639c-1.637,0-1.739.512-1.739,1.125a1.036,1.036,0,0,0,.2.716,1.927,1.927,0,0,0,1.535.307H79.988a1.706,1.706,0,0,0,1.432-.512.84.84,0,0,0,.1-.716C81.42,58.907,81.113,58.6,79.885,58.6Z" transform="translate(1.243 1.351)" fill="#fff" stroke="#fff" stroke-width="0.6"/>
    </g>
  </g>
</svg>
