<svg xmlns="http://www.w3.org/2000/svg" width="183" height="181.151" viewBox="0 0 183 181.151">
  <g id="Grupo_1757" data-name="Grupo 1757" transform="translate(-535 -2021)">
    <g id="Grupo_936" data-name="Grupo 936" transform="translate(384 2205)">
      <g id="Grupo_282" data-name="Grupo 282" transform="translate(151 -184)">
        <path id="Trazado_498" data-name="Trazado 498" d="M91.5,0C142.033,0,183,40.552,183,90.575s-40.966,90.575-91.5,90.575S0,140.6,0,90.575,40.966,0,91.5,0Z" transform="translate(0 0)" fill="#fff"/>
        <g id="Grupo_935" data-name="Grupo 935" transform="translate(37.402 37.402)">
          <path id="Trazado_752" data-name="Trazado 752" d="M102.514,166.583a6.829,6.829,0,0,0-7.423,4.1,1.669,1.669,0,0,1-1.869,1.205c-3.218-.026-6.488-.026-9.655-.026h-4.62c-.26,0-.519-.026-.8-.051-.13,0-.26-.026-.415-.026l-.363-.026v-2.205c.026-1.462.026-2.846-.026-4.231a2.039,2.039,0,0,1,1.635-2.436,7.787,7.787,0,0,0,2.258-1.231,12.133,12.133,0,0,0,5.087-8.1l.052-.256.26-.051a.652.652,0,0,1,.208-.026,2.028,2.028,0,0,1,.389-.051,11.2,11.2,0,0,0,7.89-3.974,10.971,10.971,0,0,0,2.024-8.564,2.514,2.514,0,0,1,.753-1.923,17.31,17.31,0,0,0,1.817-21.924,18.154,18.154,0,0,0-6.41-5.667l-.285-.154.1-.308c.182-.538.337-1.077.519-1.615.6-1.872,1.142-3.641,1.765-5.41.156-.462.908-.692,1.246-.718.908-.026,1.817-.026,2.7-.026h1.479c1.557,0,2-.462,2-2.026V98.095c0-3.128.026-6.359-.026-9.539a2.423,2.423,0,0,1,1.635-2.615,6.6,6.6,0,0,0,3.322-8.616A6.934,6.934,0,0,0,99.114,73.5a6.788,6.788,0,0,0-4.36,8.18,6.949,6.949,0,0,0,4.853,4.846l.26.1v13.436H98.621c-.623,0-1.194-.026-1.791.026-.96.051-1.4-.308-1.557-1.282a15.812,15.812,0,0,0-17.882-12.9c-.311.051-.649.077-.96.1-.156.026-.285.026-.441.051l-.337.026-.078-.333a1.258,1.258,0,0,0-.1-.333,5.711,5.711,0,0,1-.13-.564A14.243,14.243,0,0,0,55.019,74.632a2.635,2.635,0,0,1-2.1-.154,14.186,14.186,0,0,0-11.212-.333,13.74,13.74,0,0,0-7.864,7.693,25.76,25.76,0,0,0-.831,2.615c-.13.436-.234.872-.363,1.308l-.1.308-4.2-.487V80.376c-.026-1.308-.519-1.821-1.843-1.821-1.791-.026-3.633,0-5.4,0H13.753l-.1-.231c-1.583-3.487-3.608-5.077-6.566-5.154A6.764,6.764,0,0,0,4.7,86.376,6.72,6.72,0,0,0,13,82.812,2.23,2.23,0,0,1,15.466,81.3c1.713.077,3.452.051,5.139.051h4.724v4.692l-.311.077a16.084,16.084,0,0,0-11.16,9.487,15.689,15.689,0,0,0,1.479,14.77l.208.333-.337.205a4.218,4.218,0,0,1-.467.256,7.382,7.382,0,0,0-.882.564c-.467.41-.96.795-1.427,1.18a17.4,17.4,0,0,0-3.244,3.051c-5.554,7.308-5.035,16.129,1.4,22.975a2.533,2.533,0,0,1,.519,1.59,8.617,8.617,0,0,1-.208,1.59c-.052.231-.078.462-.13.718l-.052.333H7.992c-2.206,0-2.517.308-2.517,2.436v4.077c0,5.1,0,10.359.026,15.539A1.7,1.7,0,0,1,4.306,167.1a6.643,6.643,0,0,0-4.153,7.436,6.8,6.8,0,0,0,6.774,5.59h0a6.834,6.834,0,0,0,6.748-5.462A6.652,6.652,0,0,0,9.549,167.1a1.656,1.656,0,0,1-1.194-1.846c.026-4.1.026-8.308.026-12.334v-5.359a6.742,6.742,0,0,1,.052-.769c0-.1.026-.205.026-.282l.026-.282.285-.051c1.869-.41,2.959.1,3.659,1.744a9.649,9.649,0,0,0,2.414,2.9,10.412,10.412,0,0,0,6.722,2.487l.311.026.052.282a12.539,12.539,0,0,0,15.728,9.975l.467-.128v.487A16.124,16.124,0,0,0,54.033,180.2h.182A16.168,16.168,0,0,0,70.28,163.968v-.436l4.282.667v8.385c0,1.821.389,2.205,2.232,2.205h2.959c4.386,0,8.928,0,13.392-.026h.026a1.868,1.868,0,0,1,2.024,1.308,6.657,6.657,0,0,0,7.475,3.923,6.824,6.824,0,0,0,5.632-6.718A7,7,0,0,0,102.514,166.583ZM97.349,79.94a4.018,4.018,0,0,1,1.168-2.821,3.914,3.914,0,0,1,2.8-1.18h.026a4,4,0,0,1,4.023,3.949,3.914,3.914,0,0,1-1.168,2.795,4.061,4.061,0,0,1-2.829,1.205h-.026A4.061,4.061,0,0,1,97.349,79.94ZM9.679,82.761A4.021,4.021,0,0,1,6.9,83.889H6.824a3.944,3.944,0,0,1-2.7-6.821,3.941,3.941,0,0,1,2.829-1.1A4,4,0,0,1,10.9,79.992,3.805,3.805,0,0,1,9.679,82.761Zm1.22,90.464a3.885,3.885,0,0,1-1.142,2.821,4.075,4.075,0,0,1-2.8,1.231H6.9a4.021,4.021,0,0,1-2.777-1.128,3.9,3.9,0,0,1-.078-5.59,3.9,3.9,0,0,1,2.8-1.205H6.9A3.943,3.943,0,0,1,10.9,173.225Zm64.987-21.077c-1.194.051-1.376,1.282-1.376,2v6.692l-.311.051c-3.14.59-7.241-2.128-8.383-4.744a19.132,19.132,0,0,1-1.142-4.128c-.156-.795-.519-1.718-1.505-1.692a1.321,1.321,0,0,0-.96.41,1.773,1.773,0,0,0-.415,1.308,11.34,11.34,0,0,0,4.153,8.718,3.474,3.474,0,0,1,1.272,2.564,13.078,13.078,0,0,1-11.549,13.821,10.944,10.944,0,0,1-1.583.1,13.244,13.244,0,0,1-12.769-10.462,16.248,16.248,0,0,1-.26-2.615,4.322,4.322,0,0,1,1.609-3.744,11.188,11.188,0,0,0,3.815-8.1c.078-1.205-.415-1.974-1.324-2.026-1.194-.077-1.479,1.205-1.531,1.769-.545,4.436-2.959,7.385-7.007,8.487a9.555,9.555,0,0,1-11.186-5.513,9.246,9.246,0,0,1,4.282-11.462,12.8,12.8,0,0,1,6.592-1.256,10.566,10.566,0,0,0,5.58-1.051c3.426-1.872,4.983-5.077,4.594-9.513a1.3,1.3,0,0,0-1.376-1.231h-.026a1.34,1.34,0,0,0-1.376,1.231,2.491,2.491,0,0,0-.026.769v.308c-.026,4.385-2.31,6.616-6.8,6.667H36.1a18.776,18.776,0,0,0-4.178.308,12.257,12.257,0,0,0-9.655,9.128,5.02,5.02,0,0,1-.208.667,1.241,1.241,0,0,1-.1.282l-.078.256-.26.026a6.927,6.927,0,0,1-6.592-3.692l-.311-.564h1.427c.545,0,1.038,0,1.557-.026a1.722,1.722,0,0,0,1.246-.564,1.187,1.187,0,0,0,.285-.872,1.4,1.4,0,0,0-1.505-1.385c-.779-.026-1.557-.026-2.31-.026h-1.35l-.052-.333c-.493-3.385,2.44-6.564,5.346-7.308.493-.128,1.012-.179,1.479-.256.208-.026.389-.051.6-.077a1.413,1.413,0,0,0,1.427-1.487,1.214,1.214,0,0,0-.363-.872,1.618,1.618,0,0,0-1.246-.436,10.575,10.575,0,0,0-7.63,3.487c-.13.128-.26.282-.389.436a2.73,2.73,0,0,0-.234.282l-.285.333-.285-.308a13.75,13.75,0,0,1-3.711-12.9,14.845,14.845,0,0,1,9.629-11,15.2,15.2,0,0,1,14.56,2.641c.078.077.182.154.26.231.234.205.571.513.753.487a2.841,2.841,0,0,0,1.739-.615.981.981,0,0,0,.311-.795,1.154,1.154,0,0,0-.571-.872l-.779-.538a32.449,32.449,0,0,0-4.957-2.974,15.452,15.452,0,0,0-9.784-.846,1.69,1.69,0,0,1-1.947-.641,12.908,12.908,0,0,1,6.436-19.462,1.99,1.99,0,0,1,.415-.077c.078,0,.156-.026.26-.026l.441-.077V89.5c0,.821-.026,1.615-.052,2.41a37.022,37.022,0,0,0,.1,5.385,6.93,6.93,0,0,1-.13,1.923c-.26,1.59-.441,2.846,1.453,3.564,2-.692,1.791-1.974,1.531-3.59a8.344,8.344,0,0,1-.156-1.949,42.632,42.632,0,0,0,.13-5.8c-.026-.872-.052-1.769-.052-2.692V88.3l.467.077c.337.051.675.1.986.154a23.611,23.611,0,0,1,2.414.462,1.688,1.688,0,0,1,.96,1.205,13.858,13.858,0,0,0,8.305,9.744,6.091,6.091,0,0,1,4.023,6.308,18.57,18.57,0,0,0,.026,2.385,1.4,1.4,0,0,0,2.751.308c1.35-3.974-.908-9.308-4.749-11.18-.234-.1-.467-.231-.7-.333-.311-.154-.623-.282-.934-.436A11.258,11.258,0,0,1,36.1,90.351a10.732,10.732,0,0,1,.831-8.513A11.312,11.312,0,0,1,43.937,76.3a11.092,11.092,0,0,1,8.668,1.231,2.556,2.556,0,0,0,3.011.026,11.3,11.3,0,0,1,15.624,4A10.855,10.855,0,0,1,72.3,90.017a11.236,11.236,0,0,1-5.424,6.821,1.218,1.218,0,0,1-.26.128,1.942,1.942,0,0,0-.389.231c-.856.59-1.038,1.154-.623,1.9a1.4,1.4,0,0,0,2.05.513,13.478,13.478,0,0,0,7.319-8.9,2.414,2.414,0,0,1,2.154-1.974A13.186,13.186,0,0,1,92.34,98.864a3.742,3.742,0,0,1,.026.538v.641h-9.94c-.856,0-1.765,0-2.621.026a1.5,1.5,0,0,0-1.635,1.385,1.4,1.4,0,0,0,.363.949,1.858,1.858,0,0,0,1.324.487c2.543.026,5.139.026,7.656,0H92.47l-.026.41a10.656,10.656,0,0,1-2.362,5.821c-.337.462-1.272.333-1.661.282a17.61,17.61,0,0,0-15.312,4.231c-.753.667-.882,1.41-.337,2.051.571.667,1.272.692,2.128.1a3.083,3.083,0,0,0,.467-.385,14.591,14.591,0,0,1,7.526-3.359,14.888,14.888,0,0,1,12.484,4.026,14.73,14.73,0,0,1,4.438,12.436,13.428,13.428,0,0,1-3.945,8.128l-.311.308-.285-.333a10.9,10.9,0,0,0-6.93-4.077,7.582,7.582,0,0,0-1.35-.1c-.675.026-1.505.256-1.557,1.308-.052.846.415,1.359,1.376,1.513.208.026.415.051.649.077a5.166,5.166,0,0,1,.908.128,7.54,7.54,0,0,1,6.1,7.59,7.7,7.7,0,0,1-6.8,7.282,5.932,5.932,0,0,1-.675.026h-.649l-.052-.308a12.9,12.9,0,0,0-3.062-6.205,12.586,12.586,0,0,0-8.487-4.128,36.312,36.312,0,0,0-4.1-.051,1.41,1.41,0,1,0,.026,2.795,15.251,15.251,0,0,0,1.531,0c.727,0,1.479,0,2.232.051a9.766,9.766,0,0,1,8.8,7.128,9.071,9.071,0,0,1-3.867,9.923,5.639,5.639,0,0,1-.882.487c-.182.077-.363.18-.571.282l-.571.308v-6.41a2.365,2.365,0,0,0-.545-1.692A.981.981,0,0,0,75.886,152.147Zm28.289,23.975a4,4,0,0,1-2.8,1.154h-.052a4.047,4.047,0,0,1-3.971-4,3.862,3.862,0,0,1,1.22-2.795,4.011,4.011,0,0,1,6.8,2.872A3.723,3.723,0,0,1,104.175,176.122Z" transform="translate(0.038 -73.126)" fill="#001321"/>
          <path id="Trazado_753" data-name="Trazado 753" d="M203.078,195.515a3.839,3.839,0,0,0,.026.792,1.345,1.345,0,0,0,1.425,1.24h0a1.345,1.345,0,0,0,1.425-1.24,3.839,3.839,0,0,0,.026-.792v-78.23a3.356,3.356,0,0,0-.053-.9,1.345,1.345,0,0,0-1.372-1.188H204.5a1.355,1.355,0,0,0-1.425,1.214,2.6,2.6,0,0,0-.026.792v78.019A.988.988,0,0,1,203.078,195.515Z" transform="translate(-150.355 -104.095)" fill="#001321"/>
          <path id="Trazado_754" data-name="Trazado 754" d="M70.339,241.2h0a7.062,7.062,0,0,0-5.015,2.138A6.379,6.379,0,0,0,63.4,247.9a2.271,2.271,0,0,0,.818,1.5,1.5,1.5,0,0,0,1.293-.079,2.521,2.521,0,0,0,.713-1.531A4.486,4.486,0,0,1,68.2,244.71a3.893,3.893,0,0,1,2.059-.607,4.018,4.018,0,0,1,1.109.158,4.081,4.081,0,0,1,3.009,4.144,4.136,4.136,0,0,1-3.827,3.853,2.172,2.172,0,0,0-1.452.713,1.247,1.247,0,0,0-.211.924c.132.9.9,1.346,2.059,1.24a7.06,7.06,0,0,0,6.361-7.205A6.983,6.983,0,0,0,70.339,241.2Z" transform="translate(-46.974 -198.286)" fill="#001321"/>
          <path id="Trazado_755" data-name="Trazado 755" d="M286.631,276.062a2.053,2.053,0,0,0,1.531-.317,1.4,1.4,0,0,0,.5-.9,1.284,1.284,0,0,0-.238-1,2.076,2.076,0,0,0-1.425-.66,4.1,4.1,0,0,1-3.3-2.059,3.955,3.955,0,0,1-.185-3.748A4.587,4.587,0,0,1,287.106,265c1.029-.132,1.61-.713,1.584-1.5-.053-.871-.739-1.372-1.9-1.4-.053,0-.132.026-.211.026a4.535,4.535,0,0,0-.9.185,7.023,7.023,0,0,0-5.411,7.126A6.934,6.934,0,0,0,286.631,276.062Z" transform="translate(-207.615 -213.85)" fill="#001321"/>
          <path id="Trazado_756" data-name="Trazado 756" d="M246.382,248.977c-.739-1.056-1.848-.528-2.455-.106a12.539,12.539,0,0,0-5.727,10.557v.528a2.881,2.881,0,0,0,.554,2.032,1.308,1.308,0,0,0,.924.317c.37,0,1.452-.026,1.425-2.27a9.828,9.828,0,0,1,4.54-8.815,2.094,2.094,0,0,0,1-1.267A1.24,1.24,0,0,0,246.382,248.977Z" transform="translate(-176.456 -203.618)" fill="#001321"/>
          <path id="Trazado_757" data-name="Trazado 757" d="M117.056,367.564a2.227,2.227,0,0,1-1.927-2.191A2.16,2.16,0,0,1,117,363.156c.106-.026.211-.026.317-.053a.392.392,0,0,0,.185-.026c.924-.264,1.32-.792,1.24-1.584a1.33,1.33,0,0,0-1.188-1.293,5.306,5.306,0,0,0-5.331,4.645,5.114,5.114,0,0,0,4.144,5.543c1.267.264,2.164-.132,2.375-1.082C118.957,368.487,118.376,367.88,117.056,367.564Z" transform="translate(-83.102 -286.811)" fill="#001321"/>
          <path id="Trazado_758" data-name="Trazado 758" d="M229.8,108.115c.158.977.792,1.584,1.584,1.5a1.549,1.549,0,0,0,1.32-1.742,7.072,7.072,0,0,0-6.651-6.677h-.079a1.568,1.568,0,0,0-1.689,1.293c-.079.792.5,1.425,1.478,1.584C228.4,104.526,229.374,105.5,229.8,108.115Z" transform="translate(-166.138 -93.791)" fill="#001321"/>
          <path id="Trazado_759" data-name="Trazado 759" d="M161.126,127.643c-2.507-.37-3.616-1.478-3.959-3.959-.132-.977-.713-1.584-1.452-1.584h-.079a1.551,1.551,0,0,0-1.346,1.821,7.012,7.012,0,0,0,6.6,6.6,1.551,1.551,0,0,0,1.821-1.346C162.736,128.408,162.129,127.8,161.126,127.643Z" transform="translate(-114.291 -109.174)" fill="#001321"/>
          <path id="Trazado_760" data-name="Trazado 760" d="M330.845,251.177c2.587.422,3.616,1.425,4.038,4.038.158.977.792,1.584,1.584,1.5a1.56,1.56,0,0,0,1.32-1.768,7.028,7.028,0,0,0-6.651-6.651h-.079a1.55,1.55,0,0,0-1.689,1.32C329.261,250.385,329.868,251.019,330.845,251.177Z" transform="translate(-244.254 -203.492)" fill="#001321"/>
          <path id="Trazado_761" data-name="Trazado 761" d="M232.6,189.924a1.338,1.338,0,0,0,1.4-1.372,9.729,9.729,0,0,0-.026-2.138,1.288,1.288,0,0,0-1.4-1.214h0a1.343,1.343,0,0,0-1.425,1.214,3.1,3.1,0,0,0-.026.713v.792H231.1v.607A1.44,1.44,0,0,0,232.6,189.924Z" transform="translate(-171.14 -156.5)" fill="#001321"/>
          <path id="Trazado_762" data-name="Trazado 762" d="M171.1,264.681v-.4h.026v-.5a1.467,1.467,0,0,0-1.452-1.584h0a1.467,1.467,0,0,0-1.452,1.584v.158a9.567,9.567,0,0,0,.026,1.742,1.323,1.323,0,0,0,1.372,1.267,1.338,1.338,0,0,0,1.478-1.293,4.679,4.679,0,0,0,.026-.633A1.624,1.624,0,0,1,171.1,264.681Z" transform="translate(-124.557 -213.783)" fill="#001321"/>
          <path id="Trazado_763" data-name="Trazado 763" d="M234.7,332.153a3.1,3.1,0,0,0-.713-.026h-.792V332.1h-.5a1.791,1.791,0,0,0-1.214.528,1.323,1.323,0,0,0-.29.95,1.393,1.393,0,0,0,1.5,1.425h.185a10.8,10.8,0,0,0,1.848-.026,1.312,1.312,0,0,0,1.214-1.425A1.354,1.354,0,0,0,234.7,332.153Z" transform="translate(-171.221 -265.748)" fill="#001321"/>
          <path id="Trazado_764" data-name="Trazado 764" d="M206.035,447.071h-.053v-.4a2.268,2.268,0,0,1,.026-.422,2.6,2.6,0,0,0-.026-.792,1.3,1.3,0,0,0-1.372-1.161h-.053a1.283,1.283,0,0,0-1.4,1.161,7.807,7.807,0,0,0,.026,2.481,1.277,1.277,0,0,0,1.4,1.082,1.345,1.345,0,0,0,1.4-1.135,3.87,3.87,0,0,0,.053-.818Z" transform="translate(-150.382 -349.474)" fill="#001321"/>
        </g>
      </g>
    </g>
  </g>
</svg>
