<svg xmlns="http://www.w3.org/2000/svg" width="34" height="64" viewBox="0 0 34 64">
  <g id="espacios_icono" data-name="espacios icono" transform="translate(-204.49 -1798.667)">
    <g id="Rectángulo_1853" data-name="Rectángulo 1853" transform="translate(204.49 1800.667)" fill="none" stroke="#ff7060" stroke-width="2">
      <rect width="34" height="62" stroke="none"/>
      <rect x="1" y="1" width="32" height="60" fill="none"/>
    </g>
    <g id="Rectángulo_1854" data-name="Rectángulo 1854" transform="translate(214.49 1844.667)" fill="none" stroke="#ff7060" stroke-width="2">
      <rect width="14" height="18" stroke="none"/>
      <rect x="1" y="1" width="12" height="16" fill="none"/>
    </g>
    <g id="Grupo_1066" data-name="Grupo 1066" transform="translate(210.753 1808.06)">
      <g id="Rectángulo_1855" data-name="Rectángulo 1855" transform="translate(-0.262 -0.393)" fill="none" stroke="#ff7060" stroke-width="2">
        <rect width="9" height="14" stroke="none"/>
        <rect x="1" y="1" width="7" height="12" fill="none"/>
      </g>
      <g id="Rectángulo_1858" data-name="Rectángulo 1858" transform="translate(-0.262 16.607)" fill="none" stroke="#ff7060" stroke-width="2">
        <rect width="9" height="16" stroke="none"/>
        <rect x="1" y="1" width="7" height="14" fill="none"/>
      </g>
      <g id="Rectángulo_1856" data-name="Rectángulo 1856" transform="translate(13.738 -0.393)" fill="none" stroke="#ff7060" stroke-width="2">
        <rect width="8" height="14" stroke="none"/>
        <rect x="1" y="1" width="6" height="12" fill="none"/>
      </g>
      <g id="Rectángulo_1857" data-name="Rectángulo 1857" transform="translate(13.738 16.607)" fill="none" stroke="#ff7060" stroke-width="2">
        <rect width="8" height="16" stroke="none"/>
        <rect x="1" y="1" width="6" height="14" fill="none"/>
      </g>
    </g>
    <g id="Rectángulo_1859" data-name="Rectángulo 1859" transform="translate(214.49 1798.667)" fill="none" stroke="#ff7060" stroke-width="2">
      <rect width="14" height="2" stroke="none"/>
      <rect x="1" y="1" width="12" fill="none"/>
    </g>
  </g>
</svg>
