<svg xmlns="http://www.w3.org/2000/svg" width="116.821" height="116.821" viewBox="0 0 116.821 116.821">
  <g id="Grupo_2307" data-name="Grupo 2307" transform="translate(-6901 9393.395)">
    <circle id="Elipse_159" data-name="Elipse 159" cx="56.411" cy="56.411" r="56.411" transform="translate(6905 -9389.395)" fill="#39424c"/>
    <g id="Grupo_2285" data-name="Grupo 2285" transform="translate(12744.125 -16052.055)">
      <circle id="Elipse_155" data-name="Elipse 155" cx="56.411" cy="56.411" r="56.411" transform="translate(-5843.125 6658.66)" fill="#dae335"/>
      <g id="Grupo_2302" data-name="Grupo 2302" transform="translate(-5818.125 6682.438)">
        <g id="Grupo_2297" data-name="Grupo 2297">
          <g id="Grupo_2289" data-name="Grupo 2289" transform="translate(4.721 4.721)">
            <path id="Trazado_1983" data-name="Trazado 1983" d="M-37.114,65.855h-7.852v10.13H-64.3V65.855H-94.94V53.192l25.072-36.3h20.429L-71.726,50.406h8.02V41.373h18.741v9.033h7.852Z" transform="translate(94.94 -16.892)" fill="#fff"/>
          </g>
          <g id="Grupo_2290" data-name="Grupo 2290" transform="translate(0)">
            <path id="Trazado_1983-2" data-name="Trazado 1983" d="M-37.114,65.855h-7.852v10.13H-64.3V65.855H-94.94V53.192l25.072-36.3h20.429L-71.726,50.406h8.02V41.373h18.741v9.033h7.852Z" transform="translate(94.94 -16.892)" fill="#39424c"/>
          </g>
        </g>
      </g>
    </g>
  </g>
</svg>
