<svg xmlns="http://www.w3.org/2000/svg" width="27.252" height="30.28" viewBox="0 0 27.252 30.28">
  <path id="ic_date_range_24px" d="M12.084,15.626H9.056v3.028h3.028Zm6.056,0H15.112v3.028H18.14Zm6.056,0H21.168v3.028H24.2Zm3.028-10.6H25.71V2H22.682V5.028H10.57V2H7.542V5.028H6.028A3.014,3.014,0,0,0,3.015,8.056L3,29.252A3.027,3.027,0,0,0,6.028,32.28h21.2a3.037,3.037,0,0,0,3.028-3.028V8.056A3.037,3.037,0,0,0,27.224,5.028Zm0,24.224H6.028V12.6h21.2Z" transform="translate(-3 -2)" fill="#007387"/>
</svg>
