<svg xmlns="http://www.w3.org/2000/svg" width="183" height="181.151" viewBox="0 0 183 181.151">
  <g id="Grupo_1758" data-name="Grupo 1758" transform="translate(-384 -2205)">
    <g id="Grupo_936" data-name="Grupo 936" transform="translate(384 2205)">
      <g id="Grupo_282" data-name="Grupo 282" transform="translate(0)">
        <path id="Trazado_498" data-name="Trazado 498" d="M91.5,0C142.033,0,183,40.552,183,90.575s-40.966,90.575-91.5,90.575S0,140.6,0,90.575,40.966,0,91.5,0Z" transform="translate(0 0)" fill="#fff"/>
        <g id="Grupo_941" data-name="Grupo 941" transform="translate(-1115 -3241.029)">
          <g id="Grupo_934" data-name="Grupo 934" transform="translate(1142.454 3273)">
            <g id="Grupo_933" data-name="Grupo 933">
              <path id="Trazado_731" data-name="Trazado 731" d="M1365.039,361.228V358.17a1.47,1.47,0,1,0-2.939,0v3.058a1.47,1.47,0,1,0,2.939,0Z" transform="translate(-1337.091 -272.145)" fill="#001321"/>
              <path id="Trazado_732" data-name="Trazado 732" d="M1395.7,361.228a1.47,1.47,0,1,0,2.939,0V358.17a1.47,1.47,0,1,0-2.939,0Z" transform="translate(-1362.727 -272.145)" fill="#001321"/>
              <path id="Trazado_733" data-name="Trazado 733" d="M1336.43,410.535h0a1.444,1.444,0,0,0-1.28-.735,1.694,1.694,0,0,0-.735.19,1.451,1.451,0,0,0-.545,1.991,10.084,10.084,0,0,0,8.771,5.025h.071a1.48,1.48,0,0,0,1.47-1.4,1.462,1.462,0,0,0-1.4-1.541A7.151,7.151,0,0,1,1336.43,410.535Z" transform="translate(-1315.404 -312.658)" fill="#001321"/>
              <path id="Trazado_734" data-name="Trazado 734" d="M1307.542,255.7h-29.584a17.563,17.563,0,0,0-17.542,17.542,1.47,1.47,0,0,0,2.939,0,14.624,14.624,0,0,1,14.6-14.6H1306l-.047.4A14.626,14.626,0,0,1,1291.47,271.8h-16.807a1.477,1.477,0,0,0-1.47,1.47v1.493a4.955,4.955,0,0,1-4.267,4.907l-.142.024-.119-.095a7.453,7.453,0,0,0-4.646-1.636,7.325,7.325,0,0,0-2.655.5,7.5,7.5,0,0,0-2.584,1.683,7.44,7.44,0,0,0,0,10.525,7.055,7.055,0,0,0,1.825,1.327l.142.071.024.166a19.982,19.982,0,0,0,39.611-3.745V278.077a1.47,1.47,0,0,0-2.939,0v10.406a17.042,17.042,0,0,1-33.922,2.347,1.473,1.473,0,0,0-.972-1.185,4.936,4.936,0,0,1-1.707-1.067,4.464,4.464,0,0,1,0-6.353,4.258,4.258,0,0,1,1.564-1.019,4.484,4.484,0,0,1,4.788,1.019,1.52,1.52,0,0,0,1.114.45,7.894,7.894,0,0,0,7.823-7.586l.024-.332h15.313a17.563,17.563,0,0,0,17.542-17.542A1.488,1.488,0,0,0,1307.542,255.7Z" transform="translate(-1256.6 -195.087)" fill="#001321"/>
              <path id="Trazado_735" data-name="Trazado 735" d="M1353.7,77.5a1.477,1.477,0,0,0-1.47,1.47,3.763,3.763,0,0,1-3.769,3.769h-11.449a1.475,1.475,0,0,0-1.09.5l-5.9,6.614V84.236a1.477,1.477,0,0,0-1.47-1.47h-25.744A3.763,3.763,0,0,1,1299.039,79V55.908a3.763,3.763,0,0,1,3.769-3.769h34.87a1.47,1.47,0,1,0,0-2.939h-34.87a6.717,6.717,0,0,0-6.708,6.708V78.973a6.717,6.717,0,0,0,6.708,6.708h24.274v8.012a1.462,1.462,0,0,0,2.56.972l8.012-8.984h10.809a6.718,6.718,0,0,0,6.708-6.708A1.477,1.477,0,0,0,1353.7,77.5Z" transform="translate(-1286.737 -37.537)" fill="#001321"/>
              <path id="Trazado_736" data-name="Trazado 736" d="M1498.208,36.482h10.81l8.012,8.984a1.483,1.483,0,0,0,1.612.4,1.465,1.465,0,0,0,.948-1.375V36.482h24.274a6.717,6.717,0,0,0,6.708-6.708V6.708A6.717,6.717,0,0,0,1543.864,0h-4.148a1.47,1.47,0,1,0,0,2.939h4.148a3.763,3.763,0,0,1,3.769,3.769V29.773a3.763,3.763,0,0,1-3.769,3.769h-25.743a1.477,1.477,0,0,0-1.47,1.47V40.63l-5.9-6.614a1.514,1.514,0,0,0-1.09-.5h-11.449a3.763,3.763,0,0,1-3.769-3.769V6.708a3.763,3.763,0,0,1,3.769-3.769h35.676a1.477,1.477,0,0,0,1.47-1.47,1.477,1.477,0,0,0-1.47-1.47h-35.676a6.717,6.717,0,0,0-6.708,6.708V29.773A6.717,6.717,0,0,0,1498.208,36.482Z" transform="translate(-1435.817)" fill="#001321"/>
              <path id="Trazado_737" data-name="Trazado 737" d="M1623.622,39H1603.07a1.47,1.47,0,0,0,0,2.939h20.552a1.47,1.47,0,1,0,0-2.939Z" transform="translate(-1519.818 -29.755)" fill="#001321"/>
              <path id="Trazado_738" data-name="Trazado 738" d="M1532.97,41.839h10.549a1.47,1.47,0,1,0,0-2.939H1532.97a1.477,1.477,0,0,0-1.47,1.47A1.462,1.462,0,0,0,1532.97,41.839Z" transform="translate(-1466.335 -29.679)" fill="#001321"/>
              <path id="Trazado_739" data-name="Trazado 739" d="M1669.4,70.5h-6.329a1.47,1.47,0,1,0,0,2.939h6.329a1.47,1.47,0,1,0,0-2.939Z" transform="translate(-1565.595 -53.788)" fill="#001321"/>
              <path id="Trazado_740" data-name="Trazado 740" d="M1532.97,73.439h24.772a1.47,1.47,0,1,0,0-2.939H1532.97a1.477,1.477,0,0,0-1.47,1.47A1.462,1.462,0,0,0,1532.97,73.439Z" transform="translate(-1466.335 -53.788)" fill="#001321"/>
              <path id="Trazado_741" data-name="Trazado 741" d="M1532.97,104.939h25.862a1.47,1.47,0,0,0,0-2.939H1532.97a1.477,1.477,0,0,0-1.47,1.47A1.462,1.462,0,0,0,1532.97,104.939Z" transform="translate(-1466.335 -77.821)" fill="#001321"/>
              <path id="Trazado_742" data-name="Trazado 742" d="M1335.07,88.039h10.549a1.47,1.47,0,0,0,0-2.939H1335.07a1.47,1.47,0,0,0,0,2.939Z" transform="translate(-1315.347 -64.927)" fill="#001321"/>
              <path id="Trazado_743" data-name="Trazado 743" d="M1422.488,86.57a1.477,1.477,0,0,0-1.47-1.47H1410.47a1.47,1.47,0,1,0,0,2.939h10.549A1.477,1.477,0,0,0,1422.488,86.57Z" transform="translate(-1372.874 -64.927)" fill="#001321"/>
              <path id="Trazado_744" data-name="Trazado 744" d="M1333.6,118.07a1.477,1.477,0,0,0,1.47,1.47h31.954a1.47,1.47,0,1,0,0-2.939H1335.07A1.477,1.477,0,0,0,1333.6,118.07Z" transform="translate(-1315.347 -88.96)" fill="#001321"/>
              <path id="Trazado_745" data-name="Trazado 745" d="M1382.67,148.2a1.47,1.47,0,1,0,0,2.939h14.578a1.47,1.47,0,0,0,0-2.939Z" transform="translate(-1351.664 -113.069)" fill="#001321"/>
              <path id="Trazado_746" data-name="Trazado 746" d="M1333.6,149.57a1.477,1.477,0,0,0,1.47,1.47h5.215a1.47,1.47,0,0,0,0-2.939h-5.215A1.493,1.493,0,0,0,1333.6,149.57Z" transform="translate(-1315.347 -112.993)" fill="#001321"/>
              <path id="Trazado_747" data-name="Trazado 747" d="M1625.639,336.691V333.87a1.47,1.47,0,1,0-2.939,0v2.821a1.47,1.47,0,1,0,2.939,0Z" transform="translate(-1535.917 -253.605)" fill="#001321"/>
              <path id="Trazado_748" data-name="Trazado 748" d="M1594.639,336.691V333.87a1.47,1.47,0,1,0-2.939,0v2.821a1.47,1.47,0,1,0,2.939,0Z" transform="translate(-1512.265 -253.605)" fill="#001321"/>
              <path id="Trazado_749" data-name="Trazado 749" d="M1621.033,388.374a9.465,9.465,0,0,0,8.178-4.694,1.44,1.44,0,0,0-.545-1.991,1.513,1.513,0,0,0-1.114-.142,1.421,1.421,0,0,0-.877.687,6.58,6.58,0,0,1-5.784,3.224,1.477,1.477,0,0,0-1.019.474,1.446,1.446,0,0,0-.379,1.067A1.461,1.461,0,0,0,1621.033,388.374Z" transform="translate(-1533.467 -291.066)" fill="#001321"/>
              <path id="Trazado_750" data-name="Trazado 750" d="M1702.025,280.818c-1.138-8.107-3.911-13.891-8.486-17.708a1.467,1.467,0,0,0-2.062.19,1.378,1.378,0,0,0-.332,1.067,1.429,1.429,0,0,0,.521,1c3.982,3.342,6.424,8.534,7.467,15.882,2.157,15.337-4.362,28.9-6.4,32.689l-.19.332-.332-.213a15.352,15.352,0,0,1-6.471-8.249,1.424,1.424,0,0,0-.711-.853,1.377,1.377,0,0,0-.664-.166,1.49,1.49,0,0,0-.45.071,1.425,1.425,0,0,0-.853.711,1.406,1.406,0,0,0-.095,1.114,18.2,18.2,0,0,0,9.6,10.88,1.524,1.524,0,0,0,.569.119,1.484,1.484,0,0,0,1.257-.711C1699.347,308.505,1703.969,294.591,1702.025,280.818Z" transform="translate(-1581.842 -200.482)" fill="#001321"/>
              <path id="Trazado_751" data-name="Trazado 751" d="M1600.408,266.645a7.017,7.017,0,0,0-4.457-6.519,7.07,7.07,0,0,0-4.48-.19l-.45.142V257.8a1.473,1.473,0,0,0-1.967-1.4c-.095.024-9.672,3.366-16.048-4.954a1.472,1.472,0,0,0-2.2-.142c-1.517,1.517-5.144,2.181-8.036,2.276h-.308l-.047-.308a9.331,9.331,0,0,1,1.494-7.372c1.968-2.56,5.642-3.864,10.952-3.864,5.974,0,12.255.166,17.447,2.2a1.4,1.4,0,0,0,1.114-.024,1.528,1.528,0,0,0,.782-.806,1.4,1.4,0,0,0-.024-1.114,1.528,1.528,0,0,0-.806-.782c-5.689-2.228-12.255-2.418-18.514-2.418s-10.738,1.683-13.275,5c-3.153,4.125-2.228,9.269-1.683,11.307a1.472,1.472,0,0,0,1.375,1.09c.64.024,6.424.166,10.146-2.015l.237-.142.19.213a16.682,16.682,0,0,0,11.473,5.4,19.482,19.482,0,0,0,4.385-.261l.427-.071v3.058a1.435,1.435,0,0,0,.925,1.351,1.47,1.47,0,0,0,1.588-.332,4.041,4.041,0,0,1,4.314-.9,3.61,3.61,0,0,1,1.4.924,4.006,4.006,0,0,1,0,5.689,4.268,4.268,0,0,1-1.517.972,1.473,1.473,0,0,0-.972,1.185,15.6,15.6,0,0,1-31.053-2.133v-8.249a1.47,1.47,0,0,0-2.939,0v8.249a18.541,18.541,0,0,0,36.743,3.532l.024-.166.142-.071a6.94,6.94,0,0,0,3.627-6.092Z" transform="translate(-1487.573 -182.422)" fill="#001321"/>
            </g>
          </g>
        </g>
      </g>
    </g>
  </g>
</svg>
