<svg id="instagram-logo_1_" xmlns="http://www.w3.org/2000/svg" width="15.607" height="15.057" viewBox="0 0 15.607 15.057">
  <g id="Grupo_1115" data-name="Grupo 1115" transform="translate(0)">
    <path id="Trazado_1-2_1_" d="M37.883.606H30.925A4.34,4.34,0,0,0,26.6,4.743v6.77a4.217,4.217,0,0,0,4.325,4.137h6.958a4.34,4.34,0,0,0,4.325-4.137V4.743A4.1,4.1,0,0,0,37.883.606ZM40.7,11.325a2.935,2.935,0,0,1-3.009,2.821H30.737a3.212,3.212,0,0,1-3.009-2.821V4.743a2.935,2.935,0,0,1,3.009-2.821h6.958A3.212,3.212,0,0,1,40.7,4.743Z" transform="translate(-26.6 -0.593)" fill="#fff"/>
  </g>
  <path id="Trazado_2_1_" d="M23.461-3.5A3.938,3.938,0,0,0,19.7.449,3.938,3.938,0,0,0,23.649,4.21,3.938,3.938,0,0,0,27.41.261,3.817,3.817,0,0,0,23.461-3.5Zm0,6.394A2.661,2.661,0,0,1,21.016.261a2.661,2.661,0,0,1,2.633-2.445A2.489,2.489,0,0,1,26.094.261,2.571,2.571,0,0,1,23.461,2.894Z" transform="translate(-15.751 7.086)" fill="#fff"/>
  <path id="Trazado_3_1_" d="M24.484-4.1a1.426,1.426,0,0,0-.752.376.909.909,0,0,0,0,1.316h0a1.137,1.137,0,0,0,1.5,0,.909.909,0,0,0,0-1.316h0C24.86-4.1,24.672-4.1,24.484-4.1Z" transform="translate(-12.449 6.558)" fill="#fff"/>
</svg>
