<svg xmlns="http://www.w3.org/2000/svg" width="170" height="170" viewBox="0 0 170 170">
  <g id="inventario_habitaciones" data-name="inventario habitaciones" transform="translate(-875 -1512)">
    <circle id="Elipse_32" data-name="Elipse 32" cx="85" cy="85" r="85" transform="translate(875 1512)" fill="#fff"/>
    <g id="Grupo_884" data-name="Grupo 884" transform="translate(908.511 1542.333)">
      <path id="Trazado_669" data-name="Trazado 669" d="M72.41,292.278c-.773-2.9-2.772-4.752-6.3-5.82l-.425-.129v-.446q0-2.345,0-4.665c0-3.513.009-7.144-.01-10.7-.017-3.475-1.879-5.313-5.385-5.316-15.344-.015-31.394-.015-47.706,0-3.645,0-5.424,1.788-5.438,5.455-.014,3.5-.01,6.926-.007,10.552q0,2.322,0,4.677v.446l-.427.129c-4.308,1.3-6.53,3.873-6.6,7.651-.125,6.364-.106,12.841-.089,19.105.009,3.005.017,6.112.01,9.169a1.661,1.661,0,0,0,.346,1.2,1.683,1.683,0,0,0,1.243.339c1.2-.014,2.285-.021,3.293-.021,1.053,0,2.021.007,2.945.022a1.662,1.662,0,0,0,1.21-.334,1.692,1.692,0,0,0,.341-1.236C9.4,321.24,9.408,320.1,9.411,319q0-.733,0-1.468v-.6H63.423v1.893c0,.933,0,1.829,0,2.728,0,1.09.055,1.816.3,2.069s.931.3,1.97.3c1.564.007,3.336.012,5.083,0,1.9-.015,2.011-.132,2.013-2.059.009-9.086.014-17.987-.014-26.962A10.552,10.552,0,0,0,72.41,292.278Zm-62.3-23.892a3.117,3.117,0,0,1,2.345-.753h.015c15.306.033,30.965.033,47.873,0h.014a3.142,3.142,0,0,1,2.368.756,3.041,3.041,0,0,1,.717,2.282c-.046,3.533-.038,7.151-.029,10.648q.005,2.14.007,4.3v.6H58.772l0-2.436c0-1.308,0-2.585,0-3.864-.014-4.161-1.656-5.786-5.858-5.795q-1.039,0-2.078-.007c-2.344-.009-4.768-.017-7.147.019-3.1.046-4.776,1.709-4.838,4.807-.031,1.493-.022,2.966-.015,4.526q.005,1.052.007,2.133v.6H34v-.6q0-1.075.007-2.124c.007-1.558.014-3.031-.014-4.524-.06-3.106-1.73-4.771-4.828-4.816-3.365-.048-6.784-.05-10.161,0a4.682,4.682,0,0,0-4.92,4.848c-.05,1.4-.06,2.824-.069,4.2-.005.729-.01,1.459-.021,2.188a.748.748,0,0,1-.252.523c-.026.027-.06.06-.1.108l-.18.209H9.674L9.6,285.7c-.015-.1-.036-.213-.058-.322a5.063,5.063,0,0,1-.117-.943c-.005-1.617,0-3.233,0-4.85.005-2.918.01-5.937-.029-8.9A3.017,3.017,0,0,1,10.112,268.386Zm30.994,15.323c-.022-1.75-.045-3.4.1-5.092a2.86,2.86,0,0,1,2.188-2.134c3.629-.158,7.187-.158,10.576,0a3,3,0,0,1,2.249,2.244,45.194,45.194,0,0,1,.1,4.958c-.01.636-.021,1.3-.021,1.954v.6H41.122v-.6C41.124,284.992,41.115,284.338,41.107,283.709Zm-24.541.024c-.019-1.769-.038-3.6.094-5.393a2.724,2.724,0,0,1,2.244-1.879c2.9-.108,5.843-.087,8.69-.069l1.673.01a2.275,2.275,0,0,1,2.458,2.47c0,1.529,0,3.06,0,4.663v2.71H16.577v-.6C16.577,285.009,16.571,284.371,16.565,283.733Zm53.815,37.79H65.686v-.6c0-.487,0-.974,0-1.461,0-1.107-.005-2.253.007-3.381a1.606,1.606,0,0,0-.329-1.181,1.762,1.762,0,0,0-1.26-.357h0c-21.1.019-38.656.017-55.256-.005H8.835a1.853,1.853,0,0,0-1.361.386,1.914,1.914,0,0,0-.336,1.411c.041,1.044.031,2.071.022,3.158,0,.478-.009.962-.009,1.457v.6H2.41v-15.2H70.38Zm.149-20.79c0,.847-.005,1.7-.005,2.561v.6H2.5v-.6c0-.986-.026-2-.051-2.973a50.836,50.836,0,0,1,.141-6.962c.327-2.9,2.632-4.572,6.321-4.576,11.012-.009,22.208-.007,33.036-.005h10.9q1.687,0,3.374,0c2.6-.005,5.3-.01,7.944.012,3.919.034,6.292,2.409,6.348,6.352C70.543,296.994,70.536,298.811,70.529,300.733Z" transform="translate(-0.018 -219.728)" fill="#ff7060"/>
      <path id="Trazado_670" data-name="Trazado 670" d="M102.923,22.378C87.238,15.282,71.032,8.028,53.379.2A3.05,3.05,0,0,0,51.217.194c-10.3,4.565-20.76,9.241-30.873,13.76q-9.35,4.179-18.7,8.351a2.332,2.332,0,0,0-1.593,2.5c.043,3.734.036,7.531.027,11.2Q.07,38.148.07,40.283v3.863H2.337q0-2.116.005-4.216c.007-4.535.014-8.817-.034-13.2a2.879,2.879,0,0,1,1.924-3.079c7.176-3.185,14.466-6.441,21.514-9.589,8.16-3.645,16.6-7.413,24.91-11.094A4.387,4.387,0,0,1,53.9,2.967c8.363,3.679,16.839,7.476,25.035,11.15q3.13,1.4,6.261,2.8l17.128,7.665V44.212H104.5q0-2.124.007-4.226c.01-5.467.021-10.631-.091-15.892A2.881,2.881,0,0,0,102.923,22.378Z" transform="translate(-0.043 0)" fill="#ff7060"/>
      <path id="Trazado_671" data-name="Trazado 671" d="M476.268,388.424c-7.908-.012-15.582-.007-22.047,0-2.3,0-2.587.3-2.589,2.63-.005,6.846-.005,14.211,0,23.178,0,.35.027.71.055,1.09,0,.009,0,.017,0,.024h2.45V404.953h22.3V415.33h2.227v-6.458c0-6.069,0-12.09,0-18.111C478.666,388.646,478.442,388.428,476.268,388.424Zm-.015,14.142H454.245V390.991h22.008Z" transform="translate(-374.205 -321.827)" fill="#ff7060"/>
      <path id="Trazado_672" data-name="Trazado 672" d="M493.154,247.388c.514,0,1.02.005,1.519.01,1.111.01,2.16.021,3.214-.022a1.862,1.862,0,0,0,1.428-.54,1.7,1.7,0,0,0,.034-1.409c-.615-1.958-1.274-3.941-1.912-5.86-.413-1.245-.84-2.53-1.252-3.8a1.77,1.77,0,0,0-1.937-1.4c-1.627.029-3.28.021-4.877.012l-.981-.005h-.015a1.639,1.639,0,0,0-1.785,1.3c-.485,1.492-1,3-1.505,4.454-.564,1.636-1.145,3.328-1.682,5a2,2,0,0,0-.021,1.706,2.244,2.244,0,0,0,1.694.555c1.013.022,2.044.017,3.04.012q.676-.005,1.344-.005h.6v6.374l-3.2.141v2.057h9.124V253.93l-3.429-.2v-6.34h.6ZM486,244.825l.262-.789c.189-.566.369-1.137.543-1.687a44.832,44.832,0,0,1,1.577-4.43c.286-.653,1.161-.818,2.006-.975.156-.029.305-.057.441-.087a3.516,3.516,0,0,1,2.822.333,3.821,3.821,0,0,1,1.468,2.693,17.839,17.839,0,0,0,.806,2.748c.159.454.324.924.478,1.414l.247.782H486Z" transform="translate(-400.371 -194.187)" fill="#ff7060"/>
      <path id="Trazado_673" data-name="Trazado 673" d="M254.05,85.576h-2.69c-.429,3.587-1.726,6.415-3.806,8.238a10.14,10.14,0,0,1-7.8,2.26,10.031,10.031,0,0,1-6.916-3.683,10.889,10.889,0,0,1-2.359-8.174,9.547,9.547,0,0,1,3.736-6.744,12.632,12.632,0,0,1,9.009-2.165V72.7a12.459,12.459,0,0,0-2.362-.225,13.139,13.139,0,1,0,13.191,13.1Z" transform="translate(-188.726 -60.054)" fill="#ff7060"/>
      <path id="Trazado_674" data-name="Trazado 674" d="M280.332,89.866a15.923,15.923,0,0,0,2.578,2.452,2.608,2.608,0,0,0,2.069.031c3.58-3.406,7.118-6.966,10.538-10.406q1.317-1.327,2.633-2.645L296.3,77.38l-12.26,12.313L281.47,87.37l-1.74,1.84Q280.039,89.538,280.332,89.866Z" transform="translate(-231.776 -64.114)" fill="#ff7060"/>
      <rect id="Rectángulo_1745" data-name="Rectángulo 1745" width="5.663" height="2.056" transform="translate(88.151 73.834)" fill="#ff7060"/>
    </g>
  </g>
</svg>
