<svg id="Grupo_1276" data-name="Grupo 1276" xmlns="http://www.w3.org/2000/svg" xmlns:xlink="http://www.w3.org/1999/xlink" width="520.847" height="521.756" viewBox="0 0 520.847 521.756">
  <defs>
    <linearGradient id="linear-gradient" y1="0.5" x2="1.001" y2="0.5" gradientUnits="objectBoundingBox">
      <stop offset="0" stop-color="#68ab2f"/>
      <stop offset="0.996" stop-color="#95c11f"/>
    </linearGradient>
    <linearGradient id="linear-gradient-2" x1="0.004" y1="0.498" x2="1.008" y2="0.498" gradientUnits="objectBoundingBox">
      <stop offset="0" stop-color="#3b6178" stop-opacity="0"/>
      <stop offset="1" stop-color="#4486a9"/>
    </linearGradient>
    <linearGradient id="linear-gradient-3" x1="0.004" y1="0.495" x2="1.008" y2="0.495" xlink:href="#linear-gradient-2"/>
    <linearGradient id="linear-gradient-4" x1="948.588" y1="0.492" x2="949.591" y2="0.492" xlink:href="#linear-gradient-2"/>
  </defs>
  <g id="Grupo_1262" data-name="Grupo 1262">
    <path id="Trazado_1666" data-name="Trazado 1666" d="M236.335,507.667l-168.616-95.9L0,71.355l238.608-65.9L259.969,0l20.907,5.454,239.971,65.9L452.219,411.769,283.6,507.667l-23.634,14.089Z" fill="#ededed"/>
    <path id="Trazado_1667" data-name="Trazado 1667" d="M269.386,490.069l164.526-93.625,65.9-326.325L269.386,6.945,250.752,2.4l-18.18,4.545L2.6,70.119,68.047,396.444l164.526,93.625,18.18,10.908Z" transform="translate(9.217 8.508)" fill="#007387"/>
    <path id="Trazado_1668" data-name="Trazado 1668" d="M7.3,69.22,67.747,370.093l166.344,94.989V6.5Z" transform="translate(25.878 23.042)" fill="#95c11f"/>
    <path id="Trazado_1669" data-name="Trazado 1669" d="M284.9,69.22,223.544,370.093,57.2,465.082V6.5Z" transform="translate(202.769 23.042)" fill="url(#linear-gradient)"/>
    <g id="Grupo_1257" data-name="Grupo 1257" transform="translate(145.892 303.146)">
      <path id="Trazado_1670" data-name="Trazado 1670" d="M32.1,66.8h3.636V85.889h5.908V89.07h-9.09V66.8Z" transform="translate(-32.1 -66.345)" fill="#fff"/>
      <path id="Trazado_1671" data-name="Trazado 1671" d="M49.617,88.97H45.981l-.454-4.09h-4.09l-.454,4.09H37.8L41.436,66.7h5ZM41.89,82.153h3.181L43.254,70.79Z" transform="translate(-11.894 -66.7)" fill="#fff"/>
      <path id="Trazado_1672" data-name="Trazado 1672" d="M58.8,80.789v2.727c0,3.636-1.818,5.454-5,5.454s-5-1.818-5-5.454V72.154c0-3.636,1.818-5.454,5-5.454s5,1.818,5,5.454v2.272H55.617V72.154A2.079,2.079,0,0,0,53.8,69.881c-.909,0-1.818.454-1.818,2.272V83.971c0,1.363.454,2.272,1.818,2.272.909,0,1.818-.454,1.818-2.272V80.789Z" transform="translate(27.1 -66.7)" fill="#fff"/>
      <path id="Trazado_1673" data-name="Trazado 1673" d="M66.617,88.97H62.981l-.454-4.09h-4.09l-.454,4.09H54.8L58.436,66.7h5Zm-8.181-6.817h3.181L60.254,70.79Z" transform="translate(48.37 -66.7)" fill="#fff"/>
      <path id="Trazado_1674" data-name="Trazado 1674" d="M61.2,66.8h3.636V85.889h5.908V89.07h-9.09V66.8Z" transform="translate(71.057 -66.345)" fill="#fff"/>
      <path id="Trazado_1675" data-name="Trazado 1675" d="M70.636,76.244h4.545v3.181H70.636v6.363h5.908V88.97H67V66.7h9.544v3.181H70.636v6.363Z" transform="translate(91.617 -66.7)" fill="#fff"/>
      <path id="Trazado_1676" data-name="Trazado 1676" d="M80.272,88.97a9.907,9.907,0,0,1-.454-2.727V82.607c0-2.272-.455-2.727-2.272-2.727H76.181v9.09H73V66.7h5c3.636,0,5,1.818,5,5v1.818a5.015,5.015,0,0,1-2.272,4.545C82.544,78.971,83,80.335,83,82.607v3.636a5.765,5.765,0,0,0,.454,2.727ZM76.636,70.336v6.817H78c1.363,0,2.272-.454,2.272-2.272V72.608c0-1.363-.454-2.272-1.818-2.272Z" transform="translate(112.887 -66.7)" fill="#fff"/>
      <path id="Trazado_1677" data-name="Trazado 1677" d="M90.562,88.97H87.381l-.455-4.09h-4.09l-.454,4.09H79.2L82.836,66.7h4.545Zm-7.726-6.817h3.181L84.2,70.79Z" transform="translate(134.865 -66.7)" fill="#fff"/>
    </g>
    <rect id="Rectángulo_1843" data-name="Rectángulo 1843" width="354.503" height="56.357" transform="translate(84.081 350.867)" fill="#007387"/>
    <g id="Grupo_1258" data-name="Grupo 1258" transform="translate(209.066 366.774)">
      <path id="Trazado_1678" data-name="Trazado 1678" d="M46,83.527c2.727,0,3.636-1.364,4.09-2.727h2.272v23.634H48.727V86.254H46Z" transform="translate(-46 -80.345)" fill="#fff"/>
      <path id="Trazado_1679" data-name="Trazado 1679" d="M62.308,98.425c0,4.09-1.818,5.908-5.454,5.908S51.4,102.061,51.4,98.425v-.454h3.636v.909c0,1.818.909,2.272,1.818,2.272,1.363,0,2.272-.455,2.272-2.727v-4.09a3.6,3.6,0,0,1-3.636,2.272q-4.09,0-4.09-5.454V86.608c0-3.636,1.818-5.908,5.454-5.908s5.454,2.272,5.454,5.908ZM58.672,90.7v-4.09c0-1.818-.909-2.272-1.818-2.272-1.363,0-1.818.454-1.818,2.272V90.7c0,1.818.909,2.272,1.818,2.272A2.079,2.079,0,0,0,58.672,90.7Z" transform="translate(-26.857 -80.7)" fill="#fff"/>
      <path id="Trazado_1680" data-name="Trazado 1680" d="M57.2,86.608c0-4.09,1.818-5.908,5.454-5.908s5.454,2.272,5.454,5.908v.454H64.472v-.909c0-1.818-.909-2.272-1.818-2.272-1.363,0-2.272.454-2.272,2.727v4.545a3.6,3.6,0,0,1,3.636-2.272q4.09,0,4.09,5.454v4.09c0,3.636-1.818,5.908-5.454,5.908S57.2,102.061,57.2,98.425Zm3.636,8.181v4.09c0,1.818.909,2.272,1.818,2.272,1.363,0,1.818-.454,1.818-2.272v-4.09c0-1.818-.909-2.272-1.818-2.272S60.836,92.971,60.836,94.789Z" transform="translate(-6.297 -80.7)" fill="#fff"/>
      <path id="Trazado_1681" data-name="Trazado 1681" d="M63.1,86.608c0-3.636,1.818-5.908,5.454-5.908s5.454,2.272,5.454,5.908V98.88c0,3.636-1.818,5.908-5.454,5.908S63.1,102.516,63.1,98.88V86.608ZM66.736,98.88c0,1.818.909,2.272,1.818,2.272,1.363,0,1.818-.455,1.818-2.272V86.154c0-1.818-.909-2.272-1.818-2.272-1.364,0-1.818.454-1.818,2.272Z" transform="translate(14.618 -80.7)" fill="#fff"/>
    </g>
    <path id="Trazado_1682" data-name="Trazado 1682" d="M57.2,172.272v21.361L240.36,89.1,199,91.372Z" transform="translate(202.769 315.852)" fill="#007387"/>
    <path id="Trazado_1683" data-name="Trazado 1683" d="M141.214,161.292,33.5,96.3l107.714,58.175Z" transform="translate(118.755 341.375)" fill="#c8d400"/>
    <path id="Trazado_1684" data-name="Trazado 1684" d="M141.569,4,33.4,36.269,141.569,8.545Z" transform="translate(118.4 14.18)" fill="#c8d400"/>
    <path id="Trazado_1685" data-name="Trazado 1685" d="M57.2,4,165.369,36.269,57.2,8.545Z" transform="translate(202.769 14.18)" fill="#c8d400"/>
    <path id="Trazado_1686" data-name="Trazado 1686" d="M57.2,161.292,164.914,96.3,57.2,154.475Z" transform="translate(202.769 341.375)" fill="#c8d400"/>
    <line id="Línea_6" data-name="Línea 6" x2="345.413" transform="translate(87.717 358.139)" fill="none" stroke="#c8d400" stroke-miterlimit="10" stroke-width="0.25"/>
    <line id="Línea_7" data-name="Línea 7" x2="304.509" transform="translate(109.078 399.498)" fill="none" stroke="#c8d400" stroke-miterlimit="10" stroke-width="0.25"/>
    <g id="Grupo_1261" data-name="Grupo 1261" transform="translate(59.084 121.804)">
      <path id="Trazado_1687" data-name="Trazado 1687" d="M374.775,119.516a43.078,43.078,0,0,0,16.362-10.908c5.908-6.363,9.09-13.635,9.09-21.816a30.4,30.4,0,0,0-3.636-13.18,40.778,40.778,0,0,0-9.544-12.271,51.418,51.418,0,0,0-15.453-9.09,59.192,59.192,0,0,0-20.907-3.636H300.693V26.8H122.987V51.343H46.178V83.611H87.537v21.816a111.728,111.728,0,0,1-.909,12.726A29.374,29.374,0,0,1,83.9,127.7a15.667,15.667,0,0,1-5.454,5.454c-2.272,1.363-5.908,2.272-10.453,2.272-5.908,0-8.635-.909-10-1.818q-2.727-1.364-4.09-5.454l-1.363-3.636H13l1.818,6.363A50.571,50.571,0,0,0,33,159.511c9.09,6.817,20.907,10.453,35.9,10.453,11.362,0,21.361-1.818,28.633-5a45.167,45.167,0,0,0,18.634-14.089,46.56,46.56,0,0,0,7.272-13.18v47.722H301.147v-18.18h13.18V124.061h16.362l33.632,43.177H407.5l1.363-6.817ZM177.98,67.7h92.262V87.247H177.98Zm0,59.084h92.262v19.543H177.98ZM355.232,88.156c-.454.909-1.363,1.363-2.272,2.272a9.136,9.136,0,0,1-3.636,1.818,12.583,12.583,0,0,1-4.09.454H313.419V81.339h31.814a12.583,12.583,0,0,1,4.09.454,9.136,9.136,0,0,1,3.636,1.818,5.477,5.477,0,0,1,2.272,2.272,1.408,1.408,0,0,1,.454.909A1.67,1.67,0,0,1,355.232,88.156Z" transform="translate(-13 -26.8)" fill="#3b6178" opacity="0.3"/>
      <path id="Trazado_1688" data-name="Trazado 1688" d="M105.953,103.037V59.86h10.908V33.5H45.96V55.316H87.319V82.585c0,4.545-.454,9.09-.909,13.635a46.687,46.687,0,0,1-3.181,11.362,19.831,19.831,0,0,1-7.272,7.726c-3.181,1.818-7.726,2.727-12.726,2.727A31.888,31.888,0,0,1,50.5,115.763c-2.727-1.363-5-4.545-6.363-8.181H14.6q4.09,16.362,16.362,25.906t32.723,9.544c10.908,0,20-1.363,26.815-4.545a37.224,37.224,0,0,0,16.362-12.271c4.09-5,6.817-11.362,8.635-18.634a7.734,7.734,0,0,0,.454-3.181h-10Z" transform="translate(-7.328 -3.049)" fill="#fff"/>
      <path id="Trazado_1689" data-name="Trazado 1689" d="M165.5,95.52c9.09-2.727,16.362-6.817,21.361-11.817a25.031,25.031,0,0,0,7.272-18.18A27.386,27.386,0,0,0,191.4,54.616a30.293,30.293,0,0,0-8.635-10.453,49.341,49.341,0,0,0-13.635-8.181C163.68,33.709,157.317,32.8,150.5,32.8H99.6V46.435h-25V73.7h-5V98.247h5v27.269h25v16.362h8.181V98.7h24.088L165.5,141.878h36.359Zm-6.363-25.906c-.909,1.363-2.272,2.272-3.636,3.636a16.8,16.8,0,0,1-5,2.272,23.027,23.027,0,0,1-5.908.909H107.777V54.616h37.268a31.277,31.277,0,0,1,5.908.909,16.8,16.8,0,0,1,5,2.272,25.982,25.982,0,0,1,3.636,3.181,7.331,7.331,0,0,1,1.363,4.09A13.611,13.611,0,0,1,159.135,69.614Z" transform="translate(187.642 -5.531)" fill="#fff"/>
      <path id="Trazado_1690" data-name="Trazado 1690" d="M214.061,147.177v29.542H46.808V116.726H35.9V83.548H46.808V28.1H214.061v30H91.348v30H183.61V117.18H91.348v30.451H214.061Z" transform="translate(68.179 -22.192)" fill="#007387"/>
      <g id="Grupo_1260" data-name="Grupo 1260" transform="translate(167.253 5.908)">
        <g id="Grupo_1259" data-name="Grupo 1259">
          <rect id="Rectángulo_1844" data-name="Rectángulo 1844" width="33.632" height="29.996" fill="url(#linear-gradient-2)"/>
          <rect id="Rectángulo_1845" data-name="Rectángulo 1845" width="33.632" height="29.542" transform="translate(0 119.077)" fill="url(#linear-gradient-3)"/>
        </g>
        <rect id="Rectángulo_1846" data-name="Rectángulo 1846" width="33.632" height="29.087" transform="translate(34.087 59.993)" fill="url(#linear-gradient-4)"/>
      </g>
      <path id="Trazado_1691" data-name="Trazado 1691" d="M374.775,119.516a43.078,43.078,0,0,0,16.362-10.908c5.908-6.363,9.09-13.635,9.09-21.816a30.4,30.4,0,0,0-3.636-13.18,40.778,40.778,0,0,0-9.544-12.271,51.418,51.418,0,0,0-15.453-9.09,59.192,59.192,0,0,0-20.907-3.636H300.693V26.8H122.987V51.343H46.178V83.611H87.537v21.816a111.728,111.728,0,0,1-.909,12.726A29.374,29.374,0,0,1,83.9,127.7a15.667,15.667,0,0,1-5.454,5.454c-2.272,1.363-5.908,2.272-10.453,2.272-5.908,0-8.635-.909-10-1.818q-2.727-1.364-4.09-5.454l-1.363-3.636H13l1.818,6.363A50.571,50.571,0,0,0,33,159.511c9.09,6.817,20.907,10.453,35.9,10.453,11.362,0,21.361-1.818,28.633-5a45.167,45.167,0,0,0,18.634-14.089,46.56,46.56,0,0,0,7.272-13.18v47.722H301.147v-18.18h13.18V124.061h16.362l33.632,43.177H407.5l1.363-6.817ZM177.98,67.7h92.262V87.247H177.98Zm0,59.084h92.262v19.543H177.98ZM355.232,88.156c-.454.909-1.363,1.363-2.272,2.272a9.136,9.136,0,0,1-3.636,1.818,12.583,12.583,0,0,1-4.09.454H313.419V81.339h31.814a12.583,12.583,0,0,1,4.09.454,9.136,9.136,0,0,1,3.636,1.818,5.477,5.477,0,0,1,2.272,2.272,1.408,1.408,0,0,1,.454.909A1.67,1.67,0,0,1,355.232,88.156Z" transform="translate(-13 -26.8)" fill="none" stroke="#fff" stroke-miterlimit="10" stroke-width="0.25"/>
    </g>
  </g>
</svg>
