<svg id="Grupo_1429" data-name="Grupo 1429" xmlns="http://www.w3.org/2000/svg" width="296" height="81.356" viewBox="0 0 296 81.356">
  <g id="Grupo_2518" data-name="Grupo 2518">
    <g id="Grupo_1428" data-name="Grupo 1428">
      <g id="Grupo_22" data-name="Grupo 22">
        <g id="Grupo_25" data-name="Grupo 25">
          <g id="Grupo_23" data-name="Grupo 23">
            <g id="Grupo_22-2" data-name="Grupo 22">
              <path id="Trazado_34" data-name="Trazado 34" d="M46.122,2.52V1.7a1.7,1.7,0,0,0-1.7-1.7H29.376a1.715,1.715,0,0,0-.611.119,1.7,1.7,0,0,0-1.327,1.655V14.36a1.7,1.7,0,0,0,1.7,1.7h3.117a1.7,1.7,0,0,0,1.7-1.7v-7.9c1.968-.045,3.743-.06,5.681.045v39.74h-6.8V24.8a1.7,1.7,0,0,0-1.7-1.7H28.019a1.129,1.129,0,0,0-.224.015h-8.47V1.7a1.7,1.7,0,0,0-1.7-1.7H1.7A1.7,1.7,0,0,0,0,1.7V51.058a1.7,1.7,0,0,0,1.7,1.7H17.969a1.7,1.7,0,0,0,1.7-1.7V37.8a1.7,1.7,0,0,0-1.7-1.7H14.852a1.7,1.7,0,0,0-1.7,1.7v8.425H6.5V6.5h6.308V27.974a1.7,1.7,0,0,0,1.7,1.7h11.81V51.058a1.7,1.7,0,0,0,1.7,1.7H44.437a1.7,1.7,0,0,0,1.7-1.7V2.52Z" fill="#ff7060"/>
            </g>
          </g>
          <g id="Grupo_24" data-name="Grupo 24" transform="translate(70.204 7.65)">
            <path id="Trazado_35" data-name="Trazado 35" d="M79.1,5.35V43.658h-4V25.973H51.136v17.67H47.08V5.35h4.056V22.424H75.1V5.35Z" transform="translate(-47.08 -5.022)" fill="#606060"/>
            <path id="Trazado_36" data-name="Trazado 36" d="M76.91,5.35h4.056V43.658H76.91Z" transform="translate(-32.428 -5.022)" fill="#606060"/>
            <path id="Trazado_37" data-name="Trazado 37" d="M85.72,24.6c0-11.214,8.529-19.475,20.086-19.475,5.577,0,10.617,1.864,14,5.577l-2.565,2.565A15.176,15.176,0,0,0,105.91,8.724c-9.245,0-16.194,6.785-16.194,15.866s6.949,15.866,16.194,15.866a15.072,15.072,0,0,0,11.333-4.593l2.565,2.565c-3.4,3.728-8.425,5.637-14.062,5.637C94.249,44.079,85.72,35.818,85.72,24.6Z" transform="translate(-28.101 -5.13)" fill="#606060"/>
            <path id="Trazado_38" data-name="Trazado 38" d="M111.55,24.6c0-11.169,8.529-19.475,20.131-19.475,11.5,0,20.086,8.261,20.086,19.475s-8.589,19.475-20.086,19.475C120.079,44.079,111.55,35.774,111.55,24.6Zm36.176,0c0-9.141-6.844-15.866-16.03-15.866-9.245,0-16.134,6.725-16.134,15.866S122.45,40.471,131.7,40.471C140.881,40.471,147.726,33.746,147.726,24.6Z" transform="translate(-15.414 -5.13)" fill="#606060"/>
            <path id="Trazado_39" data-name="Trazado 39" d="M184.394,5.35V43.658H180.5V13L165.457,38.767h-1.909L148.5,13.164v30.48H144.61V5.35h3.34l16.627,28.392L181.054,5.35h3.34Z" transform="translate(0.824 -5.022)" fill="#606060"/>
            <path id="Trazado_40" data-name="Trazado 40" d="M206.74,40.139v3.5H179.66V5.35h26.26v3.5H183.7V22.484h19.8v3.445H183.7V40.154H206.74Z" transform="translate(18.039 -5.022)" fill="#606060"/>
          </g>
        </g>
      </g>
    </g>
    <text id="Hecho_para_hoteles" data-name="Hecho para hoteles" transform="translate(69 75.356)" fill="#ff7060" font-size="19" font-family="Cocogoose-Light, Cocogoose" font-weight="300" letter-spacing="0.05em"><tspan x="0" y="0">Hecho para hoteles</tspan></text>
  </g>
</svg>
