<svg xmlns="http://www.w3.org/2000/svg" width="166.458" height="164.775" viewBox="0 0 166.458 164.775">
  <g id="matricula" transform="translate(4380 19938)">
    <g id="Grupo_2373" data-name="Grupo 2373" transform="translate(-4430 -19938)">
      <g id="Grupo_1938" data-name="Grupo 1938">
        <g id="Grupo_1816" data-name="Grupo 1816" transform="translate(50)">
          <g id="Grupo_1798" data-name="Grupo 1798" transform="translate(0 0)">
            <g id="Grupo_936" data-name="Grupo 936" transform="translate(0 0)">
              <g id="Grupo_282" data-name="Grupo 282" transform="translate(0 0)">
                <path id="Trazado_498" data-name="Trazado 498" d="M83.229,0c45.966,0,83.229,36.886,83.229,82.388s-37.263,82.388-83.229,82.388S0,127.89,0,82.388,37.263,0,83.229,0Z" fill="#d8e500"/>
                <g id="Grupo_941" data-name="Grupo 941" transform="translate(24.973 29.081)">
                  <g id="Grupo_934" data-name="Grupo 934">
                    <g id="Grupo_933" data-name="Grupo 933">
                      <path id="Trazado_731" data-name="Trazado 731" d="M1364.774,360.818v-2.781a1.337,1.337,0,1,0-2.673,0v2.781a1.337,1.337,0,1,0,2.673,0Z" transform="translate(-1339.352 -279.788)" fill="#d8e500"/>
                      <path id="Trazado_732" data-name="Trazado 732" d="M1395.7,360.818a1.337,1.337,0,1,0,2.673,0v-2.781a1.337,1.337,0,1,0-2.673,0Z" transform="translate(-1365.707 -279.788)" fill="#d8e500"/>
                      <path id="Trazado_733" data-name="Trazado 733" d="M1336.181,410.468h0a1.314,1.314,0,0,0-1.165-.668,1.541,1.541,0,0,0-.668.172,1.32,1.32,0,0,0-.5,1.811,9.172,9.172,0,0,0,7.978,4.571h.065a1.346,1.346,0,0,0,1.337-1.272,1.33,1.33,0,0,0-1.272-1.4A6.5,6.5,0,0,1,1336.181,410.468Z" transform="translate(-1317.055 -321.438)" fill="#d8e500"/>
                      <path id="Trazado_734" data-name="Trazado 734" d="M1302.937,255.7h-26.91a15.975,15.975,0,0,0-15.956,15.956,1.337,1.337,0,0,0,2.674,0,13.3,13.3,0,0,1,13.282-13.282h25.508l-.043.367a13.3,13.3,0,0,1-13.174,11.6H1273.03a1.343,1.343,0,0,0-1.337,1.337v1.358a4.507,4.507,0,0,1-3.881,4.463l-.129.022-.108-.086a6.779,6.779,0,0,0-4.226-1.488,6.663,6.663,0,0,0-2.415.453,6.819,6.819,0,0,0-2.35,1.531,6.767,6.767,0,0,0,0,9.574,6.415,6.415,0,0,0,1.66,1.207l.129.065.022.151a18.176,18.176,0,0,0,36.03-3.407v-9.466a1.337,1.337,0,0,0-2.674,0v9.466a15.5,15.5,0,0,1-30.855,2.135,1.34,1.34,0,0,0-.884-1.078,4.49,4.49,0,0,1-1.552-.97,4.061,4.061,0,0,1,0-5.779,3.874,3.874,0,0,1,1.423-.927,4.079,4.079,0,0,1,4.356.927,1.382,1.382,0,0,0,1.013.41,7.181,7.181,0,0,0,7.115-6.9l.022-.3h13.929a15.975,15.975,0,0,0,15.956-15.956A1.353,1.353,0,0,0,1302.937,255.7Z" transform="translate(-1256.6 -200.566)" fill="#d8e500"/>
                      <path id="Trazado_735" data-name="Trazado 735" d="M1348.5,74.945a1.343,1.343,0,0,0-1.337,1.337,3.423,3.423,0,0,1-3.428,3.428h-10.414a1.341,1.341,0,0,0-.992.453l-5.369,6.016v-5.11a1.344,1.344,0,0,0-1.337-1.337H1302.2a3.423,3.423,0,0,1-3.428-3.428v-21a3.423,3.423,0,0,1,3.428-3.428h31.718a1.337,1.337,0,0,0,0-2.674H1302.2a6.11,6.11,0,0,0-6.1,6.1v20.98a6.11,6.11,0,0,0,6.1,6.1h22.08v7.288a1.33,1.33,0,0,0,2.329.884l7.288-8.172h9.832a6.11,6.11,0,0,0,6.1-6.1A1.344,1.344,0,0,0,1348.5,74.945Z" transform="translate(-1287.583 -38.591)" fill="#d8e500"/>
                      <path id="Trazado_736" data-name="Trazado 736" d="M1497.6,33.184h9.832l7.288,8.172a1.349,1.349,0,0,0,1.466.367,1.332,1.332,0,0,0,.863-1.251V33.184h22.08a6.11,6.11,0,0,0,6.1-6.1V6.1a6.11,6.11,0,0,0-6.1-6.1h-3.774a1.337,1.337,0,0,0,0,2.674h3.774a3.423,3.423,0,0,1,3.428,3.428v20.98a3.423,3.423,0,0,1-3.428,3.428h-23.417a1.343,1.343,0,0,0-1.337,1.337v5.11l-5.369-6.016a1.377,1.377,0,0,0-.992-.453H1497.6a3.423,3.423,0,0,1-3.428-3.428V6.1a3.423,3.423,0,0,1,3.428-3.428h32.451a1.337,1.337,0,0,0,0-2.674H1497.6a6.11,6.11,0,0,0-6.1,6.1v20.98A6.11,6.11,0,0,0,1497.6,33.184Z" transform="translate(-1440.851)" fill="#d8e500"/>
                      <path id="Trazado_737" data-name="Trazado 737" d="M1621.631,39h-18.694a1.337,1.337,0,1,0,0,2.674h18.694a1.337,1.337,0,1,0,0-2.674Z" transform="translate(-1527.211 -30.591)" fill="#d8e500"/>
                      <path id="Trazado_738" data-name="Trazado 738" d="M1532.837,41.574h9.6a1.337,1.337,0,1,0,0-2.674h-9.6a1.344,1.344,0,0,0-1.337,1.337A1.33,1.33,0,0,0,1532.837,41.574Z" transform="translate(-1472.226 -30.512)" fill="#d8e500"/>
                      <path id="Trazado_739" data-name="Trazado 739" d="M1668.694,70.5h-5.757a1.337,1.337,0,0,0,0,2.674h5.757a1.337,1.337,0,1,0,0-2.674Z" transform="translate(-1574.274 -55.299)" fill="#d8e500"/>
                      <path id="Trazado_740" data-name="Trazado 740" d="M1532.837,73.174h22.532a1.337,1.337,0,0,0,0-2.674h-22.532a1.344,1.344,0,0,0-1.337,1.337A1.33,1.33,0,0,0,1532.837,73.174Z" transform="translate(-1472.226 -55.299)" fill="#d8e500"/>
                      <path id="Trazado_741" data-name="Trazado 741" d="M1532.837,104.674h23.524a1.337,1.337,0,0,0,0-2.674h-23.524a1.344,1.344,0,0,0-1.337,1.337A1.33,1.33,0,0,0,1532.837,104.674Z" transform="translate(-1472.226 -80.007)" fill="#d8e500"/>
                      <path id="Trazado_742" data-name="Trazado 742" d="M1334.937,87.774h9.6a1.337,1.337,0,0,0,0-2.674h-9.6a1.337,1.337,0,0,0,0,2.674Z" transform="translate(-1316.997 -66.751)" fill="#d8e500"/>
                      <path id="Trazado_743" data-name="Trazado 743" d="M1421.269,86.437a1.344,1.344,0,0,0-1.337-1.337h-9.6a1.337,1.337,0,0,0,0,2.674h9.6A1.344,1.344,0,0,0,1421.269,86.437Z" transform="translate(-1376.139 -66.751)" fill="#d8e500"/>
                      <path id="Trazado_744" data-name="Trazado 744" d="M1333.6,117.937a1.344,1.344,0,0,0,1.337,1.337H1364a1.337,1.337,0,1,0,0-2.674h-29.066A1.344,1.344,0,0,0,1333.6,117.937Z" transform="translate(-1316.997 -91.459)" fill="#d8e500"/>
                      <path id="Trazado_745" data-name="Trazado 745" d="M1382.537,148.2a1.337,1.337,0,1,0,0,2.674H1395.8a1.337,1.337,0,0,0,0-2.674Z" transform="translate(-1354.333 -116.245)" fill="#d8e500"/>
                      <path id="Trazado_746" data-name="Trazado 746" d="M1333.6,149.437a1.344,1.344,0,0,0,1.337,1.337h4.744a1.337,1.337,0,0,0,0-2.674h-4.744A1.358,1.358,0,0,0,1333.6,149.437Z" transform="translate(-1316.997 -116.166)" fill="#d8e500"/>
                      <path id="Trazado_747" data-name="Trazado 747" d="M1625.373,336.3v-2.566a1.337,1.337,0,1,0-2.674,0V336.3a1.337,1.337,0,1,0,2.674,0Z" transform="translate(-1543.761 -260.727)" fill="#d8e500"/>
                      <path id="Trazado_748" data-name="Trazado 748" d="M1594.373,336.3v-2.566a1.337,1.337,0,1,0-2.674,0V336.3a1.337,1.337,0,1,0,2.674,0Z" transform="translate(-1519.445 -260.727)" fill="#d8e500"/>
                      <path id="Trazado_749" data-name="Trazado 749" d="M1620.893,387.753a8.61,8.61,0,0,0,7.439-4.269,1.31,1.31,0,0,0-.5-1.811,1.376,1.376,0,0,0-1.013-.129,1.292,1.292,0,0,0-.8.625,5.985,5.985,0,0,1-5.261,2.932,1.343,1.343,0,0,0-.927.431,1.328,1.328,0,0,0,1.057,2.221Z" transform="translate(-1541.243 -299.24)" fill="#d8e500"/>
                      <path id="Trazado_750" data-name="Trazado 750" d="M1700.3,279.187c-1.035-7.374-3.558-12.635-7.719-16.107a1.334,1.334,0,0,0-1.876.172,1.254,1.254,0,0,0-.3.97,1.3,1.3,0,0,0,.474.906c3.622,3.04,5.843,7.762,6.792,14.447,1.962,13.951-3.968,26.284-5.822,29.734l-.173.3-.3-.194a13.964,13.964,0,0,1-5.886-7.5,1.3,1.3,0,0,0-.647-.776,1.253,1.253,0,0,0-.6-.151,1.354,1.354,0,0,0-.41.065,1.3,1.3,0,0,0-.776.647,1.278,1.278,0,0,0-.086,1.013,16.553,16.553,0,0,0,8.733,9.9,1.387,1.387,0,0,0,.517.108,1.349,1.349,0,0,0,1.143-.647C1697.859,304.371,1702.064,291.714,1700.3,279.187Z" transform="translate(-1590.976 -206.113)" fill="#d8e500"/>
                      <path id="Trazado_751" data-name="Trazado 751" d="M1596.695,264.155a6.383,6.383,0,0,0-4.054-5.93,6.431,6.431,0,0,0-4.075-.173l-.41.129v-2.07a1.34,1.34,0,0,0-1.79-1.272c-.086.022-8.8,3.062-14.6-4.506a1.339,1.339,0,0,0-2.005-.129c-1.38,1.38-4.679,1.984-7.31,2.07h-.28l-.043-.28a8.486,8.486,0,0,1,1.359-6.706c1.79-2.329,5.132-3.515,9.961-3.515,5.434,0,11.147.151,15.87,2.005a1.275,1.275,0,0,0,1.014-.022,1.39,1.39,0,0,0,.711-.733,1.275,1.275,0,0,0-.021-1.013,1.39,1.39,0,0,0-.733-.712c-5.175-2.027-11.148-2.2-16.84-2.2s-9.768,1.531-12.075,4.55c-2.868,3.752-2.027,8.431-1.531,10.285a1.339,1.339,0,0,0,1.251.992c.582.022,5.843.151,9.229-1.833l.216-.129.173.194a15.174,15.174,0,0,0,10.436,4.916,17.721,17.721,0,0,0,3.989-.237l.388-.065v2.782a1.306,1.306,0,0,0,.841,1.229,1.337,1.337,0,0,0,1.445-.3,3.676,3.676,0,0,1,3.924-.819,3.283,3.283,0,0,1,1.272.841,3.644,3.644,0,0,1,0,5.175,3.882,3.882,0,0,1-1.38.884,1.34,1.34,0,0,0-.884,1.078A14.19,14.19,0,0,1,1562.5,266.7v-7.5a1.337,1.337,0,0,0-2.674,0v7.5a16.865,16.865,0,0,0,33.421,3.213l.021-.151.129-.065a6.312,6.312,0,0,0,3.3-5.541Z" transform="translate(-1494.059 -187.545)" fill="#d8e500"/>
                    </g>
                  </g>
                </g>
              </g>
            </g>
          </g>
          <g id="Grupo_1952" data-name="Grupo 1952" transform="translate(38 31)">
            <path id="Trazado_1871" data-name="Trazado 1871" d="M77.662,80.321a1.972,1.972,0,0,0-.912.684,3.131,3.131,0,0,0-.076.912v15.35c0,2.964-.76,3.724-3.648,3.724H5.623c-2.888,0-3.648-.836-3.648-3.648V5.547c0-2.736.836-3.648,3.572-3.648H73.178c2.736,0,3.5.836,3.5,3.5V36.551c0,1.444.76,1.52.988,1.52.3,0,.912,0,.988-1.444V5.471C78.65,1.6,77.054,0,73.178,0H5.471C1.6,0,0,1.6,0,5.547V97.571c0,3.8,1.6,5.471,5.4,5.471H73.1c3.875,0,5.471-1.6,5.471-5.4V81.157A1.851,1.851,0,0,0,77.662,80.321Z" fill="#31404b"/>
            <path id="Trazado_1872" data-name="Trazado 1872" d="M111.889,27.6a4.624,4.624,0,0,0-4.331,2.508c-.228.3-.912,1.444-1.748,1.292-.76-.076-1.064.152-1.672,1.14-.912,1.6-1.9,3.192-2.812,4.787l-1.52,2.584-.608-.228c-.38-.152-.684-.3-.988-.456-1.216-.684-1.52-.684-1.9,0-.456.684-.3.912.912,1.672a7.128,7.128,0,0,1,.912.684l.456.38-.456.836c-.152.228-.228.456-.38.684-.988,1.748-2.052,3.572-3.116,5.319-2.2,3.875-4.559,7.827-6.763,11.778-1.748,3.04-3.572,6.383-5.167,9.727-1.14,2.356-2.128,4.863-3.116,7.3-.532,1.292-1.064,2.584-1.6,3.8a4.675,4.675,0,0,0,0,4.027,1.793,1.793,0,0,1,.076,1.748c-.912,1.14-1.748,2.28-2.736,3.42l-1.6,1.976-.532-1.064c-1.444-2.964-2.508-4.331-3.42-4.483-.76-.152-1.824.532-3.344,2.128l-1.14,1.216-.3-3.5c-.152-1.292-.228-2.584-.38-3.875-.076-1.368-.608-3.116-2.432-3.344h-.38c-1.6,0-2.432,1.444-2.888,2.736-.228.836-.532,1.6-.836,2.432-.228.76-.532,1.52-.76,2.28l-.532,1.52c-.608,1.824-1.216,3.724-1.824,5.547a1.47,1.47,0,0,0,0,.988q.114.342.684.456c.456.152.76.152,1.216-.836.076-.3.228-.532.3-.836.076-.152.076-.3.152-.456l.456-1.444c.912-2.736,1.824-5.547,2.812-8.283a2.275,2.275,0,0,1,.3-.608,1.661,1.661,0,0,0,.228-.38l1.216-2.28.456,4.635c.152,1.444.228,2.736.38,4.1a2.848,2.848,0,0,0,1.976,2.736,2.789,2.789,0,0,0,3.116-1.216,4.216,4.216,0,0,0,.456-.608L69.79,88.77l1.292,3.192a3.335,3.335,0,0,0,2.356,2.28A3.275,3.275,0,0,0,76.325,92.8c.38-.532.836-.988,1.216-1.52.608-.76,1.216-1.6,1.9-2.356a2.972,2.972,0,0,1,2.128-.988A4.819,4.819,0,0,0,86.128,85.5c1.14-1.748,2.508-3.572,4.027-5.623A23.648,23.648,0,0,1,91.9,77.752a29.734,29.734,0,0,0,2.736-3.572c2.2-3.648,4.331-7.371,6.383-10.943.836-1.52,1.748-3.04,2.584-4.559l5.927-10.259.608.3c1.52.684,2.432,1.216,2.736,2.2.3.912-.076,1.9-.836,3.116l-1.6,2.812c-1.52,2.584-3.04,5.243-4.483,7.827-.456.836-.456,1.444.152,1.748a.6.6,0,0,0,.608.076,1.481,1.481,0,0,0,.836-.836l.532-.912c2.128-3.648,4.255-7.371,6.307-11.095a4.343,4.343,0,0,0-1.368-5.547c-.38-.228-.76-.532-1.216-.76l-.684-.456-.608-.38,1.52-2.584c.912-1.52,1.748-3.04,2.584-4.483.76-1.292.912-1.9.152-2.584l-.456-.38.3-.532a3.305,3.305,0,0,1,.3-.532c.228-.38.38-.684.532-.988a4.529,4.529,0,0,0-.152-4.407A3.511,3.511,0,0,0,111.889,27.6ZM85.216,83.071a1.284,1.284,0,0,0-.152.38c-.456.988-1.064,2.28-2.736,2.28h0A2.594,2.594,0,0,1,80.2,84.515c-.836-1.444,0-2.584.608-3.572.076-.152.152-.228.228-.38l.38-.608,4.1,2.432Zm1.444-2.356L82.1,78.056,85.064,70l7.067,4.1ZM93.2,72.509l-7.371-4.255L100.566,42.8l7.371,4.255Zm15.73-27.2-7.371-4.255,4.255-7.371,7.371,4.255Zm4.407-11.095a3.217,3.217,0,0,0-.38.532l-.38.608-4.179-2.432.3-.684c.076-.152.152-.38.228-.532.456-.912.988-2.2,2.66-2.2h0a2.8,2.8,0,0,1,2.2,1.292C114.624,32.234,113.865,33.374,113.333,34.21Z" transform="translate(-13.178 -6.625)" fill="#31404b"/>
            <path id="Trazado_1873" data-name="Trazado 1873" d="M65.738,15.676c2.052,0,2.052-.532,2.052-.912s-.076-.532-.152-.608c-.152-.152-.608-.456-1.9-.456H22.272c-1.368,0-1.6.228-1.672,1.6v5.167c0,2.052.076,2.128,2.052,2.128H66.726c.684-.532.912-.836.912-.912a2.093,2.093,0,0,0-.836-.912,3.131,3.131,0,0,0-.912-.076H22.652V15.676Z" transform="translate(-4.946 -3.289)" fill="#31404b"/>
            <path id="Trazado_1874" data-name="Trazado 1874" d="M16.126,115.589a13.808,13.808,0,0,0,12.994.608c5.167-2.356,7.9-6.535,8.131-12.386a1.5,1.5,0,0,0-.38-1.064.684.684,0,0,0-.76-.076c-.456.152-.684.38-.76,1.368a12.181,12.181,0,0,1-4.635,9.043,11.74,11.74,0,0,1-9.651,2.28,12.2,12.2,0,0,1-9.879-11.778A12.043,12.043,0,0,1,29.88,93.476c1.444.988,1.824.38,1.976.152a.741.741,0,0,0,.152-.608c-.076-.38-.456-.76-1.14-1.216a13.816,13.816,0,0,0-7.523-2.2h-.076A13.923,13.923,0,0,0,13.01,94.083a13.4,13.4,0,0,0-3.724,10.259A13.689,13.689,0,0,0,16.126,115.589Z" transform="translate(-2.22 -21.513)" fill="#31404b"/>
            <path id="Trazado_1875" data-name="Trazado 1875" d="M76.263,48.252a5.288,5.288,0,0,0-1.216-.152H38.572a3.714,3.714,0,0,0-.988.076,2.08,2.08,0,0,0-.684.988c0,.152.3.532.912.912h38c.76-.532.988-.836,1.064-1.064a.593.593,0,0,0,0-.38A.938.938,0,0,0,76.263,48.252Z" transform="translate(-8.86 -11.549)" fill="#31404b"/>
            <path id="Trazado_1876" data-name="Trazado 1876" d="M16.96,61.982a1.639,1.639,0,0,0-.76.988,2.093,2.093,0,0,0,.836.912,2.118,2.118,0,0,0,.76.076H50.7a8.727,8.727,0,0,0,1.368-.076c.532-.076.76-.3.76-.912a.8.8,0,0,0-.76-.912,6.142,6.142,0,0,0-1.216-.076H17.644A.994.994,0,0,0,16.96,61.982Z" transform="translate(-3.89 -14.868)" fill="#31404b"/>
            <path id="Trazado_1877" data-name="Trazado 1877" d="M62,32.1H28.944a1.784,1.784,0,0,0-1.216.38.863.863,0,0,0-.228.608c0,.228,0,.912,1.368.988H62.075A5.752,5.752,0,0,0,63.215,34c.836-.152.988-.608.912-.988,0-.38-.152-.76-.912-.836A5.766,5.766,0,0,0,62,32.1Z" transform="translate(-6.603 -7.707)" fill="#31404b"/>
            <path id="Trazado_1878" data-name="Trazado 1878" d="M17.568,75.3H33.982c1.444,0,1.52-.684,1.52-.912a.863.863,0,0,0-.228-.608,1.784,1.784,0,0,0-1.216-.38H17.568q-1.368,0-1.368.912a.748.748,0,0,0,.228.608C16.58,75.148,16.96,75.3,17.568,75.3Z" transform="translate(-3.89 -17.623)" fill="#31404b"/>
            <path id="Trazado_1879" data-name="Trazado 1879" d="M31.85,102.5a4.917,4.917,0,0,0-.684.608l-.152.152c-1.216,1.216-2.356,2.356-3.648,3.724l-2.28,2.356-.532-.608c-.38-.456-.76-.836-1.14-1.292-.836-.912-1.6-1.748-2.356-2.584a1.023,1.023,0,0,0-.684-.38h0a1.234,1.234,0,0,0-.684.38.781.781,0,0,0,0,1.292c1.368,1.444,2.66,2.736,4.027,3.951a2.208,2.208,0,0,0,2.888.152c2.2-1.976,4.255-4.1,6.687-6.611a.892.892,0,0,0-.076-1.216A1.032,1.032,0,0,0,31.85,102.5Z" transform="translate(-4.646 -24.539)" fill="#31404b"/>
            <path id="Trazado_1880" data-name="Trazado 1880" d="M84.118,61.9H72.644c-1.444,0-1.444.684-1.444.988s0,.912,1.444.988H84.118c1.064,0,1.14-.608,1.14-.912C85.182,62.508,85.106,62.052,84.118,61.9Z" transform="translate(-17.095 -14.862)" fill="#31404b"/>
            <path id="Trazado_1881" data-name="Trazado 1881" d="M53.543,75.276h7.523c.3,0,1.368-.076,1.292-.988,0-.684-.684-.988-1.368-.988h-11.4a1.5,1.5,0,0,0-1.064.38.863.863,0,0,0-.228.608c0,.836.988.912,1.368.912C50.884,75.276,52.251,75.276,53.543,75.276Z" transform="translate(-11.597 -17.599)" fill="#31404b"/>
          </g>
        </g>
      </g>
    </g>
  </g>
</svg>
