<svg xmlns="http://www.w3.org/2000/svg" width="166.458" height="164.775" viewBox="0 0 166.458 164.775">
  <g id="pension" transform="translate(3046 19938)">
    <g id="Grupo_2374" data-name="Grupo 2374" transform="translate(-3079.077 -19938)">
      <g id="Grupo_1941" data-name="Grupo 1941">
        <g id="Grupo_1817" data-name="Grupo 1817" transform="translate(33)">
          <g id="Grupo_1801" data-name="Grupo 1801" transform="translate(0.077 0)">
            <g id="Grupo_936" data-name="Grupo 936" transform="translate(0 0)">
              <g id="Grupo_282" data-name="Grupo 282" transform="translate(0 0)">
                <path id="Trazado_498" data-name="Trazado 498" d="M83.229,0c45.966,0,83.229,36.886,83.229,82.388s-37.263,82.388-83.229,82.388S0,127.89,0,82.388,37.263,0,83.229,0Z" fill="#d8e500"/>
              </g>
            </g>
          </g>
          <g id="Grupo_1953" data-name="Grupo 1953" transform="translate(33.977 33)">
            <path id="Trazado_1889" data-name="Trazado 1889" d="M96.466,0H49.989c-1.516,0-1.9.379-1.9,1.9V5.686a1.906,1.906,0,0,1-1.668,2.2c-4.625,1.213-9.25,2.426-13.8,3.639l-2.578.682c-2.047.531-2.123.758-1.592,2.729l.758,2.881c2.729,10.236,5.535,20.774,8.34,31.162a2.716,2.716,0,0,1-.531,2.047c-.758.834-1.516,1.592-2.275,2.35l-1.137,1.137c-.986.986-1.9,1.971-2.881,2.957L28.76,59.518l-.531-.682a5.27,5.27,0,0,0-4.473-2.275H5.332A5.04,5.04,0,0,0,.1,61.717V93.106c0,3.26,2.047,5.459,5,5.459,5.686.076,11.752.076,18.955,0a4.832,4.832,0,0,0,4.473-2.881,4.5,4.5,0,0,1,.3-.607l.455-.834.682.152a.834.834,0,0,1,.455.227l.227.152a6.157,6.157,0,0,1,.758.682,10.915,10.915,0,0,0,8.34,3.184h.076c13.951-.076,28.2,0,41.928,0H96.618c1.82,0,2.123-.3,2.123-2.047V2.123C98.665.227,98.438,0,96.466,0ZM26.637,92.727c0,2.5-.986,3.488-3.488,3.488H5.862c-2.426,0-3.412-.986-3.412-3.336V62.248c0-2.275.986-3.336,3.336-3.336h7.582V81.354c0,2.047.834,2.047,1.213,2.047h0a.986.986,0,0,0,.682-.227,2.771,2.771,0,0,0,.455-1.82V58.987h8.416a2.576,2.576,0,0,1,2.426,2.275,4.323,4.323,0,0,1,.076.986v.227Q26.637,77.6,26.637,92.727Zm9.1-59.9-.986-3.564c-1.213-4.4-2.35-8.8-3.564-13.117-.076-.152-.076-.379-.152-.607l-.227-1.061L48.094,9.857v7.809c0,.758-.91,1.213-1.213,1.289-1.441.455-1.592.758-1.365,2.123a6.024,6.024,0,0,1-3.639,6.6c-1.744.682-1.82.91-1.289,2.729l5.686,21.154,1.289,4.852a2.243,2.243,0,0,1,.152.758l.3,1.441H45.137a12.285,12.285,0,0,1-1.668-.076c-.834-.076-1.213-1.289-1.289-1.441C40.133,49.055,37.934,40.942,35.735,32.83Zm12.283-6.975V43.217l-1.289.3-.3-.682-.379-1.289c-.227-.91-.531-1.82-.758-2.805-.227-.91-.531-1.9-.758-2.805-.379-1.516-.834-3.033-1.213-4.473a1.8,1.8,0,0,1,.834-2.275c.607-.455,1.213-.986,1.82-1.516a7.549,7.549,0,0,0,.834-.758ZM76.147,96.139a10.162,10.162,0,0,1-1.516.076H39.223a8.3,8.3,0,0,1-5.99-2.275c-.531-.531-1.137-.986-1.668-1.441-.607-.531-1.213-1.061-1.744-1.592a2.941,2.941,0,0,1-.834-1.9V63.537a2.862,2.862,0,0,1,.607-1.744c2.123-2.123,4.322-4.322,6.369-6.445l1.365-1.365c.152-.152.227-.227.379-.227.076,0,.076-.076.152-.076l.834-.531.682,2.578.91,3.639c.379,1.441.607,1.592,2.123,1.592H79.483a6.522,6.522,0,0,1,1.213.076A3.441,3.441,0,0,1,83.5,64.6a3.322,3.322,0,0,1-3.184,3.26c-1.441.076-2.881.076-4.246.076H60.831c-.455,0-1.592.152-1.592,1.213a.973.973,0,0,0,.3.758,1.783,1.783,0,0,0,1.289.455H86.686a3.517,3.517,0,0,1,3.109,3.488A3.457,3.457,0,0,1,86.61,77.26a6.522,6.522,0,0,1-1.213.076H61.438a4.662,4.662,0,0,0-1.061.076,1.14,1.14,0,0,0,0,2.275,3.124,3.124,0,0,0,.91.076H81.833a3.721,3.721,0,0,1,3.184,1.516,3.436,3.436,0,0,1,.379,3.109,3.331,3.331,0,0,1-3.488,2.35H61.438a4.005,4.005,0,0,0-.986.076,1.146,1.146,0,0,0-1.061,1.137,1.162,1.162,0,0,0,.986,1.213,2.843,2.843,0,0,0,.834.076H75.237a3.826,3.826,0,0,1,2.881,1.137,3.311,3.311,0,0,1,.91,2.5A3.627,3.627,0,0,1,76.147,96.139ZM73.417,55.5a6.394,6.394,0,0,1-4.4-1.82,6.028,6.028,0,0,1-1.82-4.322,6.214,6.214,0,0,1,6.141-6.141,6.213,6.213,0,0,1,6.217,6.217A6.149,6.149,0,0,1,73.417,55.5ZM96.163,96.139H81.151v-6.9h.758a5.965,5.965,0,0,0,5.156-2.654,5.756,5.756,0,0,0,.455-5.838l-.3-.607.607-.3a3.541,3.541,0,0,1,.758-.379A7.2,7.2,0,0,0,89.87,78.7a6.082,6.082,0,0,0,1.744-7.582,5.415,5.415,0,0,1-.607-2.35V46.326a6.538,6.538,0,0,0-.076-1.289c-.076-.607-.455-.91-1.137-.986a1.1,1.1,0,0,0-1.137,1.061,4.005,4.005,0,0,0-.076.986V68.237l-3.184-.3.3-.91c.834-2.654.455-4.777-1.213-6.6s-4.018-1.82-6.52-1.9H75.161l2.123-1.365c3.033-1.971,4.625-4.4,4.7-7.582a8.452,8.452,0,0,0-2.5-6.293,8.655,8.655,0,0,0-6.141-2.5A8.509,8.509,0,0,0,65,50.8c.379,2.35,1.213,3.488,4.7,6.52l1.592,1.365H58.405V22.063A2.088,2.088,0,0,1,60,19.789a8.022,8.022,0,0,0,5.156-5.307l.076-.152a1.582,1.582,0,0,1,1.592-1.289H81.378l.3.986c.076.3.227.607.3.834a8.3,8.3,0,0,0,5.156,4.928,1.813,1.813,0,0,1,1.441,1.971c-.076,1.592,0,3.184,0,4.625,0,1.061.379,1.592,1.213,1.592h0c.986,0,1.213-.986,1.213-1.516V19.334c0-1.061-.3-1.365-1.441-1.516-3.564-.531-5.307-2.2-5.762-5.838-.152-1.061-.531-1.441-1.516-1.441H64.774c-1.061,0-1.365.3-1.516,1.441-.531,3.488-2.275,5.307-5.686,5.762-1.213.152-1.516.379-1.516,1.9V56.713c0,.758,0,1.213-.379,1.592s-.834.379-1.668.379H50.823V2.5H96.39V96.139Z" transform="translate(0 0)" fill="#31404b"/>
            <path id="Trazado_1890" data-name="Trazado 1890" d="M117.937,46.5h0a1.218,1.218,0,0,0-.834.379,1.14,1.14,0,0,0-.3.834,1.223,1.223,0,0,0,1.137,1.137h0a1.183,1.183,0,0,0,1.137-1.213A1.117,1.117,0,0,0,117.937,46.5Z" transform="translate(-28.219 -11.244)" fill="#31404b"/>
            <path id="Trazado_1891" data-name="Trazado 1891" d="M18.813,116.6h0a1.59,1.59,0,0,0-.834.3,1.218,1.218,0,0,0-.379.834,1.166,1.166,0,0,0,1.137,1.137h0a1.223,1.223,0,0,0,1.137-1.137A1.146,1.146,0,0,0,18.813,116.6Z" transform="translate(-4.232 -28.195)" fill="#31404b"/>
          </g>
        </g>
      </g>
    </g>
  </g>
</svg>
