<svg xmlns="http://www.w3.org/2000/svg" width="39" height="39" viewBox="0 0 39 39">
  <g id="phone" transform="translate(23786 -7260)">
    <circle id="Elipse_74" data-name="Elipse 74" cx="19.5" cy="19.5" r="19.5" transform="translate(-23786 7260)" fill="#94c11f"/>
    <path id="ic_settings_phone_24px" d="M23.935,18.393a13.99,13.99,0,0,1-4.4-.7,1.257,1.257,0,0,0-1.256.3L15.573,20.7a18.564,18.564,0,0,1-8.115-8.1l2.709-2.722a1.209,1.209,0,0,0,.308-1.244,13.99,13.99,0,0,1-.7-4.4A1.235,1.235,0,0,0,8.542,3H4.231A1.235,1.235,0,0,0,3,4.231,20.933,20.933,0,0,0,23.935,25.167a1.235,1.235,0,0,0,1.231-1.231v-4.31A1.235,1.235,0,0,0,23.935,18.393Z" transform="translate(-23779.244 7265.282) rotate(3)" fill="#fff"/>
  </g>
</svg>
