<svg xmlns="http://www.w3.org/2000/svg" width="170" height="170" viewBox="0 0 170 170">
  <g id="reservas_online_directas" data-name="reservas online directas" transform="translate(-309 -1512)">
    <path id="Trazado_811" data-name="Trazado 811" d="M85,0A85,85,0,1,1,0,85,85.093,85.093,0,0,1,85,0Z" transform="translate(309 1512)" fill="#fff"/>
    <g id="Grupo_883" data-name="Grupo 883" transform="translate(340.858 1547.051)">
      <g id="Grupo_882" data-name="Grupo 882" transform="translate(57.296 49.33)">
        <path id="Trazado_679" data-name="Trazado 679" d="M375.271,322.771c2.526-2.594,4.358-2.785,7.718-.892a5,5,0,0,1,8.243-1.28,15.288,15.288,0,0,1,2.572-1.962,4.9,4.9,0,0,1,6.742,2.588c1.7,4.1,3.273,8.246,4.88,12.382.977,2.516,2.008,5.016,2.846,7.578a12.354,12.354,0,0,1-7.25,15.575c-3.826,1.427-7.625,2.929-11.432,4.407a11.472,11.472,0,0,1-12.205-1.96c-4.231-3.531-8.3-7.257-12.438-10.9q-3.248-2.859-6.5-5.722c-.831-.733-.871-1.036-.365-2.005a8.272,8.272,0,0,1,3.637-4.063,6.8,6.8,0,0,1,6.1.008c.716.343,1.395.766,2.287,1.26l-.327-.844q-4.113-10.678-8.222-21.358a5.844,5.844,0,0,1-.3-3.917,4.736,4.736,0,0,1,3.858-3.565,4.816,4.816,0,0,1,4.809,1.84,7.949,7.949,0,0,1,1.164,2.066c1.31,3.293,2.567,6.606,3.845,9.914C375.041,322.177,375.142,322.436,375.271,322.771Zm-2.093.463q-2.006-5.191-4.012-10.381a8.338,8.338,0,0,0-.493-1.089,2.916,2.916,0,0,0-5.472,1.923,6.484,6.484,0,0,0,.372,1.208q4.716,12.261,9.446,24.518c.216.561.352,1.083-.167,1.544-.535.477-1.047.219-1.552-.062-1.312-.732-2.62-1.47-3.933-2.2a4.757,4.757,0,0,0-6.956,2.088.563.563,0,0,0,.147.826c5.921,5.21,11.808,10.458,17.753,15.639a9.644,9.644,0,0,0,10.226,2.036c4.031-1.486,8.032-3.059,12.026-4.64a9.089,9.089,0,0,0,4.688-3.983,11.011,11.011,0,0,0,.628-9.893q-3.5-9.033-6.981-18.07c-.077-.2-.157-.392-.247-.585a3.039,3.039,0,0,0-3.733-1.688,2.925,2.925,0,0,0-1.845,3.693c.229.81.565,1.59.855,2.385.327.894.173,1.5-.452,1.752-.642.263-1.155-.05-1.509-.948-.472-1.2-.929-2.41-1.4-3.611a6.412,6.412,0,0,0-.442-.958,2.973,2.973,0,0,0-2.767-1.619,2.92,2.92,0,0,0-2.53,3.884c.09.291.208.573.317.858,1.842,4.774,1.917,5.2.974,5.544-.919.336-1.123.01-2.982-4.8-.271-.7-.513-1.416-.839-2.092a3.023,3.023,0,0,0-4.574-1.171,3.082,3.082,0,0,0-.772,3.772c.746,1.978,1.52,3.945,2.279,5.916.4,1.031.251,1.685-.426,1.927s-1.135-.09-1.542-1.142Q375.221,328.522,373.178,323.234Z" transform="translate(-357.756 -308.014)" fill="#ff7060"/>
      </g>
      <path id="Trazado_680" data-name="Trazado 680" d="M82.324,0Q62.782,0,43.234,0,24.371,0,5.511,0C1.65,0,0,1.642,0,5.487Q0,43.9,0,82.319c0,3.861,1.64,5.508,5.485,5.509,13.094,0,23.317,0,34.838,0H54.946v-2.3H5.438c-2.426,0-3.128-.706-3.128-3.149V16.054H85.524V56.406h2.284V5.516C87.807,1.65,86.167,0,82.324,0ZM85.5,13.66H2.492l-.067-.484c-.011-.083-.026-.165-.04-.245a3.858,3.858,0,0,1-.074-.644l0-1.209c-.008-2.048-.016-4.166.008-6.249a2.276,2.276,0,0,1,2.5-2.519c.213-.01.423-.006.625,0l.253,0H82.131c2.771,0,3.37.6,3.37,3.4v4.872Z" transform="translate(-0.003)" fill="#ff7060"/>
      <path id="Trazado_681" data-name="Trazado 681" d="M66.763,149.98H64.57v19.284h2.263v-6.709H73.1v6.693h2.245v-6.92c0-1.955-.2-2.157-2.135-2.159-1.329,0-2.66,0-4.017,0h-2.43V149.98Z" transform="translate(-54.229 -125.96)" fill="#ff7060"/>
      <path id="Trazado_682" data-name="Trazado 682" d="M204.445,160.243c-.6,0-1.337.155-1.363.918-.07,2.074-.058,4.194-.045,6.246,0,.644.008,1.289.01,1.935h2.3v-6.71h6.264v6.694h2.173V150.07h-2.3v10.176l-2.521,0C207.406,160.248,205.936,160.249,204.445,160.243Z" transform="translate(-170.512 -126.036)" fill="#ff7060"/>
      <path id="Trazado_683" data-name="Trazado 683" d="M124.815,187.218h2.346V173.58h6.723V171.4H118.05v2.263h6.765Z" transform="translate(-99.144 -143.95)" fill="#ff7060"/>
      <path id="Trazado_684" data-name="Trazado 684" d="M54.969,433.8c2.617.038,13.6.034,16.046,0,1.443-.018,1.656-.738,1.68-1.363.026-.65.021-.961.014-1.389,0-.229-.006-.487-.006-.841,0-.332,0-.661,0-.993,0-.751.01-1.528-.01-2.287-.019-.743-.242-1.433-1.715-1.453-1.225-.016-4.481-.022-7.769-.022-3.447,0-6.925.008-8.136.021-1.523.018-1.739.724-1.75,1.414-.034,2.149-.034,3.44,0,5.529C53.339,433,53.52,433.775,54.969,433.8Zm.41-6.752H70.618v5.162H55.379Z" transform="translate(-44.766 -357.312)" fill="#ff7060"/>
      <rect id="Rectángulo_1746" data-name="Rectángulo 1746" width="28.533" height="2.157" transform="translate(14.713 51.377)" fill="#ff7060"/>
      <rect id="Rectángulo_1747" data-name="Rectángulo 1747" width="28.533" height="2.154" transform="translate(14.756 58.242)" fill="#ff7060"/>
      <rect id="Rectángulo_1748" data-name="Rectángulo 1748" width="2.183" height="2.162" transform="translate(8.987 51.397)" fill="#ff7060"/>
      <rect id="Rectángulo_1749" data-name="Rectángulo 1749" width="2.16" height="2.183" transform="translate(8.999 58.206)" fill="#ff7060"/>
      <path id="Trazado_685" data-name="Trazado 685" d="M43.178,43.26h-.064a1.055,1.055,0,0,0-1.054,1.054v.045a1.055,1.055,0,0,0,1.054,1.054h.064a1.055,1.055,0,0,0,1.054-1.054v-.045A1.056,1.056,0,0,0,43.178,43.26Z" transform="translate(-35.324 -36.332)" fill="#ff7060"/>
      <path id="Trazado_686" data-name="Trazado 686" d="M86.114,42.89a1.055,1.055,0,0,0-1.054,1.054v.088a1.054,1.054,0,0,0,2.108,0v-.088A1.055,1.055,0,0,0,86.114,42.89Z" transform="translate(-71.438 -36.021)" fill="#ff7060"/>
      <path id="Trazado_687" data-name="Trazado 687" d="M128.807,43.23h-.043a1.055,1.055,0,0,0-1.054,1.054v.056a1.055,1.055,0,0,0,1.054,1.054h.043a1.055,1.055,0,0,0,1.054-1.054v-.056A1.055,1.055,0,0,0,128.807,43.23Z" transform="translate(-107.257 -36.307)" fill="#ff7060"/>
      <path id="Trazado_688" data-name="Trazado 688" d="M355.642,260.521a8.991,8.991,0,0,0-9.811,4.638c-1.6,2.971-1.36,7.09.46,9.3l1.262-.942a7.826,7.826,0,0,1-.785-6.334,7.594,7.594,0,0,1,4.146-4.576,7.4,7.4,0,0,1,5.9.019,7.317,7.317,0,0,1,4.414,5.332l1.616-.194A9.092,9.092,0,0,0,355.642,260.521Z" transform="translate(-289.552 -218.637)" fill="#ff7060"/>
    </g>
  </g>
</svg>
