<svg xmlns="http://www.w3.org/2000/svg" width="166.458" height="164.775" viewBox="0 0 166.458 164.775">
  <g id="ocupacional" transform="translate(-867 -3954)">
    <g id="Grupo_1865" data-name="Grupo 1865" transform="translate(41 2)">
      <path id="Trazado_1976" data-name="Trazado 1976" d="M83.229,0c45.966,0,83.229,36.886,83.229,82.388s-37.263,82.388-83.229,82.388S0,127.89,0,82.388,37.263,0,83.229,0Z" transform="translate(826 3952)" fill="#d8e500"/>
    </g>
    <g id="Grupo_1913" data-name="Grupo 1913" transform="translate(1452.49 3756.882)">
      <path id="Trazado_2000" data-name="Trazado 2000" d="M-447.242,317.778c-1.385-1.538-2.856-3.019-4.369-4.4a6.35,6.35,0,0,0-7.025-1.221,1.846,1.846,0,0,1-2.219-.517c-1.157-1.189-2.393-2.428-3.891-3.9-.646-.634-1.306-1.254-1.965-1.874q-.447-.42-.893-.842l-.571-.542.553-.561c2.192-2.219,2.883-4.494,2.173-7.162-.661-2.485-2.362-4.116-5.2-4.988l-.632-.194.1-.654c.666-4.6-.625-6.761-5.317-8.9l-.535-.245.094-.581c.718-4.44-1.017-7.313-5.3-8.783l-.633-.217.125-.657a7.587,7.587,0,0,0-1.1-5.987,6.886,6.886,0,0,0-4.563-2.77c-.414-.058-.838-.079-1.287-.1a13.717,13.717,0,0,1-1.733-.165c-2.145-.387-4.287-.789-6.429-1.192-2.7-.508-5.494-1.033-8.244-1.515a6.212,6.212,0,0,0-4.781.649,3.3,3.3,0,0,1-2.21.445c-3.5-.606-6.7,1.016-7.782,3.949a13.917,13.917,0,0,0-.605,3.318c-.062.6-.126,1.213-.223,1.85l-.074.486-.473.138a7.111,7.111,0,0,0-4.1,3.158,7.654,7.654,0,0,0-.755,5.5L-527,280l-.672.183a7.3,7.3,0,0,0-4.866,4.023,7.6,7.6,0,0,0,.507,6.7l.37.713-.727.34a7.44,7.44,0,0,0-4.459,5.355,7.5,7.5,0,0,0,2.213,6.591l.534.546-.54.539q-.91.91-1.81,1.8c-1.6,1.587-3.1,3.086-4.614,4.641a2.358,2.358,0,0,1-2.727.7,5.831,5.831,0,0,0-5.871,1.072,46.344,46.344,0,0,0-5.066,5.05,6.392,6.392,0,0,0,.436,8.668c1.467,1.491,2.977,2.991,4.439,4.441l.173.171c.6.6,1.5,1.148,2.331.34a1.264,1.264,0,0,0,.442-.9,2.278,2.278,0,0,0-.8-1.5q-.883-.889-1.771-1.773c-.773-.771-1.546-1.542-2.312-2.319-2-2.03-2.007-4.077-.022-6.084q.764-.773,1.535-1.538l.688-.686c1.524-1.524,2.655-2.406,3.928-2.406h0c1.277,0,2.411.891,3.936,2.425q5.131,5.162,10.257,10.328,5.843,5.885,11.689,11.768c2.094,2.106,2.107,3.894.04,5.98l-.3.3c-.947.955-1.926,1.944-2.908,2.9-1.881,1.833-3.941,1.832-5.8,0-.655-.646-1.3-1.3-1.954-1.953-.8-.8-1.593-1.6-2.4-2.391a2.135,2.135,0,0,0-1.363-.672,1.3,1.3,0,0,0-.912.4,1.292,1.292,0,0,0-.441.932,2.044,2.044,0,0,0,.676,1.4c1.517,1.544,3.046,3.063,4.343,4.345a6.6,6.6,0,0,0,9.781.119l.385-.368c1.115-1.061,2.268-2.159,3.271-3.326a9.515,9.515,0,0,0,1.677-2.731,6.508,6.508,0,0,0-.648-5.592l-.269-.505.4-.4q1.066-1.064,2.141-2.112c1.675-1.644,3.407-3.343,5.013-5.087A6.087,6.087,0,0,1-504,328.364c1.4.055,2.824.082,4.2.11,1.314.026,2.627.052,3.941.1a2.531,2.531,0,0,1,1.569.738q1.9,1.874,3.783,3.764,2.065,2.065,4.142,4.118a1.852,1.852,0,0,1,.456,2.222,6.4,6.4,0,0,0,1.286,7.019c1.275,1.4,2.6,2.734,3.929,3.969,3.049,2.826,6.766,2.77,9.7-.146,7.328-7.283,15.025-14.981,23.532-23.534A6.433,6.433,0,0,0-447.242,317.778Zm-61.966-54.258c.01-.1.024-.242.038-.442l.062-.856,14.538,2.626-2.209,2.227c-1.483,1.5-2.882,2.909-4.3,4.292a1.261,1.261,0,0,1-.891.315,1.645,1.645,0,0,1-.829-.21,15.449,15.449,0,0,1-6.2-6.639,3.017,3.017,0,0,1-.215-.8A1.859,1.859,0,0,1-509.208,263.52Zm-9.294,3.086a4,4,0,0,1,2.845-2.8,3,3,0,0,1,3.927,1.952,17.613,17.613,0,0,0,8.87,8.909c1.568.747,2.385,1.5,2.21,3.329a3.983,3.983,0,0,1-3.219,3.552,3.687,3.687,0,0,1-.415.042l-.277.487-.665-.362c-.21-.114-.432-.214-.654-.316a5.461,5.461,0,0,1-1.628-.989c-3.9-3.8-7.064-6.957-9.954-9.939A4.007,4.007,0,0,1-518.5,266.606Zm-4.621,7.792a3.862,3.862,0,0,1,5.287-.086c2.706,2.591,5.445,5.32,8.373,8.341a4.479,4.479,0,0,1,.9,1.617c.045.122.082.229.12.308l.081.166,0,.184a4.08,4.08,0,0,1-2.128,3.954,4.278,4.278,0,0,1-2,.527,3.439,3.439,0,0,1-2.416-.984c-3.272-3.138-6.09-5.965-8.617-8.643a3.467,3.467,0,0,1-.946-2.517A4.147,4.147,0,0,1-523.123,274.4ZM-529,284.109a3.944,3.944,0,0,1,5.407-.115c2.241,2.141,4.427,4.336,6.5,6.523a4.269,4.269,0,0,1,.834,1.6c.071.2.142.41.227.6l.086.193-.025.21a4.223,4.223,0,0,1-2.313,3.509,4.194,4.194,0,0,1-1.937.506,3.375,3.375,0,0,1-2.351-.943c-2.557-2.408-4.775-4.628-6.78-6.785A3.86,3.86,0,0,1-529,284.109Zm-4.625,12.665a3.9,3.9,0,0,1,3.32-2.186l.048,0h.026a6.681,6.681,0,0,1,4.211,2.25,6.336,6.336,0,0,1,2.161,4,3.81,3.81,0,0,1-2.16,3.515,4.193,4.193,0,0,1-1.9.479,3.642,3.642,0,0,1-2.361-.879,23.7,23.7,0,0,1-2.932-2.922A3.731,3.731,0,0,1-533.623,296.775Zm42.479,31.265.44-.529c.248-.3.5-.609.764-.926.626-.762,1.273-1.55,1.956-2.326.51-.58.961-1.434.215-2.206a1.513,1.513,0,0,0-1.156-.51,1.359,1.359,0,0,0-1,.579c-2.919,3.766-6.891,3.9-10.393,3.542a43.209,43.209,0,0,0-4.925-.146,7.094,7.094,0,0,0-5.263,2.291c-1.74,1.8-3.525,3.576-5.252,5.293q-1.1,1.1-2.181,2.174l-.546.546L-539.74,314.56l7.967-7.963.5.251a7.268,7.268,0,0,0,5.088.645,6.921,6.921,0,0,0,5.232-5.885,2.1,2.1,0,0,1,1.36-1.618c4.291-.978,5.751-2.551,6.512-7.009l.095-.553.555-.08c4.447-.646,6.173-2.367,7.1-7.08l.111-.561.569-.057a7.422,7.422,0,0,0,6.08-3.723,7.413,7.413,0,0,0-.12-6.953l-.261-.5.4-.4q.936-.945,1.866-1.9c1.462-1.494,2.974-3.04,4.52-4.509a3.958,3.958,0,0,1,5.507.079,3.914,3.914,0,0,1,.188,5.492c-.772.863-1.607,1.68-2.414,2.469-.58.568-1.18,1.154-1.744,1.747a1.47,1.47,0,0,0-.139,2.181,1.412,1.412,0,0,0,2,.005c.406-.356.785-.742,1.185-1.149.313-.318.626-.636.952-.941a3.965,3.965,0,0,1,5.778-.111,4.041,4.041,0,0,1-.1,5.792c-.526.556-1.081,1.09-1.617,1.606-.647.623-1.315,1.267-1.916,1.933a2.7,2.7,0,0,0-.827,1.454,1.914,1.914,0,0,0,.791,1.27,2.212,2.212,0,0,0,1.579-.257,5.169,5.169,0,0,0,1.194-1.1c.207-.23.414-.46.632-.674,1.921-1.879,4.424-2.025,6.089-.356s1.51,4.126-.409,6.086c-.521.533-1.05,1.059-1.579,1.585-.569.566-1.138,1.132-1.7,1.707a1.461,1.461,0,0,0-.192,2.16,1.433,1.433,0,0,0,2.16-.1c.275-.255.538-.522.8-.79.38-.386.773-.785,1.2-1.152a3.929,3.929,0,0,1,5.47.159,3.905,3.905,0,0,1,.137,5.483c-.971,1.062-2,2.09-3,3.083-.649.646-1.3,1.292-1.935,1.951a1.712,1.712,0,0,0-.534,1.468,1.335,1.335,0,0,0,.785.967,1.264,1.264,0,0,0,1.569-.239,10.834,10.834,0,0,0,.88-1.006c.181-.224.381-.471.615-.746l.563-.666.592.64c.409.443.8.869,1.176,1.281.815.892,1.584,1.733,2.369,2.539s1.6,1.591,2.386,2.343c.33.317.651.625.957.923l.561.546-21.524,21.531Zm42.858-5.484c-.174.281-.327.565-.476.839a7.425,7.425,0,0,1-1.185,1.76c-5.881,5.911-11.887,11.894-17.694,17.68l-4.971,4.954a4.846,4.846,0,0,1-3.3,1.749,4.9,4.9,0,0,1-3.33-1.773l-.83-.825c-.707-.7-1.415-1.4-2.107-2.119-1.832-1.893-1.828-3.95.013-5.793q11.54-11.553,23.093-23.094c1.928-1.925,3.964-1.945,5.889-.055l.7.685c.93.9,1.892,1.839,2.777,2.832a7.5,7.5,0,0,1,1,1.582c.131.251.268.514.425.785l.232.4Z" transform="translate(0 -17.033)" fill="#31404b"/>
      <path id="Trazado_2001" data-name="Trazado 2001" d="M-396.426,236.588c.1.067.2.137.3.211l.3-.171a5.158,5.158,0,0,0,1.016-.678c1.962-1.9,3.929-3.858,5.831-5.754l1.426-1.421a6.143,6.143,0,0,0,.712-.79,1.4,1.4,0,0,0-.155-1.864,1.545,1.545,0,0,0-1.041-.427,1.057,1.057,0,0,0-.75.288c-2.554,2.469-5.546,5.4-8.378,8.422a2.082,2.082,0,0,0-.06,1.488C-397.16,236.08-396.77,236.35-396.426,236.588Z" transform="translate(-77.179 -0.547)" fill="#31404b"/>
      <path id="Trazado_2002" data-name="Trazado 2002" d="M-518.366,231.014l2.17,2.167c.988.991,2.009,2.017,3.029,3,.56.543,1.081.66,1.55.351a4.529,4.529,0,0,0,.929-.991l.183-.233c-.056-.11-.108-.216-.159-.318a3.638,3.638,0,0,0-.526-.881c-2.422-2.481-4.97-5.035-7.787-7.808a1.752,1.752,0,0,0-1.208-.572,1.356,1.356,0,0,0-.959.42c-.642.629-.574,1.469.18,2.248C-520.111,229.281-519.224,230.162-518.366,231.014Z" transform="translate(-16.823 -0.566)" fill="#31404b"/>
      <path id="Trazado_2003" data-name="Trazado 2003" d="M-450.373,237.33h.011a1.558,1.558,0,0,0,1.425-1.668c.02-1.1.015-2.218.01-3.3q0-.723,0-1.445c0-.477,0-.954,0-1.431,0-1.087.01-2.212-.011-3.313a1.442,1.442,0,0,0-1.366-1.6c-.03,0-.061,0-.091,0a1.374,1.374,0,0,0-.948.353,1.57,1.57,0,0,0-.461,1.158c-.054,3.182-.052,6.458.006,9.74A1.486,1.486,0,0,0-450.373,237.33Z" transform="translate(-50.701)" fill="#31404b"/>
      <path id="Trazado_2004" data-name="Trazado 2004" d="M-529.445,408.534h-.018a1.406,1.406,0,0,0-1.414,1.375,1.425,1.425,0,0,0,.4,1.035,1.411,1.411,0,0,0,1,.443,1.34,1.34,0,0,0,1.02-.409,1.415,1.415,0,0,0,.432-1.015,1.42,1.42,0,0,0-.418-1.022A1.409,1.409,0,0,0-529.445,408.534Z" transform="translate(-12.308 -89.364)" fill="#31404b"/>
      <path id="Trazado_2005" data-name="Trazado 2005" d="M-412.944,366.625h-.027A1.413,1.413,0,0,0-414.363,368a1.42,1.42,0,0,0,.41,1.019,1.423,1.423,0,0,0,1.014.431,1.483,1.483,0,0,0,1.024-.406,1.419,1.419,0,0,0,.406-1.023,1.4,1.4,0,0,0-.411-1A1.449,1.449,0,0,0-412.944,366.625Z" transform="translate(-68.906 -69.006)" fill="#31404b"/>
    </g>
  </g>
</svg>
