<svg xmlns="http://www.w3.org/2000/svg" width="166.458" height="164.775" viewBox="0 0 166.458 164.775">
  <g id="lenguaje" transform="translate(-1475 -3954)">
    <g id="Grupo_1864" data-name="Grupo 1864" transform="translate(-1 -916)">
      <g id="Grupo_1817" data-name="Grupo 1817" transform="translate(-63 49)">
        <g id="Grupo_1801" data-name="Grupo 1801" transform="translate(1539 4821)">
          <g id="Grupo_936" data-name="Grupo 936" transform="translate(0 0)">
            <g id="Grupo_282" data-name="Grupo 282" transform="translate(0 0)">
              <path id="Trazado_498" data-name="Trazado 498" d="M83.229,0c45.966,0,83.229,36.886,83.229,82.388s-37.263,82.388-83.229,82.388S0,127.89,0,82.388,37.263,0,83.229,0Z" fill="#d8e500"/>
            </g>
          </g>
        </g>
        <g id="Grupo_1917" data-name="Grupo 1917" transform="translate(71.544 961.489)">
          <g id="Grupo_1915" data-name="Grupo 1915" transform="translate(1488.456 3884.511)">
            <g id="Grupo_1914" data-name="Grupo 1914">
              <path id="Trazado_2006" data-name="Trazado 2006" d="M-42.518,493.286a1.617,1.617,0,0,1-1.611-1.537c-.561-3.011-1.181-6.2-1.949-10.033-1.382-6.9.4-12.833,5.286-17.624,8.47-8.3,12.288-18.359,11.674-30.756a36.065,36.065,0,0,0-2.548-11.92c-.4-.972-.961-1.291-1.826-1.041a1.138,1.138,0,0,0-.723.574,1.857,1.857,0,0,0-.019,1.447c.042.122.086.244.132.365a37.308,37.308,0,0,1,1.938,18.6A34.911,34.911,0,0,1-43.14,462.569a20.358,20.358,0,0,0-5.322,9.144c-1.08,3.638-1.057,7.513.075,12.564.439,1.96.811,3.975,1.171,5.924.165.893.33,1.788.5,2.689l.075.385-.384.082c-.127.027-.239.054-.342.08a3.535,3.535,0,0,1-.606.114q-5.974.44-11.951.862-3.711.257-7.422.506-4.684.317-9.367.643c-1.2.084-1.786.587-1.749,1.494a1.2,1.2,0,0,0,.358.891,2.06,2.06,0,0,0,1.514.355c3.1-.187,5.826-.363,8.327-.539q5.391-.38,10.782-.765,6.828-.486,13.657-.966a2.452,2.452,0,0,1,1.847.345,2.456,2.456,0,0,1,.6,1.787c.075,1.1.13,2.2.186,3.3.032.648.065,1.3.1,1.944a3.608,3.608,0,0,1-.7,2.8,3.544,3.544,0,0,1-2.714.847q-21.207,0-42.415,0H-98.859l1.475-2.043c.666-.921,1.276-1.765,1.881-2.612a7.344,7.344,0,0,1,5.781-3.133c1.744-.108,3.5-.219,5.217-.4.634-.066,1.681-.35,1.57-1.506-.107-1.124-1.2-1.236-1.842-1.2l-3.3.178-.042-.376c-.067-.6-.129-1.183-.19-1.761-.134-1.266-.26-2.46-.431-3.663a5.706,5.706,0,0,0-6.668-5.181c-.885.1-1.769.206-2.653.313-1.894.228-3.851.464-5.787.622a4.172,4.172,0,0,1-3.933-1.692,4.266,4.266,0,0,1-.135-4.322c.393-.8.792-1.6,1.192-2.4.444-.887.889-1.774,1.324-2.665.974-2,.884-2.269-1.074-3.258-.308-.155-.61-.323-.931-.5l-.916-.5.332-.376c.346-.392.718-.746,1.08-1.088,1.092-1.035,2.036-1.928,1.875-3.49-.136-1.325-1.023-2.027-2.051-2.839a10.394,10.394,0,0,1-1.507-1.363l-.254-.3.7-.624c.277-.245.543-.481.8-.726a3.63,3.63,0,0,0,1.408-3.332,3.558,3.558,0,0,0-2.7-2.3c-1.04-.318-2.109-.613-3.143-.9-.764-.212-1.527-.423-2.288-.645-.789-.229-1.546-.53-1.748-1.167s.255-1.341.78-2l1.84-2.31c2.09-2.629,4.252-5.347,6.429-7.98a7.823,7.823,0,0,0,1.681-7.195,11.673,11.673,0,0,1-.334-4.684c2.008-10.3,6.987-17.48,15.221-21.957a38.7,38.7,0,0,1,16.713-4.323c16.247-.879,27.607,3.734,35.753,14.522.632.837,1.258.992,2.03.5a1.1,1.1,0,0,0,.506-.712,2,2,0,0,0-.378-1.473c-.165-.254-.35-.495-.535-.736l-.084-.109a36.678,36.678,0,0,0-17.586-12.4c-6.971-2.418-14.7-3.065-23.623-1.978a36.857,36.857,0,0,0-17.779,6.606c-6.734,4.92-10.955,11.854-12.9,21.2a12.869,12.869,0,0,0,.2,5.537,6.3,6.3,0,0,1-1.532,6.15c-2.339,2.757-4.623,5.644-6.832,8.436l-1.192,1.506a4.533,4.533,0,0,0-1.007,4.169,4.488,4.488,0,0,0,3.127,2.877c.882.283,1.792.541,2.671.792.4.113.794.226,1.191.342l2.775.808-.443.477c-.2.209-.375.405-.545.591-.344.377-.649.71-.97,1.028a3.189,3.189,0,0,0-1.172,2.281,3.143,3.143,0,0,0,1.327,2.156c.559.472,1.123.938,1.714,1.427l1.166.967-.327.31c-.313.3-.614.576-.908.848-.613.569-1.193,1.106-1.732,1.668a2.668,2.668,0,0,0-.824,2.209,2.724,2.724,0,0,0,1.422,1.938c.325.191.662.363,1.022.548.18.092.366.188.559.29l.345.182-.171.349c-.237.483-.475.957-.71,1.424-.557,1.108-1.083,2.154-1.55,3.237a7.889,7.889,0,0,0-.7,2.567,6.768,6.768,0,0,0,1.884,5.175,6.5,6.5,0,0,0,4.975,1.969c2.113-.087,4.262-.349,6.34-.6.956-.117,1.913-.234,2.87-.336a4.976,4.976,0,0,1,.512-.028,2.788,2.788,0,0,1,3.013,2.278c.224,1.328.361,2.646.505,4.042.062.6.125,1.2.2,1.819l.043.37-.365.07a10.582,10.582,0,0,0-7.05,4.837c-.883,1.3-1.835,2.572-2.755,3.806l-.5.671a2.275,2.275,0,0,0-.332,2.6,2.285,2.285,0,0,0,2.308,1.238h0q10.425-.006,20.848,0,17.448,0,34.9-.015a5.463,5.463,0,0,0,3.951-1.631,5.488,5.488,0,0,0,1.53-4.012c-.052-2.067-.185-4.28-.417-6.962A4.144,4.144,0,0,0-42.518,493.286Z" transform="translate(148.916 -398.47)" fill="#31404b"/>
              <path id="Trazado_2007" data-name="Trazado 2007" d="M-167.742,493.958a37.689,37.689,0,0,1,3.286-4.34c.455-.543.909-1.087,1.349-1.638.8-1.006.441-1.585.035-1.976a1.276,1.276,0,0,0-1.969.06c-.148.135-.287.282-.426.428a34.5,34.5,0,0,0-9.879,23.364c.012,9.984,3.4,19,9.548,25.4,1.6,1.669,2.131,1.426,2.7.9a1.144,1.144,0,0,0,.439-.794c.018-.477-.349-1.115-1.123-1.951A32.494,32.494,0,0,1-167.742,493.958Z" transform="translate(175.345 -439.042)" fill="#31404b"/>
              <path id="Trazado_2008" data-name="Trazado 2008" d="M-147.536,501.6c.6-.658,1.137-1.606.3-2.381-.236-.219-.951-.884-2.234.455a24.443,24.443,0,0,0-7.057,17.189,25.321,25.321,0,0,0,6.935,17.841c.913.952,1.705,1.135,2.355.543.873-.795.176-1.835-.317-2.384C-155.858,523.605-155.853,510.749-147.536,501.6Z" transform="translate(166.578 -445.233)" fill="#31404b"/>
              <path id="Trazado_2009" data-name="Trazado 2009" d="M-131.667,531.874l-.178-.2a12.419,12.419,0,0,1-2.853-11.109,13.522,13.522,0,0,1,3.183-6.046,2.558,2.558,0,0,0,.282-1.836c-.025-.126-.411-.368-.667-.528-.128-.08-.257-.161-.386-.248-.142.094-.282.183-.416.269a5.164,5.164,0,0,0-.994.74,15.2,15.2,0,0,0-1.735,18.528,16.742,16.742,0,0,0,2.331,2.816,1.147,1.147,0,0,0,1.733-.1,1.247,1.247,0,0,0,.162-1.708A4.22,4.22,0,0,0-131.667,531.874Z" transform="translate(157.855 -451.31)" fill="#31404b"/>
            </g>
          </g>
          <g id="Grupo_1917-2" data-name="Grupo 1917" transform="translate(1534.77 3893.737)">
            <path id="Trazado_1995" data-name="Trazado 1995" d="M-252.91,250.09a1.243,1.243,0,0,0,.792-.571,1.09,1.09,0,0,0,.062-.86c-.187-.608-.78-.855-1.55-.645a17.739,17.739,0,0,0-10.913,8.329,26.909,26.909,0,0,0-3.142,8.767c-.026,1.013.466,1.231.9,1.307a.97.97,0,0,0,1.178-.739c.157-.486.281-1,.4-1.5.052-.217.1-.435.16-.652C-263.169,256.241-259.207,251.846-252.91,250.09Z" transform="translate(269.508 -247.941)" fill="#31404b"/>
            <path id="Trazado_1998" data-name="Trazado 1998" d="M-270.9,298.28h-.022a1.062,1.062,0,0,0-.759.341,1.129,1.129,0,0,0-.3.832,1.045,1.045,0,0,0,1.108,1.018h0a1.1,1.1,0,0,0,1.083-1.072,1.111,1.111,0,0,0-.342-.79A1.11,1.11,0,0,0-270.9,298.28Z" transform="translate(271.977 -276.748)" fill="#31404b"/>
          </g>
        </g>
      </g>
    </g>
  </g>
</svg>
