<svg xmlns="http://www.w3.org/2000/svg" width="166.458" height="164.775" viewBox="0 0 166.458 164.775">
  <g id="restaurante" transform="translate(-261 -3529)">
    <g id="Grupo_1826" data-name="Grupo 1826" transform="translate(1 -1341)">
      <g id="Grupo_1816" data-name="Grupo 1816" transform="translate(10 49)">
        <g id="Grupo_1798" data-name="Grupo 1798" transform="translate(250 4821)">
          <g id="Grupo_936" data-name="Grupo 936" transform="translate(0 0)">
            <g id="Grupo_282" data-name="Grupo 282" transform="translate(0 0)">
              <path id="Trazado_498" data-name="Trazado 498" d="M83.229,0c45.966,0,83.229,36.886,83.229,82.388s-37.263,82.388-83.229,82.388S0,127.89,0,82.388,37.263,0,83.229,0Z" fill="#d8e500"/>
              <g id="Grupo_941" data-name="Grupo 941" transform="translate(24.973 29.081)">
                <g id="Grupo_934" data-name="Grupo 934">
                  <g id="Grupo_933" data-name="Grupo 933">
                    <path id="Trazado_731" data-name="Trazado 731" d="M1364.774,360.818v-2.781a1.337,1.337,0,1,0-2.673,0v2.781a1.337,1.337,0,1,0,2.673,0Z" transform="translate(-1339.352 -279.788)" fill="#d8e500"/>
                    <path id="Trazado_732" data-name="Trazado 732" d="M1395.7,360.818a1.337,1.337,0,1,0,2.673,0v-2.781a1.337,1.337,0,1,0-2.673,0Z" transform="translate(-1365.707 -279.788)" fill="#d8e500"/>
                    <path id="Trazado_733" data-name="Trazado 733" d="M1336.181,410.468h0a1.314,1.314,0,0,0-1.165-.668,1.541,1.541,0,0,0-.668.172,1.32,1.32,0,0,0-.5,1.811,9.172,9.172,0,0,0,7.978,4.571h.065a1.346,1.346,0,0,0,1.337-1.272,1.33,1.33,0,0,0-1.272-1.4A6.5,6.5,0,0,1,1336.181,410.468Z" transform="translate(-1317.055 -321.438)" fill="#d8e500"/>
                    <path id="Trazado_734" data-name="Trazado 734" d="M1302.937,255.7h-26.91a15.975,15.975,0,0,0-15.956,15.956,1.337,1.337,0,0,0,2.674,0,13.3,13.3,0,0,1,13.282-13.282h25.508l-.043.367a13.3,13.3,0,0,1-13.174,11.6H1273.03a1.343,1.343,0,0,0-1.337,1.337v1.358a4.507,4.507,0,0,1-3.881,4.463l-.129.022-.108-.086a6.779,6.779,0,0,0-4.226-1.488,6.663,6.663,0,0,0-2.415.453,6.819,6.819,0,0,0-2.35,1.531,6.767,6.767,0,0,0,0,9.574,6.415,6.415,0,0,0,1.66,1.207l.129.065.022.151a18.176,18.176,0,0,0,36.03-3.407v-9.466a1.337,1.337,0,0,0-2.674,0v9.466a15.5,15.5,0,0,1-30.855,2.135,1.34,1.34,0,0,0-.884-1.078,4.49,4.49,0,0,1-1.552-.97,4.061,4.061,0,0,1,0-5.779,3.874,3.874,0,0,1,1.423-.927,4.079,4.079,0,0,1,4.356.927,1.382,1.382,0,0,0,1.013.41,7.181,7.181,0,0,0,7.115-6.9l.022-.3h13.929a15.975,15.975,0,0,0,15.956-15.956A1.353,1.353,0,0,0,1302.937,255.7Z" transform="translate(-1256.6 -200.566)" fill="#d8e500"/>
                    <path id="Trazado_735" data-name="Trazado 735" d="M1348.5,74.945a1.343,1.343,0,0,0-1.337,1.337,3.423,3.423,0,0,1-3.428,3.428h-10.414a1.341,1.341,0,0,0-.992.453l-5.369,6.016v-5.11a1.344,1.344,0,0,0-1.337-1.337H1302.2a3.423,3.423,0,0,1-3.428-3.428v-21a3.423,3.423,0,0,1,3.428-3.428h31.718a1.337,1.337,0,0,0,0-2.674H1302.2a6.11,6.11,0,0,0-6.1,6.1v20.98a6.11,6.11,0,0,0,6.1,6.1h22.08v7.288a1.33,1.33,0,0,0,2.329.884l7.288-8.172h9.832a6.11,6.11,0,0,0,6.1-6.1A1.344,1.344,0,0,0,1348.5,74.945Z" transform="translate(-1287.583 -38.591)" fill="#d8e500"/>
                    <path id="Trazado_736" data-name="Trazado 736" d="M1497.6,33.184h9.832l7.288,8.172a1.349,1.349,0,0,0,1.466.367,1.332,1.332,0,0,0,.863-1.251V33.184h22.08a6.11,6.11,0,0,0,6.1-6.1V6.1a6.11,6.11,0,0,0-6.1-6.1h-3.774a1.337,1.337,0,0,0,0,2.674h3.774a3.423,3.423,0,0,1,3.428,3.428v20.98a3.423,3.423,0,0,1-3.428,3.428h-23.417a1.343,1.343,0,0,0-1.337,1.337v5.11l-5.369-6.016a1.377,1.377,0,0,0-.992-.453H1497.6a3.423,3.423,0,0,1-3.428-3.428V6.1a3.423,3.423,0,0,1,3.428-3.428h32.451a1.337,1.337,0,0,0,0-2.674H1497.6a6.11,6.11,0,0,0-6.1,6.1v20.98A6.11,6.11,0,0,0,1497.6,33.184Z" transform="translate(-1440.851)" fill="#d8e500"/>
                    <path id="Trazado_737" data-name="Trazado 737" d="M1621.631,39h-18.694a1.337,1.337,0,1,0,0,2.674h18.694a1.337,1.337,0,1,0,0-2.674Z" transform="translate(-1527.211 -30.591)" fill="#d8e500"/>
                    <path id="Trazado_738" data-name="Trazado 738" d="M1532.837,41.574h9.6a1.337,1.337,0,1,0,0-2.674h-9.6a1.344,1.344,0,0,0-1.337,1.337A1.33,1.33,0,0,0,1532.837,41.574Z" transform="translate(-1472.226 -30.512)" fill="#d8e500"/>
                    <path id="Trazado_739" data-name="Trazado 739" d="M1668.694,70.5h-5.757a1.337,1.337,0,0,0,0,2.674h5.757a1.337,1.337,0,1,0,0-2.674Z" transform="translate(-1574.274 -55.299)" fill="#d8e500"/>
                    <path id="Trazado_740" data-name="Trazado 740" d="M1532.837,73.174h22.532a1.337,1.337,0,0,0,0-2.674h-22.532a1.344,1.344,0,0,0-1.337,1.337A1.33,1.33,0,0,0,1532.837,73.174Z" transform="translate(-1472.226 -55.299)" fill="#d8e500"/>
                    <path id="Trazado_741" data-name="Trazado 741" d="M1532.837,104.674h23.524a1.337,1.337,0,0,0,0-2.674h-23.524a1.344,1.344,0,0,0-1.337,1.337A1.33,1.33,0,0,0,1532.837,104.674Z" transform="translate(-1472.226 -80.007)" fill="#d8e500"/>
                    <path id="Trazado_742" data-name="Trazado 742" d="M1334.937,87.774h9.6a1.337,1.337,0,0,0,0-2.674h-9.6a1.337,1.337,0,0,0,0,2.674Z" transform="translate(-1316.997 -66.751)" fill="#d8e500"/>
                    <path id="Trazado_743" data-name="Trazado 743" d="M1421.269,86.437a1.344,1.344,0,0,0-1.337-1.337h-9.6a1.337,1.337,0,0,0,0,2.674h9.6A1.344,1.344,0,0,0,1421.269,86.437Z" transform="translate(-1376.139 -66.751)" fill="#d8e500"/>
                    <path id="Trazado_744" data-name="Trazado 744" d="M1333.6,117.937a1.344,1.344,0,0,0,1.337,1.337H1364a1.337,1.337,0,1,0,0-2.674h-29.066A1.344,1.344,0,0,0,1333.6,117.937Z" transform="translate(-1316.997 -91.459)" fill="#d8e500"/>
                    <path id="Trazado_745" data-name="Trazado 745" d="M1382.537,148.2a1.337,1.337,0,1,0,0,2.674H1395.8a1.337,1.337,0,0,0,0-2.674Z" transform="translate(-1354.333 -116.245)" fill="#d8e500"/>
                    <path id="Trazado_746" data-name="Trazado 746" d="M1333.6,149.437a1.344,1.344,0,0,0,1.337,1.337h4.744a1.337,1.337,0,0,0,0-2.674h-4.744A1.358,1.358,0,0,0,1333.6,149.437Z" transform="translate(-1316.997 -116.166)" fill="#d8e500"/>
                    <path id="Trazado_747" data-name="Trazado 747" d="M1625.373,336.3v-2.566a1.337,1.337,0,1,0-2.674,0V336.3a1.337,1.337,0,1,0,2.674,0Z" transform="translate(-1543.761 -260.727)" fill="#d8e500"/>
                    <path id="Trazado_748" data-name="Trazado 748" d="M1594.373,336.3v-2.566a1.337,1.337,0,1,0-2.674,0V336.3a1.337,1.337,0,1,0,2.674,0Z" transform="translate(-1519.445 -260.727)" fill="#d8e500"/>
                    <path id="Trazado_749" data-name="Trazado 749" d="M1620.893,387.753a8.61,8.61,0,0,0,7.439-4.269,1.31,1.31,0,0,0-.5-1.811,1.376,1.376,0,0,0-1.013-.129,1.292,1.292,0,0,0-.8.625,5.985,5.985,0,0,1-5.261,2.932,1.343,1.343,0,0,0-.927.431,1.328,1.328,0,0,0,1.057,2.221Z" transform="translate(-1541.243 -299.24)" fill="#d8e500"/>
                    <path id="Trazado_750" data-name="Trazado 750" d="M1700.3,279.187c-1.035-7.374-3.558-12.635-7.719-16.107a1.334,1.334,0,0,0-1.876.172,1.254,1.254,0,0,0-.3.97,1.3,1.3,0,0,0,.474.906c3.622,3.04,5.843,7.762,6.792,14.447,1.962,13.951-3.968,26.284-5.822,29.734l-.173.3-.3-.194a13.964,13.964,0,0,1-5.886-7.5,1.3,1.3,0,0,0-.647-.776,1.253,1.253,0,0,0-.6-.151,1.354,1.354,0,0,0-.41.065,1.3,1.3,0,0,0-.776.647,1.278,1.278,0,0,0-.086,1.013,16.553,16.553,0,0,0,8.733,9.9,1.387,1.387,0,0,0,.517.108,1.349,1.349,0,0,0,1.143-.647C1697.859,304.371,1702.064,291.714,1700.3,279.187Z" transform="translate(-1590.976 -206.113)" fill="#d8e500"/>
                    <path id="Trazado_751" data-name="Trazado 751" d="M1596.695,264.155a6.383,6.383,0,0,0-4.054-5.93,6.431,6.431,0,0,0-4.075-.173l-.41.129v-2.07a1.34,1.34,0,0,0-1.79-1.272c-.086.022-8.8,3.062-14.6-4.506a1.339,1.339,0,0,0-2.005-.129c-1.38,1.38-4.679,1.984-7.31,2.07h-.28l-.043-.28a8.486,8.486,0,0,1,1.359-6.706c1.79-2.329,5.132-3.515,9.961-3.515,5.434,0,11.147.151,15.87,2.005a1.275,1.275,0,0,0,1.014-.022,1.39,1.39,0,0,0,.711-.733,1.275,1.275,0,0,0-.021-1.013,1.39,1.39,0,0,0-.733-.712c-5.175-2.027-11.148-2.2-16.84-2.2s-9.768,1.531-12.075,4.55c-2.868,3.752-2.027,8.431-1.531,10.285a1.339,1.339,0,0,0,1.251.992c.582.022,5.843.151,9.229-1.833l.216-.129.173.194a15.174,15.174,0,0,0,10.436,4.916,17.721,17.721,0,0,0,3.989-.237l.388-.065v2.782a1.306,1.306,0,0,0,.841,1.229,1.337,1.337,0,0,0,1.445-.3,3.676,3.676,0,0,1,3.924-.819,3.283,3.283,0,0,1,1.272.841,3.644,3.644,0,0,1,0,5.175,3.882,3.882,0,0,1-1.38.884,1.34,1.34,0,0,0-.884,1.078A14.19,14.19,0,0,1,1562.5,266.7v-7.5a1.337,1.337,0,0,0-2.674,0v7.5a16.865,16.865,0,0,0,33.421,3.213l.021-.151.129-.065a6.312,6.312,0,0,0,3.3-5.541Z" transform="translate(-1494.059 -187.545)" fill="#d8e500"/>
                  </g>
                </g>
              </g>
            </g>
          </g>
        </g>
        <g id="Grupo_1892" data-name="Grupo 1892" transform="translate(120.999 4597)">
          <g id="Grupo_1236" data-name="Grupo 1236" transform="translate(157 252)">
            <path id="Trazado_1654" data-name="Trazado 1654" d="M117.33,93.46l.929-.056a14.936,14.936,0,0,0,11.855-6.364c1.943-2.731,3.8-5.463,5.547-8.138a30.073,30.073,0,0,0,4.674-21.176,6.616,6.616,0,0,0-6.28-6c-.479-.028-.986-.028-1.464-.028A27.038,27.038,0,0,0,116.6,56.431a113.791,113.791,0,0,0-11.4,9.518,17.009,17.009,0,0,0-3.435,5.266c-1.324,2.844-1.126,5.913-.788,9.349V80.9a5.926,5.926,0,0,0,.028.986c.507,3.83-.676,7.04-3.8,10.081-3.041,2.957-6.054,6.082-8.955,9.124-1.239,1.3-2.478,2.591-3.745,3.886l-9.152,9.433c-9.8,10.081-19.937,20.5-29.905,30.75a8,8,0,0,0-2.478,5.125,8.886,8.886,0,0,0,5.519,8.729c3.717,1.464,7.237.422,9.94-2.929q23.527-29.229,47.054-58.431a9.624,9.624,0,0,1,6.449-3.8C113.754,93.658,115.584,93.545,117.33,93.46Zm-13.939,2.478q-23.654,29.356-47.308,58.741a5.882,5.882,0,0,1-4.027,2.168,3.405,3.405,0,0,1-.535.028,5.354,5.354,0,0,1-3.576-1.324,5.941,5.941,0,0,1-2.168-4.252,5.793,5.793,0,0,1,1.661-4.224c4.28-4.393,8.532-8.786,12.813-13.207,12.559-12.925,25.512-26.3,38.381-39.339,4.421-4.477,6.054-8.673,5.125-13.179V81.3c0-.9,0-1.718-.028-2.534-.028-1.661-.056-3.069.056-4.506a9.025,9.025,0,0,1,2.957-6l1.07-.957a125.453,125.453,0,0,1,10.025-8.392c4.224-3.069,9.462-4.562,15.6-4.449a3.971,3.971,0,0,1,4.168,3.689,27.328,27.328,0,0,1-4.534,19.74c-1.633,2.45-3.576,5.294-5.547,8a11.561,11.561,0,0,1-8.617,4.646c-2.225.225-4.224.366-6.2.451A12.452,12.452,0,0,0,103.391,95.939Z" transform="translate(-30.882 -50.456)" fill="#31404b"/>
            <path id="Trazado_1655" data-name="Trazado 1655" d="M26.772,93.836a62.823,62.823,0,0,0,8.927.507,10.3,10.3,0,0,1,8.138,3.689c.535.62,1.1,1.239,1.661,1.83l.422.451c.7.76,1.408.845,2.084.225a1.2,1.2,0,0,0,.479-.873,1.642,1.642,0,0,0-.563-1.183l-.845-.929c-.676-.76-1.408-1.521-2.112-2.281a10.2,10.2,0,0,0-6.533-3.407c-1.577-.141-3.21-.169-4.759-.169-1.07-.028-2.14-.028-3.238-.084a12.389,12.389,0,0,1-9.546-4.477c-3.126-3.8-6.364-7.631-9.49-11.32C10.045,74.208,8.665,72.6,7.313,71l-.788-.929c-1.042-1.239-2.14-2.534-3.182-3.83a1.359,1.359,0,0,1-.2-.817,1.155,1.155,0,0,0-.028-.31l-.056-.394.394.056a.958.958,0,0,0,.282.028,1.793,1.793,0,0,1,.76.2,2.573,2.573,0,0,1,.648.591c.084.084.141.169.225.253,1.521,1.521,3.013,3.041,4.506,4.534,3.661,3.689,7.434,7.49,11.179,11.207a4.692,4.692,0,0,0,3.295,1.605h.028a4.735,4.735,0,0,0,3.295-1.633l3.266-3.266c1.07-1.07,2.14-2.14,3.21-3.182,2.534-2.534,2.534-4.59,0-7.124-3.52-3.548-7.04-7.04-10.532-10.56l-5.041-5.012a1.41,1.41,0,0,0-.225-.2,2.277,2.277,0,0,1-.591-.676,1.365,1.365,0,0,1-.141-.732v-.253l-.028-.338.338.028h.253a1.244,1.244,0,0,1,.7.113,5.238,5.238,0,0,1,.788.591c.084.084.169.141.253.225,1.915,1.633,3.858,3.266,5.773,4.9,4.562,3.858,9.264,7.856,13.939,11.686A12.341,12.341,0,0,1,44.371,77.9c0,2.675.056,4.843.2,6.871a10.771,10.771,0,0,0,3.182,6.955c.76.788,1.605,1.549,2.394,2.309l1.07.986a1.364,1.364,0,0,0,2.112.113,1.4,1.4,0,0,0,.422-.957,1.752,1.752,0,0,0-.62-1.155c-.732-.7-1.492-1.38-2.253-2.056l-.141-.113a9.209,9.209,0,0,1-3.407-6.5c-.056-1.324-.084-2.647-.113-3.942-.028-1.239-.056-2.534-.113-3.8a13.426,13.426,0,0,0-4.562-10c-5.125-4.393-10.391-8.814-15.488-13.094L21.14,48.527c-1.915-1.605-4.139-1.661-5.547-.141s-1.155,3.717.62,5.491l5.97,5.97Q27.208,64.874,32.263,69.9c.648.648.986,1.1.986,1.605-.028.535-.451.986-1.267,1.718l-.2.169-3.266-3.238c-5.1-5.069-10.137-10.137-15.206-15.206a2.655,2.655,0,0,0-.282-.282,1.848,1.848,0,0,0-.76-.62,2.307,2.307,0,0,0-1.633.141,2.232,2.232,0,0,0-.225,1.633c.028.253.338.535.62.76l.253.253L21.759,67.309l.591.591c1.633,1.633,3.238,3.238,4.9,4.872l2.619,2.619-1.633,1.521-.2-.169c-.141-.141-.282-.253-.422-.394-.282-.253-.507-.479-.76-.732L19.816,68.6c-3.379-3.351-6.73-6.73-10.109-10.081-.113-.113-.2-.225-.31-.338-.225-.253-.479-.563-.676-.591a2.464,2.464,0,0,0-1.746.282c-.2.169-.225.845-.056,1.605.028.2.282.422.535.62a1.335,1.335,0,0,1,.282.282l9.8,9.8,7.434,7.434c.253.253.479.507.732.76a3.374,3.374,0,0,1,.31.338l.169.169-.141.2c-.62.788-1.1,1.239-1.633,1.267-.507.028-.986-.338-1.605-.957-5.773-5.773-10.982-10.982-16.22-16.248A3.919,3.919,0,0,0,3.737,61.79a3.816,3.816,0,0,0-.563.056A3.457,3.457,0,0,0,.33,64.24a3.7,3.7,0,0,0,.929,3.886c1.887,2.253,3.8,4.506,5.688,6.758,3.942,4.674,8.025,9.49,12,14.249A12.579,12.579,0,0,0,26.772,93.836Z" transform="translate(-0.106 -47.283)" fill="#31404b"/>
            <path id="Trazado_1656" data-name="Trazado 1656" d="M265.732,298.857c-8.11-7.265-16.3-14.756-24.217-21.993q-5.153-4.731-10.363-9.462a5.055,5.055,0,0,0-.957-.732,1.635,1.635,0,0,0-1.211-.2.8.8,0,0,0-.479.479,3.651,3.651,0,0,0,.141,1.971c.028.141.253.31.451.451a3.193,3.193,0,0,1,.366.282l8.729,7.941c8.5,7.744,17.29,15.741,25.935,23.626a5.392,5.392,0,0,1,1.774,3.97,5.866,5.866,0,0,1-6.054,5.942,5.375,5.375,0,0,1-3.886-1.718l-16.811-18.5c-2.563-2.816-5.125-5.66-7.716-8.476l-1.605-1.774c-1.746-1.915-3.52-3.914-5.35-5.8a2.229,2.229,0,0,0-1.492-.507h-.225a1.454,1.454,0,0,0-.76.986,2.85,2.85,0,0,0,.76,1.661c1.943,2.2,3.942,4.393,5.885,6.5.535.591,1.07,1.155,1.577,1.746q7.9,8.659,15.826,17.346l7.8,8.56a7.354,7.354,0,0,0,5.885,2.731h0a10.034,10.034,0,0,0,5.435-1.718,8.7,8.7,0,0,0,3.379-6.5A8.144,8.144,0,0,0,265.732,298.857Z" transform="translate(-159.516 -204.715)" fill="#31404b"/>
          </g>
        </g>
      </g>
    </g>
  </g>
</svg>
