<svg xmlns="http://www.w3.org/2000/svg" width="166.458" height="164.775" viewBox="0 0 166.458 164.775">
  <g id="enfermeria" transform="translate(-1475 -3529)">
    <g id="Grupo_1844" data-name="Grupo 1844" transform="translate(-1 -1341)">
      <g id="Grupo_1817" data-name="Grupo 1817" transform="translate(-63 49)">
        <g id="Grupo_1801" data-name="Grupo 1801" transform="translate(1539 4821)">
          <g id="Grupo_936" data-name="Grupo 936" transform="translate(0 0)">
            <g id="Grupo_282" data-name="Grupo 282" transform="translate(0 0)">
              <path id="Trazado_498" data-name="Trazado 498" d="M83.229,0c45.966,0,83.229,36.886,83.229,82.388s-37.263,82.388-83.229,82.388S0,127.89,0,82.388,37.263,0,83.229,0Z" fill="#d8e500"/>
            </g>
          </g>
        </g>
        <g id="Grupo_1893" data-name="Grupo 1893" transform="translate(1412.001 4189)">
          <g id="Grupo_1238" data-name="Grupo 1238" transform="translate(-172.86 -9.114)">
            <path id="Trazado_1663" data-name="Trazado 1663" d="M1170.955,128.533c-.926-.436-1.308-.845-1.008-2.016a82.658,82.658,0,0,0,1.117-36.566,70.048,70.048,0,0,0-5.286-16.785l-.054-.136.082-.136a.6.6,0,0,1,.082-.136,1.143,1.143,0,0,1,.163-.218l2.479-2.48c1.417-1.417,2.834-2.834,4.251-4.278a5.452,5.452,0,0,0,1.88-4.087,5.453,5.453,0,0,0-2.289-3.787,54.758,54.758,0,0,0-68.964.027,5.4,5.4,0,0,0-2.262,3.76,5.38,5.38,0,0,0,1.8,4.005c2.371,2.4,4.469,4.5,6.458,6.458a1.509,1.509,0,0,1,.463,1.935,82.135,82.135,0,0,0-3.542,53.46l.054.218-.6.272c-.218.109-.409.191-.6.272a19.116,19.116,0,0,0-11.2,12.616,14.462,14.462,0,0,0-.6,6.158c.491,3.052,3.025,4.85,6.785,4.85h76.43a6.345,6.345,0,0,0,4.55-2.153,5.977,5.977,0,0,0,1.471-4.5C1181.99,137.579,1178.067,131.939,1170.955,128.533Zm-3.76-1.526-.082.272-.273-.082a6.078,6.078,0,0,0-1.717-.245,3.7,3.7,0,0,1-3.3-1.417,1.5,1.5,0,0,0-.627-.327.506.506,0,0,0-.191-.055c-.845-.3-1.689-.6-2.534-.926-1.826-.654-3.678-1.335-5.5-2.044a2.375,2.375,0,0,1-1.39-1.417,45.7,45.7,0,0,1-.572-5.559c-.027-.572.518-1.117.927-1.58l.027-.027c5.668-5.967,9.046-12.37,10.3-19.537a21.783,21.783,0,0,0,.327-3.869c0-4.005-1.853-6.812-5.695-8.583a29.951,29.951,0,0,0-9.945-2.18l-1.989-.163c-3.488-.3-7.084-.627-10.572-1.253a16.653,16.653,0,0,1-10.054-6.24l-.218-.272.327-.163a29.658,29.658,0,0,1,12.561-3,31.772,31.772,0,0,1,22.343,8.256c1.144,1.008,1.608,1.008,2.643-.054a4.26,4.26,0,0,0,.436-.545,3.974,3.974,0,0,1,.872-.926l.273-.191.136.327A78.7,78.7,0,0,1,1167.195,127.007Zm-20.3-12.37c-3.215,2.561-6.131,3.815-9.046,3.815-3.052,0-6.076-1.39-9.455-4.2-6.894-5.749-11.09-12.861-12.4-21.144a26.93,26.93,0,0,1-.218-3.569v-3.76c0-2.153.027-4.387-.054-6.567a3.67,3.67,0,0,1,1.662-3.433c.926-.627,1.825-1.308,2.779-2.016.409-.3.845-.627,1.281-.954l.218-.163.163.218a20.4,20.4,0,0,0,12.289,7.793,63.274,63.274,0,0,0,6.785.872c1.226.109,2.479.245,3.706.381.817.109,1.662.191,2.507.272a40.929,40.929,0,0,1,6.785,1.09c5.177,1.444,6.839,4.114,5.967,9.591A34.03,34.03,0,0,1,1146.9,114.637Zm2.289,9.1c-1.689,4.2-6.185,6.948-11.008,6.948a14.7,14.7,0,0,1-1.526-.082c-4.986-.6-8.229-2.752-9.918-6.594a3.639,3.639,0,0,1-.082-1.935c.191-1.035.409-2.071.654-3.188.109-.463.218-.954.327-1.444l.082-.409.327.245c6.539,4.932,13.161,4.932,19.7-.054l.327-.245.109.409c.109.463.218.954.327,1.39.3,1.308.6,2.534.845,3.76A1.908,1.908,0,0,1,1149.184,123.738Zm-40.763-56.212-1.144-1.144-2.616-2.616a2.569,2.569,0,0,1-.927-1.88,2.414,2.414,0,0,1,1.09-1.717,52.128,52.128,0,0,1,65.885-.163,2.733,2.733,0,0,1,1.308,1.907,2.638,2.638,0,0,1-1.036,1.962c-2.4,2.425-4.8,4.823-7.221,7.248l-3.106,3.106-.191-.163a35,35,0,0,0-45.2,0l-.191.163Zm3.488,8.147.054-.163.9-.054.027.245c.027.136.054.3.082.436a6.316,6.316,0,0,1,.136,1.035c0,1.553,0,3.106-.027,4.632-.027,2.943-.054,5.994.082,8.965.272,7.057,3.024,13.76,8.447,20.463.272.327.545.627.817.926.3.327.6.654.872,1.008.136.163.272.327.436.518.49.545,1.008,1.09.981,1.689a35.708,35.708,0,0,1-.545,4.85c-.054.409-.136.79-.191,1.2-.027.245-.3.463-.79.627-.872.3-1.717.6-2.589.9-1.717.6-3.488,1.2-5.231,1.853a6.624,6.624,0,0,0-1.39.817,8.048,8.048,0,0,1-1.471.872,10.616,10.616,0,0,1-2.316.518c-.354.054-.736.109-1.117.191l-.245.055-.054-.245A81.05,81.05,0,0,1,1111.909,75.673Zm7.6,73.705c-1.88,0-3.733,0-5.613-.027-4.441-.027-9.046-.027-13.569.055h-.136a4.513,4.513,0,0,1-3.46-1.335,4.577,4.577,0,0,1-.927-3.76,17.23,17.23,0,0,1,15.667-14.8,1.649,1.649,0,0,1,1.362.763c2.4,5.286,4.823,10.654,7.139,15.858l.981,2.207a3.567,3.567,0,0,1,.136.409,2.229,2.229,0,0,1,.082.3l.109.354h-1.771Zm9.836-.027h-2.289c-.681,0-1.362,0-2.016-.027a1.507,1.507,0,0,1-1.008-.763c-2.67-5.722-5.259-11.362-8.011-17.33l-1.526-3.324,9.073-3.324,6.1,24.768h-.327Zm12.452.054h-.054c-1.226-.027-2.479-.027-3.678-.027-1.417,0-2.888,0-4.36-.027a1.858,1.858,0,0,1-1.5-1.035c-1.308-4.959-2.561-10-3.787-14.877l-.6-2.371a.905.905,0,0,1,0-.381.675.675,0,0,1,.027-.218l.027-.463.409.245c6.321,3.978,12.534,4.033,19.019.164l.545-.327-.163.627c-.082.381-.191.763-.272,1.117-.191.763-.354,1.444-.518,2.153-.354,1.444-.736,2.915-1.09,4.36-.818,3.188-1.635,6.485-2.452,9.727C1143.163,148.86,1142.836,149.4,1141.8,149.4Zm8.174,0h-.218c-.79-.055-1.608-.027-2.452-.027h-1.526l6.1-24.768,8.883,3.215-.109.272c-.3.681-.572,1.362-.845,2.016-.6,1.444-1.172,2.834-1.771,4.223-.9,2.044-1.853,4.142-2.752,6.131-1.117,2.507-2.289,5.068-3.406,7.629A1.917,1.917,0,0,1,1149.974,149.4Zm29.264-1.417a3.724,3.724,0,0,1-2.643,1.335,9.852,9.852,0,0,1-1.253.055h-21.2l.191-.381c.136-.3.245-.545.382-.79.218-.463.409-.872.572-1.253.518-1.172,1.035-2.343,1.553-3.542,1.825-4.169,3.733-8.5,5.558-12.779a1.627,1.627,0,0,1,1.989-1.172A17.111,17.111,0,0,1,1180,145.1,3.855,3.855,0,0,1,1179.239,147.988Z" transform="translate(-754.401 624.414)" fill="#31404b"/>
            <path id="Trazado_1664" data-name="Trazado 1664" d="M1235.522,71.955h3.6v3.324c-.027,1.09.382,1.635,1.308,1.744a1.025,1.025,0,0,0,.79-.245,2.14,2.14,0,0,0,.572-1.553V71.982H1245c1.172.027,1.662-.327,1.717-1.226a1.055,1.055,0,0,0-.245-.817,2.011,2.011,0,0,0-1.526-.49h-3.161V66.124a1.82,1.82,0,0,0-.409-1.335,1.13,1.13,0,0,0-.926-.3c-.6,0-1.308.218-1.308,1.689v3.27h-2.4c-.409,0-.818,0-1.226.027a1.577,1.577,0,0,0-1.063.409,1.183,1.183,0,0,0-.272.954C1234.187,71.546,1234.65,71.955,1235.522,71.955Z" transform="translate(-856.924 610.748)" fill="#31404b"/>
          </g>
        </g>
      </g>
    </g>
  </g>
</svg>
