<svg xmlns="http://www.w3.org/2000/svg" width="166.458" height="164.775" viewBox="0 0 166.458 164.775">
  <g id="transporte" transform="translate(-826 -3618)">
    <g id="Grupo_1842" data-name="Grupo 1842" transform="translate(-51 -1252)">
      <g id="Grupo_1821" data-name="Grupo 1821" transform="translate(44 49)">
        <g id="Grupo_1818" data-name="Grupo 1818" transform="translate(-44)">
          <g id="Grupo_1800" data-name="Grupo 1800" transform="translate(877 4821)">
            <g id="Grupo_936" data-name="Grupo 936" transform="translate(0 0)">
              <g id="Grupo_282" data-name="Grupo 282" transform="translate(0 0)">
                <path id="Trazado_498" data-name="Trazado 498" d="M83.229,0c45.966,0,83.229,36.886,83.229,82.388s-37.263,82.388-83.229,82.388S0,127.89,0,82.388,37.263,0,83.229,0Z" fill="#d8e500"/>
                <g id="Grupo_941" data-name="Grupo 941" transform="translate(24.973 29.081)">
                  <g id="Grupo_934" data-name="Grupo 934">
                    <g id="Grupo_933" data-name="Grupo 933">
                      <path id="Trazado_731" data-name="Trazado 731" d="M1364.774,360.818v-2.781a1.337,1.337,0,1,0-2.673,0v2.781a1.337,1.337,0,1,0,2.673,0Z" transform="translate(-1339.352 -279.788)" fill="#d8e500"/>
                      <path id="Trazado_732" data-name="Trazado 732" d="M1395.7,360.818a1.337,1.337,0,1,0,2.673,0v-2.781a1.337,1.337,0,1,0-2.673,0Z" transform="translate(-1365.707 -279.788)" fill="#d8e500"/>
                      <path id="Trazado_733" data-name="Trazado 733" d="M1336.181,410.468h0a1.314,1.314,0,0,0-1.165-.668,1.541,1.541,0,0,0-.668.172,1.32,1.32,0,0,0-.5,1.811,9.172,9.172,0,0,0,7.978,4.571h.065a1.346,1.346,0,0,0,1.337-1.272,1.33,1.33,0,0,0-1.272-1.4A6.5,6.5,0,0,1,1336.181,410.468Z" transform="translate(-1317.055 -321.438)" fill="#d8e500"/>
                      <path id="Trazado_734" data-name="Trazado 734" d="M1302.937,255.7h-26.91a15.975,15.975,0,0,0-15.956,15.956,1.337,1.337,0,0,0,2.674,0,13.3,13.3,0,0,1,13.282-13.282h25.508l-.043.367a13.3,13.3,0,0,1-13.174,11.6H1273.03a1.343,1.343,0,0,0-1.337,1.337v1.358a4.507,4.507,0,0,1-3.881,4.463l-.129.022-.108-.086a6.779,6.779,0,0,0-4.226-1.488,6.663,6.663,0,0,0-2.415.453,6.819,6.819,0,0,0-2.35,1.531,6.767,6.767,0,0,0,0,9.574,6.415,6.415,0,0,0,1.66,1.207l.129.065.022.151a18.176,18.176,0,0,0,36.03-3.407v-9.466a1.337,1.337,0,0,0-2.674,0v9.466a15.5,15.5,0,0,1-30.855,2.135,1.34,1.34,0,0,0-.884-1.078,4.49,4.49,0,0,1-1.552-.97,4.061,4.061,0,0,1,0-5.779,3.874,3.874,0,0,1,1.423-.927,4.079,4.079,0,0,1,4.356.927,1.382,1.382,0,0,0,1.013.41,7.181,7.181,0,0,0,7.115-6.9l.022-.3h13.929a15.975,15.975,0,0,0,15.956-15.956A1.353,1.353,0,0,0,1302.937,255.7Z" transform="translate(-1256.6 -200.566)" fill="#d8e500"/>
                      <path id="Trazado_735" data-name="Trazado 735" d="M1348.5,74.945a1.343,1.343,0,0,0-1.337,1.337,3.423,3.423,0,0,1-3.428,3.428h-10.414a1.341,1.341,0,0,0-.992.453l-5.369,6.016v-5.11a1.344,1.344,0,0,0-1.337-1.337H1302.2a3.423,3.423,0,0,1-3.428-3.428v-21a3.423,3.423,0,0,1,3.428-3.428h31.718a1.337,1.337,0,0,0,0-2.674H1302.2a6.11,6.11,0,0,0-6.1,6.1v20.98a6.11,6.11,0,0,0,6.1,6.1h22.08v7.288a1.33,1.33,0,0,0,2.329.884l7.288-8.172h9.832a6.11,6.11,0,0,0,6.1-6.1A1.344,1.344,0,0,0,1348.5,74.945Z" transform="translate(-1287.583 -38.591)" fill="#d8e500"/>
                      <path id="Trazado_736" data-name="Trazado 736" d="M1497.6,33.184h9.832l7.288,8.172a1.349,1.349,0,0,0,1.466.367,1.332,1.332,0,0,0,.863-1.251V33.184h22.08a6.11,6.11,0,0,0,6.1-6.1V6.1a6.11,6.11,0,0,0-6.1-6.1h-3.774a1.337,1.337,0,0,0,0,2.674h3.774a3.423,3.423,0,0,1,3.428,3.428v20.98a3.423,3.423,0,0,1-3.428,3.428h-23.417a1.343,1.343,0,0,0-1.337,1.337v5.11l-5.369-6.016a1.377,1.377,0,0,0-.992-.453H1497.6a3.423,3.423,0,0,1-3.428-3.428V6.1a3.423,3.423,0,0,1,3.428-3.428h32.451a1.337,1.337,0,0,0,0-2.674H1497.6a6.11,6.11,0,0,0-6.1,6.1v20.98A6.11,6.11,0,0,0,1497.6,33.184Z" transform="translate(-1440.851)" fill="#d8e500"/>
                      <path id="Trazado_737" data-name="Trazado 737" d="M1621.631,39h-18.694a1.337,1.337,0,1,0,0,2.674h18.694a1.337,1.337,0,1,0,0-2.674Z" transform="translate(-1527.211 -30.591)" fill="#d8e500"/>
                      <path id="Trazado_738" data-name="Trazado 738" d="M1532.837,41.574h9.6a1.337,1.337,0,1,0,0-2.674h-9.6a1.344,1.344,0,0,0-1.337,1.337A1.33,1.33,0,0,0,1532.837,41.574Z" transform="translate(-1472.226 -30.512)" fill="#d8e500"/>
                      <path id="Trazado_739" data-name="Trazado 739" d="M1668.694,70.5h-5.757a1.337,1.337,0,0,0,0,2.674h5.757a1.337,1.337,0,1,0,0-2.674Z" transform="translate(-1574.274 -55.299)" fill="#d8e500"/>
                      <path id="Trazado_740" data-name="Trazado 740" d="M1532.837,73.174h22.532a1.337,1.337,0,0,0,0-2.674h-22.532a1.344,1.344,0,0,0-1.337,1.337A1.33,1.33,0,0,0,1532.837,73.174Z" transform="translate(-1472.226 -55.299)" fill="#d8e500"/>
                      <path id="Trazado_741" data-name="Trazado 741" d="M1532.837,104.674h23.524a1.337,1.337,0,0,0,0-2.674h-23.524a1.344,1.344,0,0,0-1.337,1.337A1.33,1.33,0,0,0,1532.837,104.674Z" transform="translate(-1472.226 -80.007)" fill="#d8e500"/>
                      <path id="Trazado_742" data-name="Trazado 742" d="M1334.937,87.774h9.6a1.337,1.337,0,0,0,0-2.674h-9.6a1.337,1.337,0,0,0,0,2.674Z" transform="translate(-1316.997 -66.751)" fill="#d8e500"/>
                      <path id="Trazado_743" data-name="Trazado 743" d="M1421.269,86.437a1.344,1.344,0,0,0-1.337-1.337h-9.6a1.337,1.337,0,0,0,0,2.674h9.6A1.344,1.344,0,0,0,1421.269,86.437Z" transform="translate(-1376.139 -66.751)" fill="#d8e500"/>
                      <path id="Trazado_744" data-name="Trazado 744" d="M1333.6,117.937a1.344,1.344,0,0,0,1.337,1.337H1364a1.337,1.337,0,1,0,0-2.674h-29.066A1.344,1.344,0,0,0,1333.6,117.937Z" transform="translate(-1316.997 -91.459)" fill="#d8e500"/>
                      <path id="Trazado_745" data-name="Trazado 745" d="M1382.537,148.2a1.337,1.337,0,1,0,0,2.674H1395.8a1.337,1.337,0,0,0,0-2.674Z" transform="translate(-1354.333 -116.245)" fill="#d8e500"/>
                      <path id="Trazado_746" data-name="Trazado 746" d="M1333.6,149.437a1.344,1.344,0,0,0,1.337,1.337h4.744a1.337,1.337,0,0,0,0-2.674h-4.744A1.358,1.358,0,0,0,1333.6,149.437Z" transform="translate(-1316.997 -116.166)" fill="#d8e500"/>
                      <path id="Trazado_747" data-name="Trazado 747" d="M1625.373,336.3v-2.566a1.337,1.337,0,1,0-2.674,0V336.3a1.337,1.337,0,1,0,2.674,0Z" transform="translate(-1543.761 -260.727)" fill="#d8e500"/>
                      <path id="Trazado_748" data-name="Trazado 748" d="M1594.373,336.3v-2.566a1.337,1.337,0,1,0-2.674,0V336.3a1.337,1.337,0,1,0,2.674,0Z" transform="translate(-1519.445 -260.727)" fill="#d8e500"/>
                      <path id="Trazado_749" data-name="Trazado 749" d="M1620.893,387.753a8.61,8.61,0,0,0,7.439-4.269,1.31,1.31,0,0,0-.5-1.811,1.376,1.376,0,0,0-1.013-.129,1.292,1.292,0,0,0-.8.625,5.985,5.985,0,0,1-5.261,2.932,1.343,1.343,0,0,0-.927.431,1.328,1.328,0,0,0,1.057,2.221Z" transform="translate(-1541.243 -299.24)" fill="#d8e500"/>
                      <path id="Trazado_750" data-name="Trazado 750" d="M1700.3,279.187c-1.035-7.374-3.558-12.635-7.719-16.107a1.334,1.334,0,0,0-1.876.172,1.254,1.254,0,0,0-.3.97,1.3,1.3,0,0,0,.474.906c3.622,3.04,5.843,7.762,6.792,14.447,1.962,13.951-3.968,26.284-5.822,29.734l-.173.3-.3-.194a13.964,13.964,0,0,1-5.886-7.5,1.3,1.3,0,0,0-.647-.776,1.253,1.253,0,0,0-.6-.151,1.354,1.354,0,0,0-.41.065,1.3,1.3,0,0,0-.776.647,1.278,1.278,0,0,0-.086,1.013,16.553,16.553,0,0,0,8.733,9.9,1.387,1.387,0,0,0,.517.108,1.349,1.349,0,0,0,1.143-.647C1697.859,304.371,1702.064,291.714,1700.3,279.187Z" transform="translate(-1590.976 -206.113)" fill="#d8e500"/>
                      <path id="Trazado_751" data-name="Trazado 751" d="M1596.695,264.155a6.383,6.383,0,0,0-4.054-5.93,6.431,6.431,0,0,0-4.075-.173l-.41.129v-2.07a1.34,1.34,0,0,0-1.79-1.272c-.086.022-8.8,3.062-14.6-4.506a1.339,1.339,0,0,0-2.005-.129c-1.38,1.38-4.679,1.984-7.31,2.07h-.28l-.043-.28a8.486,8.486,0,0,1,1.359-6.706c1.79-2.329,5.132-3.515,9.961-3.515,5.434,0,11.147.151,15.87,2.005a1.275,1.275,0,0,0,1.014-.022,1.39,1.39,0,0,0,.711-.733,1.275,1.275,0,0,0-.021-1.013,1.39,1.39,0,0,0-.733-.712c-5.175-2.027-11.148-2.2-16.84-2.2s-9.768,1.531-12.075,4.55c-2.868,3.752-2.027,8.431-1.531,10.285a1.339,1.339,0,0,0,1.251.992c.582.022,5.843.151,9.229-1.833l.216-.129.173.194a15.174,15.174,0,0,0,10.436,4.916,17.721,17.721,0,0,0,3.989-.237l.388-.065v2.782a1.306,1.306,0,0,0,.841,1.229,1.337,1.337,0,0,0,1.445-.3,3.676,3.676,0,0,1,3.924-.819,3.283,3.283,0,0,1,1.272.841,3.644,3.644,0,0,1,0,5.175,3.882,3.882,0,0,1-1.38.884,1.34,1.34,0,0,0-.884,1.078A14.19,14.19,0,0,1,1562.5,266.7v-7.5a1.337,1.337,0,0,0-2.674,0v7.5a16.865,16.865,0,0,0,33.421,3.213l.021-.151.129-.065a6.312,6.312,0,0,0,3.3-5.541Z" transform="translate(-1494.059 -187.545)" fill="#d8e500"/>
                    </g>
                  </g>
                </g>
              </g>
            </g>
          </g>
          <g id="Grupo_1891" data-name="Grupo 1891" transform="translate(754.291 4404.221)">
            <g id="Grupo_1237" data-name="Grupo 1237" transform="translate(157 451)">
              <path id="Trazado_1658" data-name="Trazado 1658" d="M635.323,68.339c0-3.219-.418-3.833-3.367-5.087l-.147-.074V56.667a5.149,5.149,0,0,0-4.62-5.308c-.516-.074-1.081-.074-1.6-.1-.516,0-1.057-.025-1.573-.074a1.759,1.759,0,0,1-1.278-.811c-1.99-4.472-5.431-6.708-10.517-6.856-.835-.025-1.622-.025-2.482,0h-1.4l-.049-.688c-.025-.246-.049-.467-.049-.663-.123-1.917-.762-2.506-2.7-2.506h-3.809c-3.145,0-3.367.221-3.612,3.366a.437.437,0,0,1-.1.246c-.025.025-.025.049-.049.1l-.074.147H575.292V41.8a2.033,2.033,0,0,0-2.089-2.113c-1.966-.049-3.956-.049-5.9,0a1.944,1.944,0,0,0-2.015,2.138v1.745h-1.745c-1.032,0-1.99-.025-2.949.025-4.251.172-7.4,2.04-9.117,5.431-1.008,1.99-2.187,2.629-4.177,2.31h-.074c-3.514.025-5.627,2.138-5.6,5.676v6.242l-.172.049c-2.334.811-3.244,1.769-3.268,3.391-.049,3.588-.049,6.9,0,10.2a3.1,3.1,0,0,0,2.924,3.1,28.933,28.933,0,0,0,4.128,0,3.026,3.026,0,0,0,2.924-3.072c.049-3.244.049-6.561,0-10.2a3.113,3.113,0,0,0-2.678-3.1,6.144,6.144,0,0,0-.713-.123l-.369-.074-.2-.025V61.139c0-1.6-.025-3.244.025-4.865a2.43,2.43,0,0,1,2.384-2.359c.369-.025.762-.025,1.155-.025h2.236V71.116c0,13.441,0,27.35-.025,41.037,0,4.743,1.794,8.134,5.529,10.37a1.71,1.71,0,0,1,.688,1.253c.049,1.4.1,3.244.025,5.062a6.387,6.387,0,0,0,2.064,5.283,7.263,7.263,0,0,0,6.364,1.229,5.831,5.831,0,0,0,4.644-5.9c.025-1.2.025-2.408,0-3.588v-1.843H604.19v.246c0,.516,0,1.007-.025,1.524-.025,1.179-.025,2.31.049,3.416a8.213,8.213,0,0,0,.639,2.973c1.081,2.261,3.022,3.367,5.9,3.317,4.055-.049,6.414-2.359,6.487-6.34a6.448,6.448,0,0,1,.025-.688,27.093,27.093,0,0,0-.025-2.826,3.848,3.848,0,0,1,1.917-4.005c2.9-1.966,4.349-5.087,4.349-9.264-.025-13.884,0-27.989,0-41.651V53.89h1.327c.713,0,1.4-.025,2.089.025A2.223,2.223,0,0,1,629.2,55.9c.1,1.745.074,3.514.074,5.209,0,.688-.025,1.4-.025,2.089v.221l-.221.025c-2.58.393-3.71,1.4-3.735,3.366-.049,3.317-.049,6.684,0,10.075a3.081,3.081,0,0,0,2.9,3.121,24.747,24.747,0,0,0,3.145.1c2.752-.074,3.981-1.352,4.005-4.128.025-1.769,0-3.588,0-5.308C635.323,69.862,635.323,69.1,635.323,68.339Zm-90.158-1.966c.516.467.516,1.376.516,3.17V71.46c0,1.573,0,3.219.025,4.816a1.527,1.527,0,0,1-.319,1.106,1.592,1.592,0,0,1-1.13.369h-.909c-1.106,0-1.745-.074-2.113-.442-.467-.467-.467-1.3-.467-2.973V70.526c0-1.032,0-2.113-.025-3.17-.025-.835.344-1.229,1.229-1.278h.049C543.765,65.955,544.65,65.906,545.166,66.373ZM600.8,42.709a.653.653,0,0,0,.148-.123.884.884,0,0,1,.516-.319c1.13-.025,2.285-.025,3.44,0,.221,0,.369.172.516.295a.65.65,0,0,0,.147.123l.246.2-.246.2-.147.147a.944.944,0,0,1-.541.319,6.907,6.907,0,0,1-.713.025h-1.4a10.669,10.669,0,0,1-1.253-.025.944.944,0,0,1-.541-.319l-.147-.147-.246-.2Zm-32.9.049c.049-.049.074-.1.123-.147a.73.73,0,0,1,.491-.319c1.253-.049,2.359-.049,3.416,0,.221,0,.393.2.541.369.049.049.1.123.147.172l.221.221-.27.172c-.049.025-.1.074-.147.1a.788.788,0,0,1-.491.246c-.246.025-.516.025-.762.025h-1.425c-.418,0-.835,0-1.253-.025a.826.826,0,0,1-.491-.319c-.049-.049-.074-.1-.123-.123l-.2-.172ZM552.513,54.652A8.147,8.147,0,0,1,560.99,46.1c15.481-.025,32.289-.025,51.357,0a8.2,8.2,0,0,1,8.551,8.6V81.485c0,5.48-3.342,8.92-8.723,8.969-3.391.025-6.831.049-10.222.049H587.111a1.2,1.2,0,0,1-1.376-1.106c-1.352-5.8-5.775-9.485-11.525-9.583h-.27a11.766,11.766,0,0,0-11.549,9.117l-.221.885-.147.639h-.2a9.137,9.137,0,0,1-6.831-2.334,8.643,8.643,0,0,1-2.507-6.438C552.513,72.664,552.513,63.67,552.513,54.652Zm30.716,35.754H564.9V90.16a6.773,6.773,0,0,1,2.064-4.767,10.053,10.053,0,0,1,6.93-3.1h.2c4.693,0,8.994,3.686,9.116,7.863Zm-16.538,39.562c-.172,1.966-1.622,3.072-4.005,3.072h-.27c-2.212-.074-3.563-1.3-3.661-3.317-.049-1.3-.049-2.629-.024-3.907v-1.868h7.986v.246c0,.614,0,1.229.025,1.818C566.765,127.387,566.79,128.665,566.691,129.968Zm47.991-.295c-.1,2.089-1.45,3.293-3.76,3.366h-.172c-2.408,0-3.883-1.155-4.03-3.17-.1-1.278-.074-2.531-.049-3.858,0-.59.025-1.2.025-1.818v-.246h8.011v1.892C614.731,127.117,614.731,128.395,614.682,129.673Zm6.217-16.882a8.086,8.086,0,0,1-6.094,8.281,9.79,9.79,0,0,1-2.6.27c-2.138.025-4.3.025-6.389.025h-3.563c-5.48,0-10.959.025-16.439.025-8.035.025-16.046.025-24.081.049H561.7c-4.153,0-6.88-1.6-8.379-4.865a7.938,7.938,0,0,1-.737-3.17c-.049-6.02-.049-12.139-.049-18.037V90.454a2.184,2.184,0,0,1,.049-.369c.025-.074.025-.172.049-.295l.074-.467.344.344a10.309,10.309,0,0,0,6.364,3.244,23.983,23.983,0,0,0,2.556.123h15.211c10.714,0,21.821,0,32.707.025,4.079.025,7.691-.246,10.542-3.489l.393-.442.025.59c.025.221.025.393.049.565.025.27.025.491.025.688V96.18C620.924,101.611,620.924,107.238,620.9,112.791Zm11.549-35.385a1.642,1.642,0,0,1-1.2.369h-.172c-3.195-.025-3.317-.147-3.317-3.366V70.624c0-1.057.025-2.138-.024-3.194a1.308,1.308,0,0,1,.319-1.032,1.369,1.369,0,0,1,1.032-.319h1.524c1.057,0,1.573-.025,1.892.295s.295.835.295,1.868v1.327c.024,1.057,0,2.113,0,3.145v3.465A1.711,1.711,0,0,1,632.448,77.406Z" transform="translate(-538.15 -39.65)" fill="#31404b"/>
              <path id="Trazado_1659" data-name="Trazado 1659" d="M698.353,300.7H667.539c-1.3,0-1.646.344-1.7,1.671q-.037,1.143,0,2.285v.295c.025,3.661,2.212,6,5.676,6.094,4.521.123,9.117.123,13.589.123h5.037c1.5,0,3.047,0,4.546-.1a5.78,5.78,0,0,0,5.553-6.02v-2.457C700.2,301.044,699.852,300.7,698.353,300.7Zm-1.45,6.684c-.713.811-1.892,1.2-3.637,1.2H672.773a7.55,7.55,0,0,1-1.646-.123c-2.285-.565-3-1.917-2.6-4.988l.025-.221h29.021l.025.221C697.837,305.3,697.616,306.573,696.9,307.384Z" transform="translate(-634.452 -236.552)" fill="#31404b"/>
              <path id="Trazado_1660" data-name="Trazado 1660" d="M819.03,299.9h-.074a5.407,5.407,0,0,0-5.357,5.529,5.293,5.293,0,0,0,5.431,5.283,5.38,5.38,0,0,0,5.381-5.382,5.474,5.474,0,0,0-1.646-3.882A5.39,5.39,0,0,0,819.03,299.9Zm1.99,7.519a2.907,2.907,0,0,1-2.015.811h-.025a2.9,2.9,0,0,1-1.99-4.964,2.8,2.8,0,0,1,2.015-.811h.025a2.884,2.884,0,0,1,2.85,2.924A3.014,3.014,0,0,1,821.021,307.419Z" transform="translate(-745.913 -235.949)" fill="#31404b"/>
              <path id="Trazado_1661" data-name="Trazado 1661" d="M619.4,299.9h0a5.321,5.321,0,0,0-3.833,1.646,5.386,5.386,0,0,0,3.833,9.19h.024a5.234,5.234,0,0,0,3.809-1.6,5.518,5.518,0,0,0,1.548-3.907A5.385,5.385,0,0,0,619.4,299.9Zm.049,8.33H619.4a2.888,2.888,0,0,1-.049-5.775,2.877,2.877,0,0,1,2.064.835,2.751,2.751,0,0,1,.86,2.015A2.879,2.879,0,0,1,619.453,308.23Z" transform="translate(-595.359 -235.949)" fill="#31404b"/>
            </g>
          </g>
        </g>
      </g>
    </g>
  </g>
</svg>
