<svg xmlns="http://www.w3.org/2000/svg" width="32.953" height="31.433" viewBox="0 0 32.953 31.433">
  <path id="sstar" d="M17.325.526l4.361,8.835a.944.944,0,0,0,.711.516l9.75,1.417a.944.944,0,0,1,.523,1.61l-7.056,6.877a.944.944,0,0,0-.272.835l1.666,9.711a.944.944,0,0,1-1.369.995l-8.721-4.585a.944.944,0,0,0-.878,0L7.319,31.322a.943.943,0,0,1-1.369-.995l1.666-9.711a.944.944,0,0,0-.272-.835L.288,12.9a.944.944,0,0,1,.523-1.61l9.75-1.417a.944.944,0,0,0,.711-.516L15.632.526A.944.944,0,0,1,17.325.526Z" transform="translate(-0.002)" fill="#fea905"/>
</svg>
