<svg xmlns="http://www.w3.org/2000/svg" width="170" height="170" viewBox="0 0 170 170">
  <g id="creación_tarifas" data-name="creación tarifas" transform="translate(-1450 -1512)">
    <circle id="Elipse_33" data-name="Elipse 33" cx="85" cy="85" r="85" transform="translate(1450 1512)" fill="#fff"/>
    <g id="Grupo_881" data-name="Grupo 881" transform="translate(1483.208 1543.466)">
      <path id="Trazado_675" data-name="Trazado 675" d="M385.471,246.232a1.788,1.788,0,0,0-.382-1.1c-2.4-2.479-5.018-5.1-7.994-8.02-.561-.55-.9-.542-1.524.038-.8.742-1.73,1.632-2.6,2.6a4.151,4.151,0,0,0-.489,5.044c.1.183.206.37.3.55l.384.706-.4.363c-3.2,2.913-3,4.831-1.522,7.353l.261.444-.353.374-.219.235-.014.015c-.177.192-.36.389-.559.585a5.109,5.109,0,0,0-1.824,3.542,5.2,5.2,0,0,0,1.867,3.588c.507.5,1.017.991,1.569,1.528l2.1,2.038h-9.853v-.686q0-1.119.007-2.217v-.093c.007-1.732.014-3.357-.015-5.011a5.037,5.037,0,0,0-4.994-5h-.045a5.056,5.056,0,0,0-5.044,5.011c-.007.295-.015.588-.026.883a23.644,23.644,0,0,0,.043,3.235,5.573,5.573,0,0,1-2.162,5.412,3,3,0,0,0-1.176,2.882,2.58,2.58,0,0,1-.723,1.848c-.732.765-1.49,1.522-2.225,2.253l-.015.015c-.974.97-1.973,1.966-2.908,2.98a2.617,2.617,0,0,0-.61,1.505c-.062,1.98-.05,4-.039,5.952v.091c0,.706.009,1.413.009,2.119v1.828l-1.308,0c-.091,0-.173,0-.257,0-1.548.017-1.708.18-1.709,1.752l0,2.671c0,3.033-.007,6.17,0,9.254,0,1.025.3,1.322,1.31,1.323,10.9.009,21.678.009,32.042,0,1.006,0,1.3-.3,1.3-1.33.012-4.257.01-8.424-.005-12.39,0-.96-.295-1.258-1.25-1.274-1.041-.017-2.08-.012-3.086-.009-.465,0-.931,0-1.406,0h-.6l-.077-.6c-.5-3.9-.358-4.344,2.162-6.871q1.921-1.924,3.847-3.844c3-2.99,6.093-6.081,9.105-9.155a3.415,3.415,0,0,0,1.078-1.86c.1-6.71.077-13.285.036-20.567Zm-12.9,3.345a4.574,4.574,0,0,1,1.144-1.332c.156-.139.317-.283.456-.427l.4-.406.473.314a3.8,3.8,0,0,1,2.025,3.851,14.028,14.028,0,0,0-.043,2.14c.01.381.022.773.022,1.193v1.646l-1.169-1.159c-.327-.324-.651-.634-.967-.934l-.024-.022a24.1,24.1,0,0,1-2.253-2.35A2.679,2.679,0,0,1,372.567,249.576Zm.759,13.22c-.651-.657-1.269-1.279-1.862-1.9-1.33-1.385-1.339-2.422-.029-3.832.213-.23.422-.478.665-.766.132-.158.271-.322.427-.5l.492-.574.523.543c.324.336.653.657.972.965a14.1,14.1,0,0,1,2.076,2.326,3.738,3.738,0,0,1,.127,2.9,3.1,3.1,0,0,1-.89,1.344c-.151.159-.3.322-.437.49l-.482.6-.542-.55C373.995,263.47,373.65,263.123,373.326,262.8Zm.355,28.21v11.15H343.019v-11.1H362.64v-.051h11.041Zm9.877-25.289a3.1,3.1,0,0,1-.905,1.953c-4.913,4.967-9.357,9.446-13.984,13.974a3.82,3.82,0,0,0-1.483,3.394,14.73,14.73,0,0,1,.051,2.29c-.01.346-.021.7-.021,1.07v.686h-1.227v.094H346.2v-.686c0-.7.012-1.4.022-2.068V286.4c.026-1.555.05-3.022-.058-4.485a5.2,5.2,0,0,1,2.167-5.032,4.857,4.857,0,0,0,.73-.749c.161-.189.345-.4.562-.638l1.188-1.279v3.645h1.944q0-.609,0-1.219v-.194c.007-1.733.012-3.509-.022-5.246a3.04,3.04,0,0,1,1.111-2.719,5.7,5.7,0,0,0,2.21-5.735,21.688,21.688,0,0,1-.06-3.365c.012-.351.024-.7.031-1.053a3.175,3.175,0,0,1,3.076-3.309,3.012,3.012,0,0,1,2.2.854,3.461,3.461,0,0,1,.991,2.5c.014,3.348.012,6.727.01,9.993v.49q0,1.715,0,3.432v.657h1.872v-4.836h.686q.831,0,1.637,0h.074c1.149,0,2.234.007,3.338-.007.706-.007,1.277,0,1.694,0a6.063,6.063,0,0,0,1.721-.1,3.956,3.956,0,0,0,1.126-.9c.384-.363.861-.813,1.538-1.4,2.409-2.1,3.314-4.224,3.024-7.1a46.466,46.466,0,0,1-.115-5.519c.022-1.123.045-2.28.014-3.41a2.68,2.68,0,0,0-.614-1.528c-.681-.789-1.45-1.541-2.194-2.27l-.012-.012c-.4-.386-.8-.787-1.2-1.191-1.552-1.591-1.553-2.529,0-4.181a3.716,3.716,0,0,0,.413-.614c.1-.163.182-.31.285-.468l.461-.717.6.605c.442.444.873.878,1.3,1.3l.293.293c1.687,1.692,3.28,3.29,4.847,4.912a2.305,2.305,0,0,1,.492,1.538C383.594,253.521,383.606,259.568,383.558,265.717Z" transform="translate(-282.547 -196.127)" fill="#ff7060"/>
      <path id="Trazado_676" data-name="Trazado 676" d="M44.486,290.863c0-1.57-.161-1.735-1.709-1.752-.132,0-.264,0-.43,0H41.211v-1.828c0-.737.005-1.474.009-2.21.012-1.953.022-3.972-.039-5.952a2.61,2.61,0,0,0-.61-1.505c-.939-1.017-1.941-2.014-2.908-2.98-.739-.735-1.5-1.5-2.241-2.27a2.58,2.58,0,0,1-.723-1.848,3,3,0,0,0-1.176-2.882,5.575,5.575,0,0,1-2.162-5.414,23.622,23.622,0,0,0,.043-3.233c-.01-.3-.019-.59-.026-.885a5.041,5.041,0,0,0-10.082-.012c-.029,1.654-.022,3.28-.015,5,0,.773.007,1.543.007,2.32v.686H11.436l2.083-2.026c.557-.542,1.071-1.041,1.582-1.54a5.2,5.2,0,0,0,1.867-3.588,5.116,5.116,0,0,0-1.824-3.542c-.2-.2-.394-.406-.562-.59-.077-.084-.154-.166-.23-.245L14,254.192l.261-.444c1.48-2.522,1.675-4.44-1.522-7.353l-.4-.363.384-.7c.1-.183.2-.369.3-.55a4.152,4.152,0,0,0-.489-5.044c-.876-.97-1.807-1.86-2.6-2.6-.621-.579-.963-.588-1.524-.038-2.981,2.923-5.6,5.546-8,8.023a1.8,1.8,0,0,0-.382,1.1c-.039,7.278-.065,13.847.033,20.566a3.4,3.4,0,0,0,1.078,1.86c3.014,3.074,6.112,6.167,9.107,9.157l.063.063q1.893,1.89,3.784,3.78c2.522,2.525,2.662,2.976,2.162,6.871l-.077.6h-.6q-.71,0-1.4,0c-.461,0-.91,0-1.354,0-.674,0-1.224,0-1.73.012-.953.015-1.245.312-1.25,1.274-.015,3.969-.017,8.138-.005,12.39,0,1.032.295,1.33,1.3,1.33,10.363.009,21.144.009,32.042,0,1.013,0,1.306-.3,1.31-1.324.01-3.055.007-6.163,0-9.169ZM13.4,256.277c.247.293.456.543.672.775,1.31,1.408,1.3,2.446-.029,3.832-.578.6-1.159,1.188-1.833,1.867l-.1.1c-.3.305-.622.629-.967.977l-.542.55-.482-.6c-.135-.17-.29-.333-.437-.49a3.1,3.1,0,0,1-.89-1.344,3.737,3.737,0,0,1,.127-2.9,14.166,14.166,0,0,1,2.076-2.325c.319-.309.648-.629.972-.965l.525-.543.49.573Zm-1.6-8.051a4.548,4.548,0,0,1,1.143,1.332,2.674,2.674,0,0,1-.062,2.512,24.073,24.073,0,0,1-2.251,2.35c-.327.312-.658.627-.991.958l-1.169,1.159v-1.646c0-.417.01-.809.022-1.188a13.853,13.853,0,0,0-.043-2.145,3.8,3.8,0,0,1,2.025-3.851l.473-.314.4.406c.137.141.29.278.453.423l-.111.13ZM2.85,267.652a3.1,3.1,0,0,1-.905-1.953c-.048-6.151-.036-12.2-.019-18.365a2.305,2.305,0,0,1,.492-1.538c1.553-1.606,3.146-3.206,4.833-4.9l.051-.051,1.553-1.558.6-.6.461.717c.106.165.2.321.285.468a3.573,3.573,0,0,0,.413.614c1.548,1.654,1.548,2.592-.005,4.181-.393.4-.8.8-1.193,1.185l-.019.017c-.746.729-1.516,1.483-2.2,2.272a2.68,2.68,0,0,0-.614,1.528c-.031,1.128-.009,2.285.012,3.406a45.794,45.794,0,0,1-.115,5.522c-.29,2.872.614,4.994,3.024,7.1.681.595,1.157,1.044,1.538,1.4a3.956,3.956,0,0,0,1.126.9,6.075,6.075,0,0,0,1.709.1c.43,0,1-.007,1.706,0,1.125.012,2.234.009,3.406.007.543,0,1.089,0,1.642,0h.686v4.836h1.872v-.657q0-1.962,0-3.926c0-3.276-.005-6.66.01-9.99a3.461,3.461,0,0,1,.991-2.5,3,3,0,0,1,2.2-.854,3.174,3.174,0,0,1,3.074,3.309c.007.348.019.7.031,1.047a21.747,21.747,0,0,1-.06,3.37,5.7,5.7,0,0,0,2.21,5.735,3.032,3.032,0,0,1,1.111,2.719c-.034,1.744-.027,3.523-.022,5.246q0,.7,0,1.413h1.944V274.2l1.188,1.281c.216.233.4.446.561.634a4.824,4.824,0,0,0,.732.753,5.2,5.2,0,0,1,2.167,5.032c-.108,1.464-.084,2.932-.058,4.485.012.677.022,1.378.022,2.09v.686H19.516v-.094H18.288v-.686c0-.365-.01-.723-.021-1.07a14.313,14.313,0,0,1,.051-2.29,3.82,3.82,0,0,0-1.483-3.394C12.209,277.1,7.765,272.62,2.85,267.652ZM42.483,302.14H11.822V290.99H22.862v.051H42.483Z" transform="translate(0.005 -196.11)" fill="#ff7060"/>
      <path id="Trazado_677" data-name="Trazado 677" d="M166.873,0a27.6,27.6,0,1,0,27.6,27.6A27.635,27.635,0,0,0,166.873,0Zm0,53.148A25.545,25.545,0,1,1,192.419,27.6,25.575,25.575,0,0,1,166.873,53.148Z" transform="translate(-115.393 0)" fill="#ff7060"/>
      <circle id="Elipse_34" data-name="Elipse 34" cx="1.714" cy="1.714" r="1.714" transform="translate(36.051 98.749)" fill="#ff7060"/>
      <circle id="Elipse_35" data-name="Elipse 35" cx="1.714" cy="1.714" r="1.714" transform="translate(63.481 98.749)" fill="#ff7060"/>
      <g id="Grupo_880" data-name="Grupo 880" transform="translate(42.643 11.378)">
        <path id="Trazado_678" data-name="Trazado 678" d="M263.119,74.774q-.224-.144-.73-.555a9.782,9.782,0,0,0-1.246-.842,10.725,10.725,0,0,0-1.66-.77,5.663,5.663,0,0,0-1.985-.341,6.877,6.877,0,0,0-2.16.3,4.413,4.413,0,0,0-1.493.8,3.162,3.162,0,0,0-.866,1.128,3.1,3.1,0,0,0-.278,1.264,2.055,2.055,0,0,0,.588,1.493,5.112,5.112,0,0,0,1.557,1.049,15.922,15.922,0,0,0,2.2.8q1.232.357,2.51.754t2.51.89a9.51,9.51,0,0,1,2.2,1.222,5.834,5.834,0,0,1,1.557,1.747,4.85,4.85,0,0,1,.588,2.462,6.669,6.669,0,0,1-.579,2.8,6.822,6.822,0,0,1-1.6,2.215,8.276,8.276,0,0,1-2.414,1.533,10.216,10.216,0,0,1-3.026.746V95.6a.646.646,0,0,1-.73.73h-1.635q-.7,0-.7-.73V93.377a10.926,10.926,0,0,1-3.789-1.342,10.233,10.233,0,0,1-3.01-2.628.764.764,0,0,1-.19-.477.646.646,0,0,1,.269-.507l1.255-1.047a.78.78,0,0,1,.477-.207.362.362,0,0,1,.262.072,2.382,2.382,0,0,1,.247.214l.206.206a7.377,7.377,0,0,0,1.517,1.294,11.048,11.048,0,0,0,1.7.905,9.659,9.659,0,0,0,1.629.531,6.191,6.191,0,0,0,1.318.175,8.148,8.148,0,0,0,1.985-.254,6.47,6.47,0,0,0,1.858-.778,4.541,4.541,0,0,0,1.382-1.327,3.291,3.291,0,0,0,.54-1.882,2.288,2.288,0,0,0-.531-1.533,4.654,4.654,0,0,0-1.437-1.1,12.793,12.793,0,0,0-2.121-.842q-1.216-.373-2.6-.787a25.621,25.621,0,0,1-3.273-1.167,9.574,9.574,0,0,1-2.248-1.351,4.645,4.645,0,0,1-1.294-1.653,4.927,4.927,0,0,1-.413-2.057,6.123,6.123,0,0,1,.437-2.32,5.886,5.886,0,0,1,1.246-1.913,6.949,6.949,0,0,1,1.97-1.4,9.122,9.122,0,0,1,2.6-.787V67.069a.736.736,0,0,1,.175-.492.651.651,0,0,1,.525-.207h1.635a.756.756,0,0,1,.507.19.638.638,0,0,1,.223.507v2.3a10.84,10.84,0,0,1,1.819.422,12.078,12.078,0,0,1,1.762.723,10.545,10.545,0,0,1,1.6.993,8.728,8.728,0,0,1,1.3,1.2,1.042,1.042,0,0,1,.166.247.624.624,0,0,1,.055.262.694.694,0,0,1-.238.492l-1.128,1.08a.681.681,0,0,1-.492.223A.71.71,0,0,1,263.119,74.774Z" transform="translate(-248.73 -66.37)" fill="#ff7060"/>
      </g>
    </g>
  </g>
</svg>
