<svg xmlns="http://www.w3.org/2000/svg" width="117.821" height="117.821" viewBox="0 0 117.821 117.821">
  <g id="Grupo_2306" data-name="Grupo 2306" transform="translate(-6432 9393.395)">
    <circle id="Elipse_158" data-name="Elipse 158" cx="56.411" cy="56.411" r="56.411" transform="translate(6437 -9388.395)" fill="#39424c"/>
    <g id="Grupo_2284" data-name="Grupo 2284" transform="translate(12275.125 -16052.055)">
      <circle id="Elipse_155" data-name="Elipse 155" cx="56.411" cy="56.411" r="56.411" transform="translate(-5843.125 6658.66)" fill="#dae335"/>
      <g id="Grupo_2301" data-name="Grupo 2301" transform="translate(-5814.125 6682.819)">
        <path id="Trazado_1986" data-name="Trazado 1986" d="M-138.246,56.481c0,9.981-7.984,19.96-26.615,19.96-7.984,0-16.717-1.747-22.955-5.24l6.653-14.471a31.866,31.866,0,0,0,15.636,4.241c4.408,0,7.568-1.5,7.568-4.491,0-2.495-1.913-3.992-6.9-3.992h-7.734V40.429l8.566-8.733h-20.792v-14.8h43.414v12.06L-152.218,39.93C-143.069,42.176-138.246,48.414-138.246,56.481Z" transform="translate(192.082 -13.009)" fill="#fff"/>
        <path id="Trazado_1987" data-name="Trazado 1987" d="M-138.246,56.481c0,9.981-7.984,19.96-26.615,19.96-7.984,0-16.717-1.747-22.955-5.24l6.653-14.471a31.866,31.866,0,0,0,15.636,4.241c4.408,0,7.568-1.5,7.568-4.491,0-2.495-1.913-3.992-6.9-3.992h-7.734V40.429l8.566-8.733h-20.792v-14.8h43.414v12.06L-152.218,39.93C-143.069,42.176-138.246,48.414-138.246,56.481Z" transform="translate(187.815 -16.892)" fill="#39424c"/>
      </g>
    </g>
  </g>
</svg>
