<svg id="tiempo" xmlns="http://www.w3.org/2000/svg" width="20.491" height="20.492" viewBox="0 0 20.491 20.492">
  <g id="time">
    <g id="Grupo_29" data-name="Grupo 29">
      <path id="Trazado_13" data-name="Trazado 13" d="M3.074,3.074A9.3,9.3,0,0,1,10.246,0a9.3,9.3,0,0,1,7.172,3.074,9.3,9.3,0,0,1,3.074,7.172,9.3,9.3,0,0,1-3.074,7.172,9.3,9.3,0,0,1-7.172,3.074,9.3,9.3,0,0,1-7.172-3.074A10.225,10.225,0,0,1,0,10.246,9.3,9.3,0,0,1,3.074,3.074ZM14.856,14.856l1.2-1.2L11.783,9.392l-1.537-6.83H8.538v7.684a1.55,1.55,0,0,0,.512,1.2.6.6,0,0,0,.342.171Z" fill="#858585"/>
    </g>
  </g>
</svg>
