<svg xmlns="http://www.w3.org/2000/svg" width="16.172" height="13.54" viewBox="0 0 16.172 13.54">
  <path id="Trazado_1187" data-name="Trazado 1187" d="M65.072,3.092c-.564.188-1.316.376-1.88.564a3.755,3.755,0,0,0,1.5-1.88,6.736,6.736,0,0,1-2.068.752A3.73,3.73,0,0,0,60.183,1.4,3.371,3.371,0,0,0,56.8,4.785v.752a9.462,9.462,0,0,1-6.77-3.385,5.491,5.491,0,0,0-.376,1.692,3.316,3.316,0,0,0,1.5,2.821,3.543,3.543,0,0,1-1.5-.376h0a3.094,3.094,0,0,0,2.633,3.2,8.144,8.144,0,0,1-.94.188H50.78a3.219,3.219,0,0,0,3.009,2.257,6.571,6.571,0,0,1-4.137,1.5H48.9a9.383,9.383,0,0,0,14.48-7.9V5.161A13.716,13.716,0,0,0,65.072,3.092Z" transform="translate(-48.9 -1.4)" fill="#fff"/>
</svg>
