<svg xmlns="http://www.w3.org/2000/svg" width="117.821" height="117.821" viewBox="0 0 117.821 117.821">
  <g id="Grupo_2305" data-name="Grupo 2305" transform="translate(-5963 9393.395)">
    <g id="Grupo_2283" data-name="Grupo 2283" transform="translate(11806.125 -16052.055)">
      <circle id="Elipse_157" data-name="Elipse 157" cx="56.411" cy="56.411" r="56.411" transform="translate(-5838.125 6663.66)" fill="#39424c"/>
      <circle id="Elipse_155" data-name="Elipse 155" cx="56.411" cy="56.411" r="56.411" transform="translate(-5843.125 6658.66)" fill="#dae335"/>
      <g id="Grupo_2300" data-name="Grupo 2300" transform="translate(-5813.125 6682.544)">
        <g id="Grupo_1874" data-name="Grupo 1874" transform="translate(3.215 3.215)">
          <path id="Trazado_1984" data-name="Trazado 1984" d="M-226.853,58.664V73.8h-46.4V61.807l20.925-19.353c3.97-3.722,4.549-5.956,4.549-7.94,0-2.813-1.9-4.549-5.624-4.549a9.472,9.472,0,0,0-8.519,5.376l-14.722-7.361c4.218-7.94,12.572-13.4,25.061-13.4,13.729,0,23.406,7.113,23.406,18.113,0,5.707-1.489,10.834-9.925,18.444l-8.271,7.526Z" transform="translate(276.643 -14.581)" fill="#fff"/>
        </g>
        <path id="Trazado_2300" data-name="Trazado 2300" d="M-226.853,58.664V73.8h-46.4V61.807l20.925-19.353c3.97-3.722,4.549-5.956,4.549-7.94,0-2.813-1.9-4.549-5.624-4.549a9.472,9.472,0,0,0-8.519,5.376l-14.722-7.361c4.218-7.94,12.572-13.4,25.061-13.4,13.729,0,23.406,7.113,23.406,18.113,0,5.707-1.489,10.834-9.925,18.444l-8.271,7.526Z" transform="translate(276.643 -14.581)" fill="#39424c"/>
      </g>
    </g>
  </g>
</svg>
