<svg xmlns="http://www.w3.org/2000/svg" width="166.458" height="164.775" viewBox="0 0 166.458 164.775">
  <g id="_Hora_de_tareas_en_el_colegio._" data-name=" Hora de tareas en el colegio.  " transform="translate(-250 -4821)">
    <g id="Grupo_1798" data-name="Grupo 1798" transform="translate(250 4821)">
      <g id="Grupo_936" data-name="Grupo 936" transform="translate(0 0)">
        <g id="Grupo_282" data-name="Grupo 282" transform="translate(0 0)">
          <path id="Trazado_498" data-name="Trazado 498" d="M83.229,0c45.966,0,83.229,36.886,83.229,82.388s-37.263,82.388-83.229,82.388S0,127.89,0,82.388,37.263,0,83.229,0Z" fill="#fff"/>
          <g id="Grupo_941" data-name="Grupo 941" transform="translate(24.973 29.081)">
            <g id="Grupo_934" data-name="Grupo 934">
              <g id="Grupo_933" data-name="Grupo 933">
                <path id="Trazado_731" data-name="Trazado 731" d="M1364.774,360.818v-2.781a1.337,1.337,0,1,0-2.673,0v2.781a1.337,1.337,0,1,0,2.673,0Z" transform="translate(-1339.352 -279.788)" fill="#fff"/>
                <path id="Trazado_732" data-name="Trazado 732" d="M1395.7,360.818a1.337,1.337,0,1,0,2.673,0v-2.781a1.337,1.337,0,1,0-2.673,0Z" transform="translate(-1365.707 -279.788)" fill="#fff"/>
                <path id="Trazado_733" data-name="Trazado 733" d="M1336.181,410.468h0a1.314,1.314,0,0,0-1.165-.668,1.541,1.541,0,0,0-.668.172,1.32,1.32,0,0,0-.5,1.811,9.172,9.172,0,0,0,7.978,4.571h.065a1.346,1.346,0,0,0,1.337-1.272,1.33,1.33,0,0,0-1.272-1.4A6.5,6.5,0,0,1,1336.181,410.468Z" transform="translate(-1317.055 -321.438)" fill="#fff"/>
                <path id="Trazado_734" data-name="Trazado 734" d="M1302.937,255.7h-26.91a15.975,15.975,0,0,0-15.956,15.956,1.337,1.337,0,0,0,2.674,0,13.3,13.3,0,0,1,13.282-13.282h25.508l-.043.367a13.3,13.3,0,0,1-13.174,11.6H1273.03a1.343,1.343,0,0,0-1.337,1.337v1.358a4.507,4.507,0,0,1-3.881,4.463l-.129.022-.108-.086a6.779,6.779,0,0,0-4.226-1.488,6.663,6.663,0,0,0-2.415.453,6.819,6.819,0,0,0-2.35,1.531,6.767,6.767,0,0,0,0,9.574,6.415,6.415,0,0,0,1.66,1.207l.129.065.022.151a18.176,18.176,0,0,0,36.03-3.407v-9.466a1.337,1.337,0,0,0-2.674,0v9.466a15.5,15.5,0,0,1-30.855,2.135,1.34,1.34,0,0,0-.884-1.078,4.49,4.49,0,0,1-1.552-.97,4.061,4.061,0,0,1,0-5.779,3.874,3.874,0,0,1,1.423-.927,4.079,4.079,0,0,1,4.356.927,1.382,1.382,0,0,0,1.013.41,7.181,7.181,0,0,0,7.115-6.9l.022-.3h13.929a15.975,15.975,0,0,0,15.956-15.956A1.353,1.353,0,0,0,1302.937,255.7Z" transform="translate(-1256.6 -200.566)" fill="#fff"/>
                <path id="Trazado_735" data-name="Trazado 735" d="M1348.5,74.945a1.343,1.343,0,0,0-1.337,1.337,3.423,3.423,0,0,1-3.428,3.428h-10.414a1.341,1.341,0,0,0-.992.453l-5.369,6.016v-5.11a1.344,1.344,0,0,0-1.337-1.337H1302.2a3.423,3.423,0,0,1-3.428-3.428v-21a3.423,3.423,0,0,1,3.428-3.428h31.718a1.337,1.337,0,0,0,0-2.674H1302.2a6.11,6.11,0,0,0-6.1,6.1v20.98a6.11,6.11,0,0,0,6.1,6.1h22.08v7.288a1.33,1.33,0,0,0,2.329.884l7.288-8.172h9.832a6.11,6.11,0,0,0,6.1-6.1A1.344,1.344,0,0,0,1348.5,74.945Z" transform="translate(-1287.583 -38.591)" fill="#fff"/>
                <path id="Trazado_736" data-name="Trazado 736" d="M1497.6,33.184h9.832l7.288,8.172a1.349,1.349,0,0,0,1.466.367,1.332,1.332,0,0,0,.863-1.251V33.184h22.08a6.11,6.11,0,0,0,6.1-6.1V6.1a6.11,6.11,0,0,0-6.1-6.1h-3.774a1.337,1.337,0,0,0,0,2.674h3.774a3.423,3.423,0,0,1,3.428,3.428v20.98a3.423,3.423,0,0,1-3.428,3.428h-23.417a1.343,1.343,0,0,0-1.337,1.337v5.11l-5.369-6.016a1.377,1.377,0,0,0-.992-.453H1497.6a3.423,3.423,0,0,1-3.428-3.428V6.1a3.423,3.423,0,0,1,3.428-3.428h32.451a1.337,1.337,0,0,0,0-2.674H1497.6a6.11,6.11,0,0,0-6.1,6.1v20.98A6.11,6.11,0,0,0,1497.6,33.184Z" transform="translate(-1440.851)" fill="#fff"/>
                <path id="Trazado_737" data-name="Trazado 737" d="M1621.631,39h-18.694a1.337,1.337,0,1,0,0,2.674h18.694a1.337,1.337,0,1,0,0-2.674Z" transform="translate(-1527.211 -30.591)" fill="#fff"/>
                <path id="Trazado_738" data-name="Trazado 738" d="M1532.837,41.574h9.6a1.337,1.337,0,1,0,0-2.674h-9.6a1.344,1.344,0,0,0-1.337,1.337A1.33,1.33,0,0,0,1532.837,41.574Z" transform="translate(-1472.226 -30.512)" fill="#fff"/>
                <path id="Trazado_739" data-name="Trazado 739" d="M1668.694,70.5h-5.757a1.337,1.337,0,0,0,0,2.674h5.757a1.337,1.337,0,1,0,0-2.674Z" transform="translate(-1574.274 -55.299)" fill="#fff"/>
                <path id="Trazado_740" data-name="Trazado 740" d="M1532.837,73.174h22.532a1.337,1.337,0,0,0,0-2.674h-22.532a1.344,1.344,0,0,0-1.337,1.337A1.33,1.33,0,0,0,1532.837,73.174Z" transform="translate(-1472.226 -55.299)" fill="#fff"/>
                <path id="Trazado_741" data-name="Trazado 741" d="M1532.837,104.674h23.524a1.337,1.337,0,0,0,0-2.674h-23.524a1.344,1.344,0,0,0-1.337,1.337A1.33,1.33,0,0,0,1532.837,104.674Z" transform="translate(-1472.226 -80.007)" fill="#fff"/>
                <path id="Trazado_742" data-name="Trazado 742" d="M1334.937,87.774h9.6a1.337,1.337,0,0,0,0-2.674h-9.6a1.337,1.337,0,0,0,0,2.674Z" transform="translate(-1316.997 -66.751)" fill="#fff"/>
                <path id="Trazado_743" data-name="Trazado 743" d="M1421.269,86.437a1.344,1.344,0,0,0-1.337-1.337h-9.6a1.337,1.337,0,0,0,0,2.674h9.6A1.344,1.344,0,0,0,1421.269,86.437Z" transform="translate(-1376.139 -66.751)" fill="#fff"/>
                <path id="Trazado_744" data-name="Trazado 744" d="M1333.6,117.937a1.344,1.344,0,0,0,1.337,1.337H1364a1.337,1.337,0,1,0,0-2.674h-29.066A1.344,1.344,0,0,0,1333.6,117.937Z" transform="translate(-1316.997 -91.459)" fill="#fff"/>
                <path id="Trazado_745" data-name="Trazado 745" d="M1382.537,148.2a1.337,1.337,0,1,0,0,2.674H1395.8a1.337,1.337,0,0,0,0-2.674Z" transform="translate(-1354.333 -116.245)" fill="#fff"/>
                <path id="Trazado_746" data-name="Trazado 746" d="M1333.6,149.437a1.344,1.344,0,0,0,1.337,1.337h4.744a1.337,1.337,0,0,0,0-2.674h-4.744A1.358,1.358,0,0,0,1333.6,149.437Z" transform="translate(-1316.997 -116.166)" fill="#fff"/>
                <path id="Trazado_747" data-name="Trazado 747" d="M1625.373,336.3v-2.566a1.337,1.337,0,1,0-2.674,0V336.3a1.337,1.337,0,1,0,2.674,0Z" transform="translate(-1543.761 -260.727)" fill="#fff"/>
                <path id="Trazado_748" data-name="Trazado 748" d="M1594.373,336.3v-2.566a1.337,1.337,0,1,0-2.674,0V336.3a1.337,1.337,0,1,0,2.674,0Z" transform="translate(-1519.445 -260.727)" fill="#fff"/>
                <path id="Trazado_749" data-name="Trazado 749" d="M1620.893,387.753a8.61,8.61,0,0,0,7.439-4.269,1.31,1.31,0,0,0-.5-1.811,1.376,1.376,0,0,0-1.013-.129,1.292,1.292,0,0,0-.8.625,5.985,5.985,0,0,1-5.261,2.932,1.343,1.343,0,0,0-.927.431,1.328,1.328,0,0,0,1.057,2.221Z" transform="translate(-1541.243 -299.24)" fill="#fff"/>
                <path id="Trazado_750" data-name="Trazado 750" d="M1700.3,279.187c-1.035-7.374-3.558-12.635-7.719-16.107a1.334,1.334,0,0,0-1.876.172,1.254,1.254,0,0,0-.3.97,1.3,1.3,0,0,0,.474.906c3.622,3.04,5.843,7.762,6.792,14.447,1.962,13.951-3.968,26.284-5.822,29.734l-.173.3-.3-.194a13.964,13.964,0,0,1-5.886-7.5,1.3,1.3,0,0,0-.647-.776,1.253,1.253,0,0,0-.6-.151,1.354,1.354,0,0,0-.41.065,1.3,1.3,0,0,0-.776.647,1.278,1.278,0,0,0-.086,1.013,16.553,16.553,0,0,0,8.733,9.9,1.387,1.387,0,0,0,.517.108,1.349,1.349,0,0,0,1.143-.647C1697.859,304.371,1702.064,291.714,1700.3,279.187Z" transform="translate(-1590.976 -206.113)" fill="#fff"/>
                <path id="Trazado_751" data-name="Trazado 751" d="M1596.695,264.155a6.383,6.383,0,0,0-4.054-5.93,6.431,6.431,0,0,0-4.075-.173l-.41.129v-2.07a1.34,1.34,0,0,0-1.79-1.272c-.086.022-8.8,3.062-14.6-4.506a1.339,1.339,0,0,0-2.005-.129c-1.38,1.38-4.679,1.984-7.31,2.07h-.28l-.043-.28a8.486,8.486,0,0,1,1.359-6.706c1.79-2.329,5.132-3.515,9.961-3.515,5.434,0,11.147.151,15.87,2.005a1.275,1.275,0,0,0,1.014-.022,1.39,1.39,0,0,0,.711-.733,1.275,1.275,0,0,0-.021-1.013,1.39,1.39,0,0,0-.733-.712c-5.175-2.027-11.148-2.2-16.84-2.2s-9.768,1.531-12.075,4.55c-2.868,3.752-2.027,8.431-1.531,10.285a1.339,1.339,0,0,0,1.251.992c.582.022,5.843.151,9.229-1.833l.216-.129.173.194a15.174,15.174,0,0,0,10.436,4.916,17.721,17.721,0,0,0,3.989-.237l.388-.065v2.782a1.306,1.306,0,0,0,.841,1.229,1.337,1.337,0,0,0,1.445-.3,3.676,3.676,0,0,1,3.924-.819,3.283,3.283,0,0,1,1.272.841,3.644,3.644,0,0,1,0,5.175,3.882,3.882,0,0,1-1.38.884,1.34,1.34,0,0,0-.884,1.078A14.19,14.19,0,0,1,1562.5,266.7v-7.5a1.337,1.337,0,0,0-2.674,0v7.5a16.865,16.865,0,0,0,33.421,3.213l.021-.151.129-.065a6.312,6.312,0,0,0,3.3-5.541Z" transform="translate(-1494.059 -187.545)" fill="#fff"/>
              </g>
            </g>
          </g>
        </g>
      </g>
    </g>
    <g id="Grupo_1811" data-name="Grupo 1811" transform="translate(6222.953 14659.332)">
      <rect id="Rectángulo_1997" data-name="Rectángulo 1997" width="23.465" height="1.869" transform="translate(-5927.245 -9740.465)" fill="#31404b"/>
      <rect id="Rectángulo_1998" data-name="Rectángulo 1998" width="23.465" height="1.869" transform="translate(-5927.245 -9767.044)" fill="#31404b"/>
      <rect id="Rectángulo_1999" data-name="Rectángulo 1999" width="23.465" height="1.869" transform="translate(-5933.889 -9753.755)" fill="#31404b"/>
      <path id="Trazado_1969" data-name="Trazado 1969" d="M20.446-3.239H18.058V-15.995a7.611,7.611,0,0,0-5.478-7.281L-3.538-27.925v-4.334l1.79-1.2a10.906,10.906,0,0,0,4.31-5.729l.136-.422.438-.072A5.886,5.886,0,0,0,8.09-45.5v-13.29A17.566,17.566,0,0,0-9.456-76.332,17.566,17.566,0,0,0-27-58.786V-45.5a5.886,5.886,0,0,0,4.955,5.818l.438.072.136.422a10.926,10.926,0,0,0,4.31,5.729l1.79,1.2v4.334l-16.118,4.65a7.649,7.649,0,0,0-5.338,5.9l-.153.809-.784-.252a5.689,5.689,0,0,1-3.979-5.418,5.717,5.717,0,0,1,5.71-5.71h.934v-1.869h-2.44l.883-1.166A7.484,7.484,0,0,0-35.1-35.529a7.588,7.588,0,0,0-7.579-7.579H-78.5v1.869h.934a5.717,5.717,0,0,1,5.71,5.71,5.717,5.717,0,0,1-5.71,5.71H-78.5v1.869h2.44l-.883,1.166A7.484,7.484,0,0,0-78.5-22.239a7.484,7.484,0,0,0,1.557,4.545l.883,1.166H-78.5v1.869h.934a5.717,5.717,0,0,1,5.71,5.71,5.717,5.717,0,0,1-5.71,5.71H-78.5V2.679a2.6,2.6,0,0,0,2.6,2.6h.727V25.209h94.9V5.275h.727a2.6,2.6,0,0,0,2.6-2.6V-.643A2.6,2.6,0,0,0,20.446-3.239ZM4.2-42.007l-1.093.637v-8.251l1.093.638a4.061,4.061,0,0,1,2.022,3.489A4.059,4.059,0,0,1,4.2-42.007Zm-26.219.634-1.092-.635A4.056,4.056,0,0,1-25.134-45.5a4.061,4.061,0,0,1,2.022-3.489l1.093-.637Zm0-13.363v3.393l-.544.142a5.853,5.853,0,0,0-1.478.612l-1.093.639v-8.835A15.7,15.7,0,0,1-9.456-74.463,15.7,15.7,0,0,1,6.222-58.786v8.835l-1.093-.639A5.8,5.8,0,0,0,3.652-51.2l-.546-.14v-3.4H1.516A18.78,18.78,0,0,1-8.939-57.9l-.518-.346-.519.346a18.777,18.777,0,0,1-10.453,3.165Zm5.89,19.728a9.014,9.014,0,0,1-4.022-7.516V-52.858l.693-.032a20.743,20.743,0,0,0,9.629-2.895l.372-.222.372.222A20.743,20.743,0,0,0,.545-52.89l.693.032v10.334a9.016,9.016,0,0,1-4.023,7.516l-4.147,2.763a4.555,4.555,0,0,1-2.525.755,4.555,4.555,0,0,1-2.525-.755Zm10.722,4.084v2.041a4.054,4.054,0,0,1-4.049,4.049,4.054,4.054,0,0,1-4.049-4.049v-2.041l1.065.56a6.357,6.357,0,0,0,2.984.754,6.357,6.357,0,0,0,2.984-.754ZM-36.658-4.4A7.484,7.484,0,0,0-35.1-8.949v-7.046a5.737,5.737,0,0,1,4.129-5.486h0l16.248-4.687.292.457a5.892,5.892,0,0,0,4.976,2.745A5.892,5.892,0,0,0-4.48-25.711l.292-.457L12.06-21.481a5.737,5.737,0,0,1,4.129,5.486V-3.239H-1.875l.346-.971a5.717,5.717,0,0,1,5.362-3.8h7.579V-9.884H8.09v-6.645H6.222v6.645H3.834a7.6,7.6,0,0,0-1.516.153l-.872.178v-10.3H-2.811a7.527,7.527,0,0,0-6.064,3.037l-.581.773-.581-.773A7.527,7.527,0,0,0-16.1-19.851h-4.257v10.3l-.872-.178a7.6,7.6,0,0,0-1.516-.153h-2.388v-6.645H-27v6.645h-3.322v1.869h7.579a5.717,5.717,0,0,1,5.362,3.8l.346.971h-20.5Zm33.065.584-.119.582H-8.522v-9.033a5.717,5.717,0,0,1,5.71-5.71H-.423v9.437l-.288.218A7.569,7.569,0,0,0-3.592-3.821Zm-6.8-8.451v9.033H-15.2l-.118-.582A7.568,7.568,0,0,0-18.2-8.327l-.288-.218v-9.437H-16.1A5.717,5.717,0,0,1-10.391-12.272ZM-71.543-30.984a7.484,7.484,0,0,0,1.557-4.545,7.484,7.484,0,0,0-1.557-4.545l-.883-1.166H-42.68a5.717,5.717,0,0,1,5.71,5.71,5.717,5.717,0,0,1-5.71,5.71H-72.426Zm-5.088,8.745a5.717,5.717,0,0,1,5.71-5.71h29.746l-.883,1.166a7.484,7.484,0,0,0-1.557,4.545,7.484,7.484,0,0,0,1.557,4.545l.883,1.166H-70.921A5.717,5.717,0,0,1-76.631-22.239ZM-71.543-4.4a7.484,7.484,0,0,0,1.557-4.545,7.484,7.484,0,0,0-1.557-4.545l-.883-1.166H-42.68a5.717,5.717,0,0,1,5.71,5.71,5.717,5.717,0,0,1-5.71,5.71H-72.426ZM17.85,23.34H-73.309V5.275h8.1v9.967h28.448V5.275H-18.7v9.967H9.752V5.275h8.1Zm-81.191-9.967v-8.1h24.71v8.1Zm46.514,0v-8.1H7.883v8.1Zm-59.8-9.967V-1.37h97.8l0,4.776Z" transform="translate(-5862.034 -9730.581)" fill="#31404b"/>
    </g>
  </g>
</svg>
