<svg xmlns="http://www.w3.org/2000/svg" width="166.458" height="164.775" viewBox="0 0 166.458 164.775">
  <g id="Feria_de_ciencias." data-name="Feria de ciencias." transform="translate(-1476 -4870)">
    <g id="Grupo_1817" data-name="Grupo 1817" transform="translate(-63 49)">
      <g id="Grupo_1801" data-name="Grupo 1801" transform="translate(1539 4821)">
        <g id="Grupo_936" data-name="Grupo 936" transform="translate(0 0)">
          <g id="Grupo_282" data-name="Grupo 282" transform="translate(0 0)">
            <path id="Trazado_498" data-name="Trazado 498" d="M83.229,0c45.966,0,83.229,36.886,83.229,82.388s-37.263,82.388-83.229,82.388S0,127.89,0,82.388,37.263,0,83.229,0Z" fill="#fff"/>
          </g>
        </g>
      </g>
      <g id="Grupo_1813" data-name="Grupo 1813" transform="translate(1427.48 4954.375)">
        <path id="Trazado_1958" data-name="Trazado 1958" d="M1351.929,154.254a7.72,7.72,0,1,0,0-15.439,7.747,7.747,0,0,0-7.715,7.606,7.7,7.7,0,0,0,7.715,7.833Zm0-12.49a4.776,4.776,0,1,1-4.766,4.7A4.733,4.733,0,0,1,1351.929,141.764Z" transform="translate(-1156.708 -197.462)" fill="#31404b"/>
        <path id="Trazado_1959" data-name="Trazado 1959" d="M1561.175,214.246a1.475,1.475,0,1,0,1.474,1.475A1.477,1.477,0,0,0,1561.175,214.246Z" transform="translate(-1323.68 -255.91)" fill="#31404b"/>
        <path id="Trazado_1960" data-name="Trazado 1960" d="M1226.776.292l-.591-.153.156-.591c3.649-13.822,2.369-23.7-3.513-27.1-5.9-3.406-15.123.45-25.3,10.578l-.429.427-.429-.427c-10.175-10.129-19.4-13.983-25.3-10.577-5.882,3.4-7.163,13.272-3.514,27.095l.156.591-.591.153C1160.5,2.084,1144.4,7.3,1144.4,17.013s16.1,14.928,23.027,16.72l.591.153-.156.591c-3.649,13.823-2.368,23.7,3.514,27.1,8.38,4.837,20.483-5.786,25.3-10.578l.429-.427.429.427c4.814,4.792,16.915,15.415,25.3,10.578,5.882-3.4,7.162-13.272,3.513-27.094l-.156-.591.592-.153c1.543-.4,3.027-.827,4.41-1.272a1.474,1.474,0,1,0-.9-2.808c-1.383.444-2.851.865-4.363,1.254l-.558.143-.173-.549A109.853,109.853,0,0,0,1220,17.27l-.119-.256.119-.257a109.653,109.653,0,0,0,5.189-13.235l.173-.55.558.144c12.91,3.321,20.93,8.647,20.93,13.9a6.5,6.5,0,0,1-1.331,3.757,1.475,1.475,0,0,0,2.407,1.7,9.382,9.382,0,0,0,1.873-5.461C1249.8,7.3,1233.7,2.084,1226.776.292ZM1197.1-12.273l.45.495c2.156,2.371,4.3,4.979,6.362,7.752L1204.68-3l-1.282-.059c-4.179-.191-8.415-.191-12.593,0L1189.523-3l.766-1.029c2.065-2.771,4.2-5.379,6.362-7.752Zm-21.117,32.725.59,1.141c1.95,3.774,4.013,7.347,6.306,10.922l.692,1.078-1.272-.145c-3.413-.39-6.751-.924-9.923-1.587l-.66-.138.205-.642c.983-3.081,2.179-6.26,3.553-9.449Zm-4.062-17.507-.205-.642.66-.138c3.174-.663,6.513-1.2,9.923-1.587l1.272-.145-.692,1.078c-2.295,3.577-4.357,7.149-6.306,10.923l-.59,1.141-.509-1.18C1174.1,9.2,1172.905,6.025,1171.922,2.945Zm5.789,14.334-.128-.265.128-.265a132.014,132.014,0,0,1,9.469-16.4l.166-.244.294-.021a134.54,134.54,0,0,1,18.924,0l.294.021.166.244a131.75,131.75,0,0,1,9.468,16.4l.128.265-.128.265a131.974,131.974,0,0,1-9.468,16.4l-.166.244-.294.021c-3.094.222-6.278.332-9.461.332s-6.367-.111-9.462-.332l-.294-.021-.166-.244A132.084,132.084,0,0,1,1177.711,17.278Zm-4.861-42.271h0c6.967-4.023,19.38,7.767,21.8,10.171l.413.411-.393.43a110.1,110.1,0,0,0-8.793,11.029l-.163.232-.282.025a115.56,115.56,0,0,0-13.974,2.039l-.566.12-.148-.559C1169.521-5.711,1166.063-21.074,1172.85-24.993Zm-25.5,42.006c0-5.25,8.02-10.575,20.93-13.9l.558-.144.173.55a109.96,109.96,0,0,0,5.189,13.235l.119.256-.119.256A109.6,109.6,0,0,0,1169.01,30.5l-.173.55-.558-.144C1155.369,27.589,1147.349,22.263,1147.349,17.013Zm47.3,31.832c-7.1,7.058-13.829,10.968-18.559,10.968a6.382,6.382,0,0,1-3.237-.8h0c-6.787-3.918-3.33-19.281-2.108-23.9l.148-.559.566.12a115.864,115.864,0,0,0,13.974,2.039l.282.024.163.232A109.974,109.974,0,0,0,1194.666,48l.394.43ZM1197.1,46.3l-.45-.495c-2.156-2.372-4.3-4.98-6.362-7.751l-.767-1.03,1.283.059c4.237.2,8.356.2,12.592,0l1.283-.059-.767,1.03c-2.067,2.772-4.207,5.38-6.362,7.751Zm26.211-11.737.148.56c1.222,4.615,4.68,19.979-2.108,23.9a6.481,6.481,0,0,1-3.294.83c-7.034,0-16.433-8.942-18.5-11l-.413-.411.393-.43a110.073,110.073,0,0,0,8.793-11.027l.163-.232.282-.024a115.594,115.594,0,0,0,13.974-2.04Zm-1.033-3.48.2.642-.659.138c-3.159.661-6.5,1.2-9.922,1.587l-1.272.145.691-1.078c2.3-3.577,4.358-7.15,6.307-10.922l.59-1.142.509,1.18C1220.1,24.822,1221.3,28,1222.28,31.081Zm0-28.137c-.984,3.081-2.179,6.261-3.554,9.45l-.509,1.18-.59-1.142c-1.948-3.772-4.011-7.346-6.307-10.924l-.691-1.078,1.272.145c3.411.39,6.75.924,9.923,1.587l.66.138Zm1.18-4.04-.148.559-.566-.12a115.63,115.63,0,0,0-13.974-2.04l-.282-.024-.163-.232a110.1,110.1,0,0,0-8.793-11.028l-.393-.43.413-.411c2.417-2.4,14.828-14.194,21.8-10.171C1228.14-21.075,1224.682-5.711,1223.461-1.1Z" transform="translate(-1001.88 -67.615)" fill="#31404b"/>
      </g>
    </g>
  </g>
</svg>
