<svg xmlns="http://www.w3.org/2000/svg" width="166.458" height="164.775" viewBox="0 0 166.458 164.775">
  <g id="_Cuidado_de_granja_y_huerta." data-name="   Cuidado de granja  y huerta." transform="translate(-531 -5182.004)">
    <g id="Grupo_1820" data-name="Grupo 1820" transform="translate(-8)">
      <g id="Grupo_1802" data-name="Grupo 1802" transform="translate(539 5182.004)">
        <g id="Grupo_936" data-name="Grupo 936" transform="translate(0 0)">
          <g id="Grupo_282" data-name="Grupo 282" transform="translate(0 0)">
            <path id="Trazado_498" data-name="Trazado 498" d="M83.229,0c45.966,0,83.229,36.886,83.229,82.388s-37.263,82.388-83.229,82.388S0,127.89,0,82.388,37.263,0,83.229,0Z" fill="#fff"/>
            <g id="Grupo_941" data-name="Grupo 941" transform="translate(24.973 29.081)">
              <g id="Grupo_934" data-name="Grupo 934">
                <g id="Grupo_933" data-name="Grupo 933">
                  <path id="Trazado_731" data-name="Trazado 731" d="M1364.774,360.818v-2.781a1.337,1.337,0,1,0-2.673,0v2.781a1.337,1.337,0,1,0,2.673,0Z" transform="translate(-1339.352 -279.788)" fill="#fff"/>
                  <path id="Trazado_732" data-name="Trazado 732" d="M1395.7,360.818a1.337,1.337,0,1,0,2.673,0v-2.781a1.337,1.337,0,1,0-2.673,0Z" transform="translate(-1365.707 -279.788)" fill="#fff"/>
                  <path id="Trazado_733" data-name="Trazado 733" d="M1336.181,410.468h0a1.314,1.314,0,0,0-1.165-.668,1.541,1.541,0,0,0-.668.172,1.32,1.32,0,0,0-.5,1.811,9.172,9.172,0,0,0,7.978,4.571h.065a1.346,1.346,0,0,0,1.337-1.272,1.33,1.33,0,0,0-1.272-1.4A6.5,6.5,0,0,1,1336.181,410.468Z" transform="translate(-1317.055 -321.438)" fill="#fff"/>
                  <path id="Trazado_734" data-name="Trazado 734" d="M1302.937,255.7h-26.91a15.975,15.975,0,0,0-15.956,15.956,1.337,1.337,0,0,0,2.674,0,13.3,13.3,0,0,1,13.282-13.282h25.508l-.043.367a13.3,13.3,0,0,1-13.174,11.6H1273.03a1.343,1.343,0,0,0-1.337,1.337v1.358a4.507,4.507,0,0,1-3.881,4.463l-.129.022-.108-.086a6.779,6.779,0,0,0-4.226-1.488,6.663,6.663,0,0,0-2.415.453,6.819,6.819,0,0,0-2.35,1.531,6.767,6.767,0,0,0,0,9.574,6.415,6.415,0,0,0,1.66,1.207l.129.065.022.151a18.176,18.176,0,0,0,36.03-3.407v-9.466a1.337,1.337,0,0,0-2.674,0v9.466a15.5,15.5,0,0,1-30.855,2.135,1.34,1.34,0,0,0-.884-1.078,4.49,4.49,0,0,1-1.552-.97,4.061,4.061,0,0,1,0-5.779,3.874,3.874,0,0,1,1.423-.927,4.079,4.079,0,0,1,4.356.927,1.382,1.382,0,0,0,1.013.41,7.181,7.181,0,0,0,7.115-6.9l.022-.3h13.929a15.975,15.975,0,0,0,15.956-15.956A1.353,1.353,0,0,0,1302.937,255.7Z" transform="translate(-1256.6 -200.566)" fill="#fff"/>
                  <path id="Trazado_735" data-name="Trazado 735" d="M1348.5,74.945a1.343,1.343,0,0,0-1.337,1.337,3.423,3.423,0,0,1-3.428,3.428h-10.414a1.341,1.341,0,0,0-.992.453l-5.369,6.016v-5.11a1.344,1.344,0,0,0-1.337-1.337H1302.2a3.423,3.423,0,0,1-3.428-3.428v-21a3.423,3.423,0,0,1,3.428-3.428h31.718a1.337,1.337,0,0,0,0-2.674H1302.2a6.11,6.11,0,0,0-6.1,6.1v20.98a6.11,6.11,0,0,0,6.1,6.1h22.08v7.288a1.33,1.33,0,0,0,2.329.884l7.288-8.172h9.832a6.11,6.11,0,0,0,6.1-6.1A1.344,1.344,0,0,0,1348.5,74.945Z" transform="translate(-1287.583 -38.591)" fill="#fff"/>
                  <path id="Trazado_736" data-name="Trazado 736" d="M1497.6,33.184h9.832l7.288,8.172a1.349,1.349,0,0,0,1.466.367,1.332,1.332,0,0,0,.863-1.251V33.184h22.08a6.11,6.11,0,0,0,6.1-6.1V6.1a6.11,6.11,0,0,0-6.1-6.1h-3.774a1.337,1.337,0,0,0,0,2.674h3.774a3.423,3.423,0,0,1,3.428,3.428v20.98a3.423,3.423,0,0,1-3.428,3.428h-23.417a1.343,1.343,0,0,0-1.337,1.337v5.11l-5.369-6.016a1.377,1.377,0,0,0-.992-.453H1497.6a3.423,3.423,0,0,1-3.428-3.428V6.1a3.423,3.423,0,0,1,3.428-3.428h32.451a1.337,1.337,0,0,0,0-2.674H1497.6a6.11,6.11,0,0,0-6.1,6.1v20.98A6.11,6.11,0,0,0,1497.6,33.184Z" transform="translate(-1440.851)" fill="#fff"/>
                  <path id="Trazado_737" data-name="Trazado 737" d="M1621.631,39h-18.694a1.337,1.337,0,1,0,0,2.674h18.694a1.337,1.337,0,1,0,0-2.674Z" transform="translate(-1527.211 -30.591)" fill="#fff"/>
                  <path id="Trazado_738" data-name="Trazado 738" d="M1532.837,41.574h9.6a1.337,1.337,0,1,0,0-2.674h-9.6a1.344,1.344,0,0,0-1.337,1.337A1.33,1.33,0,0,0,1532.837,41.574Z" transform="translate(-1472.226 -30.512)" fill="#fff"/>
                  <path id="Trazado_739" data-name="Trazado 739" d="M1668.694,70.5h-5.757a1.337,1.337,0,0,0,0,2.674h5.757a1.337,1.337,0,1,0,0-2.674Z" transform="translate(-1574.274 -55.299)" fill="#fff"/>
                  <path id="Trazado_740" data-name="Trazado 740" d="M1532.837,73.174h22.532a1.337,1.337,0,0,0,0-2.674h-22.532a1.344,1.344,0,0,0-1.337,1.337A1.33,1.33,0,0,0,1532.837,73.174Z" transform="translate(-1472.226 -55.299)" fill="#fff"/>
                  <path id="Trazado_741" data-name="Trazado 741" d="M1532.837,104.674h23.524a1.337,1.337,0,0,0,0-2.674h-23.524a1.344,1.344,0,0,0-1.337,1.337A1.33,1.33,0,0,0,1532.837,104.674Z" transform="translate(-1472.226 -80.007)" fill="#fff"/>
                  <path id="Trazado_742" data-name="Trazado 742" d="M1334.937,87.774h9.6a1.337,1.337,0,0,0,0-2.674h-9.6a1.337,1.337,0,0,0,0,2.674Z" transform="translate(-1316.997 -66.751)" fill="#fff"/>
                  <path id="Trazado_743" data-name="Trazado 743" d="M1421.269,86.437a1.344,1.344,0,0,0-1.337-1.337h-9.6a1.337,1.337,0,0,0,0,2.674h9.6A1.344,1.344,0,0,0,1421.269,86.437Z" transform="translate(-1376.139 -66.751)" fill="#fff"/>
                  <path id="Trazado_744" data-name="Trazado 744" d="M1333.6,117.937a1.344,1.344,0,0,0,1.337,1.337H1364a1.337,1.337,0,1,0,0-2.674h-29.066A1.344,1.344,0,0,0,1333.6,117.937Z" transform="translate(-1316.997 -91.459)" fill="#fff"/>
                  <path id="Trazado_745" data-name="Trazado 745" d="M1382.537,148.2a1.337,1.337,0,1,0,0,2.674H1395.8a1.337,1.337,0,0,0,0-2.674Z" transform="translate(-1354.333 -116.245)" fill="#fff"/>
                  <path id="Trazado_746" data-name="Trazado 746" d="M1333.6,149.437a1.344,1.344,0,0,0,1.337,1.337h4.744a1.337,1.337,0,0,0,0-2.674h-4.744A1.358,1.358,0,0,0,1333.6,149.437Z" transform="translate(-1316.997 -116.166)" fill="#fff"/>
                  <path id="Trazado_747" data-name="Trazado 747" d="M1625.373,336.3v-2.566a1.337,1.337,0,1,0-2.674,0V336.3a1.337,1.337,0,1,0,2.674,0Z" transform="translate(-1543.761 -260.727)" fill="#fff"/>
                  <path id="Trazado_748" data-name="Trazado 748" d="M1594.373,336.3v-2.566a1.337,1.337,0,1,0-2.674,0V336.3a1.337,1.337,0,1,0,2.674,0Z" transform="translate(-1519.445 -260.727)" fill="#fff"/>
                  <path id="Trazado_749" data-name="Trazado 749" d="M1620.893,387.753a8.61,8.61,0,0,0,7.439-4.269,1.31,1.31,0,0,0-.5-1.811,1.376,1.376,0,0,0-1.013-.129,1.292,1.292,0,0,0-.8.625,5.985,5.985,0,0,1-5.261,2.932,1.343,1.343,0,0,0-.927.431,1.328,1.328,0,0,0,1.057,2.221Z" transform="translate(-1541.243 -299.24)" fill="#fff"/>
                  <path id="Trazado_750" data-name="Trazado 750" d="M1700.3,279.187c-1.035-7.374-3.558-12.635-7.719-16.107a1.334,1.334,0,0,0-1.876.172,1.254,1.254,0,0,0-.3.97,1.3,1.3,0,0,0,.474.906c3.622,3.04,5.843,7.762,6.792,14.447,1.962,13.951-3.968,26.284-5.822,29.734l-.173.3-.3-.194a13.964,13.964,0,0,1-5.886-7.5,1.3,1.3,0,0,0-.647-.776,1.253,1.253,0,0,0-.6-.151,1.354,1.354,0,0,0-.41.065,1.3,1.3,0,0,0-.776.647,1.278,1.278,0,0,0-.086,1.013,16.553,16.553,0,0,0,8.733,9.9,1.387,1.387,0,0,0,.517.108,1.349,1.349,0,0,0,1.143-.647C1697.859,304.371,1702.064,291.714,1700.3,279.187Z" transform="translate(-1590.976 -206.113)" fill="#fff"/>
                  <path id="Trazado_751" data-name="Trazado 751" d="M1596.695,264.155a6.383,6.383,0,0,0-4.054-5.93,6.431,6.431,0,0,0-4.075-.173l-.41.129v-2.07a1.34,1.34,0,0,0-1.79-1.272c-.086.022-8.8,3.062-14.6-4.506a1.339,1.339,0,0,0-2.005-.129c-1.38,1.38-4.679,1.984-7.31,2.07h-.28l-.043-.28a8.486,8.486,0,0,1,1.359-6.706c1.79-2.329,5.132-3.515,9.961-3.515,5.434,0,11.147.151,15.87,2.005a1.275,1.275,0,0,0,1.014-.022,1.39,1.39,0,0,0,.711-.733,1.275,1.275,0,0,0-.021-1.013,1.39,1.39,0,0,0-.733-.712c-5.175-2.027-11.148-2.2-16.84-2.2s-9.768,1.531-12.075,4.55c-2.868,3.752-2.027,8.431-1.531,10.285a1.339,1.339,0,0,0,1.251.992c.582.022,5.843.151,9.229-1.833l.216-.129.173.194a15.174,15.174,0,0,0,10.436,4.916,17.721,17.721,0,0,0,3.989-.237l.388-.065v2.782a1.306,1.306,0,0,0,.841,1.229,1.337,1.337,0,0,0,1.445-.3,3.676,3.676,0,0,1,3.924-.819,3.283,3.283,0,0,1,1.272.841,3.644,3.644,0,0,1,0,5.175,3.882,3.882,0,0,1-1.38.884,1.34,1.34,0,0,0-.884,1.078A14.19,14.19,0,0,1,1562.5,266.7v-7.5a1.337,1.337,0,0,0-2.674,0v7.5a16.865,16.865,0,0,0,33.421,3.213l.021-.151.129-.065a6.312,6.312,0,0,0,3.3-5.541Z" transform="translate(-1494.059 -187.545)" fill="#fff"/>
                </g>
              </g>
            </g>
          </g>
        </g>
      </g>
      <g id="Grupo_1814" data-name="Grupo 1814" transform="translate(6198.409 15030.408)">
        <rect id="Rectángulo_2000" data-name="Rectángulo 2000" width="1.913" height="1.913" transform="translate(-5543.799 -9758.135)" fill="#31404b"/>
        <rect id="Rectángulo_2001" data-name="Rectángulo 2001" width="1.913" height="1.912" transform="translate(-5543.799 -9745.891)" fill="#31404b"/>
        <rect id="Rectángulo_2002" data-name="Rectángulo 2002" width="1.913" height="1.913" transform="translate(-5543.799 -9733.646)" fill="#31404b"/>
        <path id="Trazado_1970" data-name="Trazado 1970" d="M1767.544-68.437h-7.323l-.1-.451a20.823,20.823,0,0,0-4.779-9.38,12.784,12.784,0,0,0-3.64-2.857l-.841-.439.779-.541a10.153,10.153,0,0,0,4.377-8.331v-.957h-7.078a10.068,10.068,0,0,0-8.69,4.945l-1.066,1.775v-5.763a6.705,6.705,0,0,1,6.122-6.671v-1.918a8.62,8.62,0,0,0-8.035,8.59v9.31l-.769-.279a11.251,11.251,0,0,0-12.252,3.049c-.353.393-.709.825-1.086,1.321l-1.536,2.019.65-3.121a15.137,15.137,0,0,0,.31-3.117,14.605,14.605,0,0,0-4.478-10.553l-.345-.336,5.637-8.3a4.211,4.211,0,0,0,.278-.476,4.169,4.169,0,0,0-1.864-5.586l-.383-.191a4.131,4.131,0,0,0-3.179-.226,4.177,4.177,0,0,0-2.421,2.111,3.851,3.851,0,0,0-.189.441l-3.3,9.086-.514-.146c-.187-.053-.389-.105-.615-.159l-.489-.116,1.13-11.319a3.436,3.436,0,0,0,.022-.4A3.876,3.876,0,0,0,1708-111.29h-.289a3.877,3.877,0,0,0-3.874,3.872,3.46,3.46,0,0,0,.019.381l1.133,11.34-.49.115c-.218.051-.419.1-.614.159l-.514.146-3.3-9.084a4.267,4.267,0,0,0-.2-.467,4.141,4.141,0,0,0-2.41-2.091,4.13,4.13,0,0,0-3.178.226l-.383.191a4.178,4.178,0,0,0-1.86,5.595,4.508,4.508,0,0,0,.277.471l5.638,8.3-.344.336a14.768,14.768,0,0,0-4.485,10.657,14.679,14.679,0,0,0,.31,3l2.022,9.7h-2.906a2.49,2.49,0,0,0-2.487,2.487v.784l-.655-.094a10.145,10.145,0,0,0-1.449-.117h-7.079v.957a10.155,10.155,0,0,0,4.377,8.332l.78.542-.842.439a12.7,12.7,0,0,0-3.639,2.858A20.8,20.8,0,0,0,1676.29-38.4a20.684,20.684,0,0,0,6.4,15.029,20.746,20.746,0,0,0,14.448,5.825c.272,0,.546-.005.837-.016a20.759,20.759,0,0,0,13.7-5.943l.167-.163h44.988a7.086,7.086,0,0,0,7.078-7.079V-60.4h3.635a2.49,2.49,0,0,0,2.487-2.487V-65.95A2.49,2.49,0,0,0,1767.544-68.437ZM1740.88-82.9a8.252,8.252,0,0,1,8.06-6.581h5.139l-.14.689a8.254,8.254,0,0,1-8.059,6.58h-5.14Zm-19.455,13.746a18.957,18.957,0,0,1,4.244-7.924h0a9.522,9.522,0,0,1,10.683-2.368c.123.053.259.1.4.147l.514.176v4.5l-.774-.289a11.512,11.512,0,0,1-3.295-2.045l-1.353,1.356c1,.885,3.624,2.95,6.379,2.95s5.379-2.065,6.378-2.95l-1.353-1.356a11.566,11.566,0,0,1-3.293,2.045l-.775.29V-80.3h6.7a9.978,9.978,0,0,0,1.44-.115l.061-.009.061,0a9.984,9.984,0,0,1,6.472,3.42,18.961,18.961,0,0,1,4.176,7.844l.185.717H1721.24Zm-3.985-34.557a2.09,2.09,0,0,1,.118-.271,2.238,2.238,0,0,1,1.3-1.123,2.241,2.241,0,0,1,1.719.123l.383.192a2.237,2.237,0,0,1,1.129,1.3,2.225,2.225,0,0,1-.119,1.715,2.446,2.446,0,0,1-.15.258l-5.555,8.175-.471-.3c-.392-.252-.8-.491-1.225-.708l-.448-.232Zm-9.73-5.665h.29a1.894,1.894,0,0,1,1.356.563,2.131,2.131,0,0,1,.6,1.539l0,.052-1.128,11.276-.535-.016c-.072,0-.144-.007-.216-.012a3.015,3.015,0,0,0-.428,0c-.073,0-.145.01-.218.012l-.535.016-1.137-11.472A1.961,1.961,0,0,1,1707.71-109.377Zm-13.814,7.864a2.221,2.221,0,0,1-.154-.266,2.229,2.229,0,0,1-.118-1.711,2.234,2.234,0,0,1,1.129-1.3l.382-.191a2.243,2.243,0,0,1,1.719-.123,2.255,2.255,0,0,1,1.317,1.158,2.018,2.018,0,0,1,.1.228l3.322,9.139-.449.231c-.421.217-.832.455-1.222.707l-.471.3Zm1.411,22.983a13.423,13.423,0,0,1-.268-2.725,12.832,12.832,0,0,1,12.817-12.817,12.887,12.887,0,0,1,12.818,12.927,12.911,12.911,0,0,1-.269,2.615l-2.1,10.093H1699.26l1.15-1.006a6.7,6.7,0,0,1,3.811-1.647v-1.92a8.575,8.575,0,0,0-6.136,3.21l-.761.948Zm-3.329,12.006h4.451l-.112.669a8.633,8.633,0,0,0-.13,1.435v3.107l-.984-1.006a10.148,10.148,0,0,0-2.9-2.064l-.327-.156Zm-9.017,3.749-.14-.688h5.139a8.251,8.251,0,0,1,8.06,6.581l.14.689h-5.139A8.252,8.252,0,0,1,1682.961-62.775Zm14.936,43.3h0q-.356.013-.71.013a18.847,18.847,0,0,1-13.172-5.289A18.789,18.789,0,0,1,1678.2-38.4a18.914,18.914,0,0,1,4.781-12.577,9.973,9.973,0,0,1,6.474-3.42l.062,0,.061.009a9.99,9.99,0,0,0,1.441.115h5.165V-48.6l-.774-.288a11.514,11.514,0,0,1-3.295-2.045l-1.353,1.356c1,.885,3.624,2.95,6.379,2.95s5.379-2.065,6.377-2.95l-1.353-1.356a11.556,11.556,0,0,1-3.293,2.045l-.775.289v-4.2l.483-.078a8.363,8.363,0,0,0,1.964-.552,9.513,9.513,0,0,1,10.682,2.367,18.846,18.846,0,0,1,4.834,13.517A19.026,19.026,0,0,1,1697.9-19.476ZM1762-30.749a5.171,5.171,0,0,1-5.165,5.165h-43.249l.635-.9a20.822,20.822,0,0,0,3.564-8.935l.071-.492H1762Zm0-7.079H1717.97V-38.4a20.639,20.639,0,0,0-1.983-8.936l-.39-.82H1762Zm6.122-24.487H1762v12.244h-47.59l-.171-.245a20.79,20.79,0,0,0-1.583-2.022,11.31,11.31,0,0,0-12.855-2.847,6.51,6.51,0,0,1-.982.3l-.713.178v-5.7h59.688v-1.913H1698.1v-2.1a6.517,6.517,0,0,1,.236-1.675l.112-.429h69.67Z" transform="translate(-7299.673 -9701.941)" fill="#31404b"/>
        <path id="Trazado_1971" data-name="Trazado 1971" d="M1710.263,272.7h-1.915a14.752,14.752,0,0,0,14.146,14.146v-1.915A12.836,12.836,0,0,1,1710.263,272.7Z" transform="translate(-7325.599 -10012.472)" fill="#31404b"/>
        <rect id="Rectángulo_2003" data-name="Rectángulo 2003" width="1.913" height="1.913" transform="translate(-5586.652 -9788.744)" fill="#31404b"/>
        <rect id="Rectángulo_2004" data-name="Rectángulo 2004" width="1.913" height="1.913" transform="translate(-5586.652 -9782.622)" fill="#31404b"/>
        <rect id="Rectángulo_2005" data-name="Rectángulo 2005" width="1.913" height="1.913" transform="translate(-5586.652 -9776.501)" fill="#31404b"/>
      </g>
    </g>
  </g>
</svg>
