<svg xmlns="http://www.w3.org/2000/svg" width="166.458" height="164.775" viewBox="0 0 166.458 164.775">
  <g id="_Hora_de_lectura_" data-name="  Hora de lectura " transform="translate(-1263 -5182)">
    <g id="Grupo_1823" data-name="Grupo 1823">
      <g id="Grupo_1819" data-name="Grupo 1819" transform="translate(42)">
        <g id="Grupo_1803" data-name="Grupo 1803" transform="translate(1221 5182)">
          <g id="Grupo_936" data-name="Grupo 936" transform="translate(0 0)">
            <g id="Grupo_282" data-name="Grupo 282" transform="translate(0 0)">
              <path id="Trazado_498" data-name="Trazado 498" d="M83.229,0c45.966,0,83.229,36.886,83.229,82.388s-37.263,82.388-83.229,82.388S0,127.89,0,82.388,37.263,0,83.229,0Z" fill="#fff"/>
              <g id="Grupo_941" data-name="Grupo 941" transform="translate(24.973 29.081)">
                <g id="Grupo_934" data-name="Grupo 934">
                  <g id="Grupo_933" data-name="Grupo 933">
                    <path id="Trazado_731" data-name="Trazado 731" d="M1364.774,360.818v-2.781a1.337,1.337,0,1,0-2.673,0v2.781a1.337,1.337,0,1,0,2.673,0Z" transform="translate(-1339.352 -279.788)" fill="#fff"/>
                    <path id="Trazado_732" data-name="Trazado 732" d="M1395.7,360.818a1.337,1.337,0,1,0,2.673,0v-2.781a1.337,1.337,0,1,0-2.673,0Z" transform="translate(-1365.707 -279.788)" fill="#fff"/>
                    <path id="Trazado_733" data-name="Trazado 733" d="M1336.181,410.468h0a1.314,1.314,0,0,0-1.165-.668,1.541,1.541,0,0,0-.668.172,1.32,1.32,0,0,0-.5,1.811,9.172,9.172,0,0,0,7.978,4.571h.065a1.346,1.346,0,0,0,1.337-1.272,1.33,1.33,0,0,0-1.272-1.4A6.5,6.5,0,0,1,1336.181,410.468Z" transform="translate(-1317.055 -321.438)" fill="#fff"/>
                    <path id="Trazado_734" data-name="Trazado 734" d="M1302.937,255.7h-26.91a15.975,15.975,0,0,0-15.956,15.956,1.337,1.337,0,0,0,2.674,0,13.3,13.3,0,0,1,13.282-13.282h25.508l-.043.367a13.3,13.3,0,0,1-13.174,11.6H1273.03a1.343,1.343,0,0,0-1.337,1.337v1.358a4.507,4.507,0,0,1-3.881,4.463l-.129.022-.108-.086a6.779,6.779,0,0,0-4.226-1.488,6.663,6.663,0,0,0-2.415.453,6.819,6.819,0,0,0-2.35,1.531,6.767,6.767,0,0,0,0,9.574,6.415,6.415,0,0,0,1.66,1.207l.129.065.022.151a18.176,18.176,0,0,0,36.03-3.407v-9.466a1.337,1.337,0,0,0-2.674,0v9.466a15.5,15.5,0,0,1-30.855,2.135,1.34,1.34,0,0,0-.884-1.078,4.49,4.49,0,0,1-1.552-.97,4.061,4.061,0,0,1,0-5.779,3.874,3.874,0,0,1,1.423-.927,4.079,4.079,0,0,1,4.356.927,1.382,1.382,0,0,0,1.013.41,7.181,7.181,0,0,0,7.115-6.9l.022-.3h13.929a15.975,15.975,0,0,0,15.956-15.956A1.353,1.353,0,0,0,1302.937,255.7Z" transform="translate(-1256.6 -200.566)" fill="#fff"/>
                    <path id="Trazado_735" data-name="Trazado 735" d="M1348.5,74.945a1.343,1.343,0,0,0-1.337,1.337,3.423,3.423,0,0,1-3.428,3.428h-10.414a1.341,1.341,0,0,0-.992.453l-5.369,6.016v-5.11a1.344,1.344,0,0,0-1.337-1.337H1302.2a3.423,3.423,0,0,1-3.428-3.428v-21a3.423,3.423,0,0,1,3.428-3.428h31.718a1.337,1.337,0,0,0,0-2.674H1302.2a6.11,6.11,0,0,0-6.1,6.1v20.98a6.11,6.11,0,0,0,6.1,6.1h22.08v7.288a1.33,1.33,0,0,0,2.329.884l7.288-8.172h9.832a6.11,6.11,0,0,0,6.1-6.1A1.344,1.344,0,0,0,1348.5,74.945Z" transform="translate(-1287.583 -38.591)" fill="#fff"/>
                    <path id="Trazado_736" data-name="Trazado 736" d="M1497.6,33.184h9.832l7.288,8.172a1.349,1.349,0,0,0,1.466.367,1.332,1.332,0,0,0,.863-1.251V33.184h22.08a6.11,6.11,0,0,0,6.1-6.1V6.1a6.11,6.11,0,0,0-6.1-6.1h-3.774a1.337,1.337,0,0,0,0,2.674h3.774a3.423,3.423,0,0,1,3.428,3.428v20.98a3.423,3.423,0,0,1-3.428,3.428h-23.417a1.343,1.343,0,0,0-1.337,1.337v5.11l-5.369-6.016a1.377,1.377,0,0,0-.992-.453H1497.6a3.423,3.423,0,0,1-3.428-3.428V6.1a3.423,3.423,0,0,1,3.428-3.428h32.451a1.337,1.337,0,0,0,0-2.674H1497.6a6.11,6.11,0,0,0-6.1,6.1v20.98A6.11,6.11,0,0,0,1497.6,33.184Z" transform="translate(-1440.851)" fill="#fff"/>
                    <path id="Trazado_737" data-name="Trazado 737" d="M1621.631,39h-18.694a1.337,1.337,0,1,0,0,2.674h18.694a1.337,1.337,0,1,0,0-2.674Z" transform="translate(-1527.211 -30.591)" fill="#fff"/>
                    <path id="Trazado_738" data-name="Trazado 738" d="M1532.837,41.574h9.6a1.337,1.337,0,1,0,0-2.674h-9.6a1.344,1.344,0,0,0-1.337,1.337A1.33,1.33,0,0,0,1532.837,41.574Z" transform="translate(-1472.226 -30.512)" fill="#fff"/>
                    <path id="Trazado_739" data-name="Trazado 739" d="M1668.694,70.5h-5.757a1.337,1.337,0,0,0,0,2.674h5.757a1.337,1.337,0,1,0,0-2.674Z" transform="translate(-1574.274 -55.299)" fill="#fff"/>
                    <path id="Trazado_740" data-name="Trazado 740" d="M1532.837,73.174h22.532a1.337,1.337,0,0,0,0-2.674h-22.532a1.344,1.344,0,0,0-1.337,1.337A1.33,1.33,0,0,0,1532.837,73.174Z" transform="translate(-1472.226 -55.299)" fill="#fff"/>
                    <path id="Trazado_741" data-name="Trazado 741" d="M1532.837,104.674h23.524a1.337,1.337,0,0,0,0-2.674h-23.524a1.344,1.344,0,0,0-1.337,1.337A1.33,1.33,0,0,0,1532.837,104.674Z" transform="translate(-1472.226 -80.007)" fill="#fff"/>
                    <path id="Trazado_742" data-name="Trazado 742" d="M1334.937,87.774h9.6a1.337,1.337,0,0,0,0-2.674h-9.6a1.337,1.337,0,0,0,0,2.674Z" transform="translate(-1316.997 -66.751)" fill="#fff"/>
                    <path id="Trazado_743" data-name="Trazado 743" d="M1421.269,86.437a1.344,1.344,0,0,0-1.337-1.337h-9.6a1.337,1.337,0,0,0,0,2.674h9.6A1.344,1.344,0,0,0,1421.269,86.437Z" transform="translate(-1376.139 -66.751)" fill="#fff"/>
                    <path id="Trazado_744" data-name="Trazado 744" d="M1333.6,117.937a1.344,1.344,0,0,0,1.337,1.337H1364a1.337,1.337,0,1,0,0-2.674h-29.066A1.344,1.344,0,0,0,1333.6,117.937Z" transform="translate(-1316.997 -91.459)" fill="#fff"/>
                    <path id="Trazado_745" data-name="Trazado 745" d="M1382.537,148.2a1.337,1.337,0,1,0,0,2.674H1395.8a1.337,1.337,0,0,0,0-2.674Z" transform="translate(-1354.333 -116.245)" fill="#fff"/>
                    <path id="Trazado_746" data-name="Trazado 746" d="M1333.6,149.437a1.344,1.344,0,0,0,1.337,1.337h4.744a1.337,1.337,0,0,0,0-2.674h-4.744A1.358,1.358,0,0,0,1333.6,149.437Z" transform="translate(-1316.997 -116.166)" fill="#fff"/>
                    <path id="Trazado_747" data-name="Trazado 747" d="M1625.373,336.3v-2.566a1.337,1.337,0,1,0-2.674,0V336.3a1.337,1.337,0,1,0,2.674,0Z" transform="translate(-1543.761 -260.727)" fill="#fff"/>
                    <path id="Trazado_748" data-name="Trazado 748" d="M1594.373,336.3v-2.566a1.337,1.337,0,1,0-2.674,0V336.3a1.337,1.337,0,1,0,2.674,0Z" transform="translate(-1519.445 -260.727)" fill="#fff"/>
                    <path id="Trazado_749" data-name="Trazado 749" d="M1620.893,387.753a8.61,8.61,0,0,0,7.439-4.269,1.31,1.31,0,0,0-.5-1.811,1.376,1.376,0,0,0-1.013-.129,1.292,1.292,0,0,0-.8.625,5.985,5.985,0,0,1-5.261,2.932,1.343,1.343,0,0,0-.927.431,1.328,1.328,0,0,0,1.057,2.221Z" transform="translate(-1541.243 -299.24)" fill="#fff"/>
                    <path id="Trazado_750" data-name="Trazado 750" d="M1700.3,279.187c-1.035-7.374-3.558-12.635-7.719-16.107a1.334,1.334,0,0,0-1.876.172,1.254,1.254,0,0,0-.3.97,1.3,1.3,0,0,0,.474.906c3.622,3.04,5.843,7.762,6.792,14.447,1.962,13.951-3.968,26.284-5.822,29.734l-.173.3-.3-.194a13.964,13.964,0,0,1-5.886-7.5,1.3,1.3,0,0,0-.647-.776,1.253,1.253,0,0,0-.6-.151,1.354,1.354,0,0,0-.41.065,1.3,1.3,0,0,0-.776.647,1.278,1.278,0,0,0-.086,1.013,16.553,16.553,0,0,0,8.733,9.9,1.387,1.387,0,0,0,.517.108,1.349,1.349,0,0,0,1.143-.647C1697.859,304.371,1702.064,291.714,1700.3,279.187Z" transform="translate(-1590.976 -206.113)" fill="#fff"/>
                    <path id="Trazado_751" data-name="Trazado 751" d="M1596.695,264.155a6.383,6.383,0,0,0-4.054-5.93,6.431,6.431,0,0,0-4.075-.173l-.41.129v-2.07a1.34,1.34,0,0,0-1.79-1.272c-.086.022-8.8,3.062-14.6-4.506a1.339,1.339,0,0,0-2.005-.129c-1.38,1.38-4.679,1.984-7.31,2.07h-.28l-.043-.28a8.486,8.486,0,0,1,1.359-6.706c1.79-2.329,5.132-3.515,9.961-3.515,5.434,0,11.147.151,15.87,2.005a1.275,1.275,0,0,0,1.014-.022,1.39,1.39,0,0,0,.711-.733,1.275,1.275,0,0,0-.021-1.013,1.39,1.39,0,0,0-.733-.712c-5.175-2.027-11.148-2.2-16.84-2.2s-9.768,1.531-12.075,4.55c-2.868,3.752-2.027,8.431-1.531,10.285a1.339,1.339,0,0,0,1.251.992c.582.022,5.843.151,9.229-1.833l.216-.129.173.194a15.174,15.174,0,0,0,10.436,4.916,17.721,17.721,0,0,0,3.989-.237l.388-.065v2.782a1.306,1.306,0,0,0,.841,1.229,1.337,1.337,0,0,0,1.445-.3,3.676,3.676,0,0,1,3.924-.819,3.283,3.283,0,0,1,1.272.841,3.644,3.644,0,0,1,0,5.175,3.882,3.882,0,0,1-1.38.884,1.34,1.34,0,0,0-.884,1.078A14.19,14.19,0,0,1,1562.5,266.7v-7.5a1.337,1.337,0,0,0-2.674,0v7.5a16.865,16.865,0,0,0,33.421,3.213l.021-.151.129-.065a6.312,6.312,0,0,0,3.3-5.541Z" transform="translate(-1494.059 -187.545)" fill="#fff"/>
                  </g>
                </g>
              </g>
            </g>
          </g>
        </g>
        <g id="Grupo_1810" data-name="Grupo 1810" transform="translate(6760.511 15024.492)">
          <g id="Grupo_1810-2" data-name="Grupo 1810" transform="translate(-5500.247 -9809.159)">
            <g id="Grupo_1813" data-name="Grupo 1813" transform="translate(0 0)">
              <path id="Trazado_1963" data-name="Trazado 1963" d="M2443.759-30.292a5.45,5.45,0,0,0-4.9-2.077l-.45.011v-.45c0-.262,0-.518,0-.771,0-.536.006-1.042-.005-1.551a5.674,5.674,0,0,0-2-4.426,5.738,5.738,0,0,0-4.807-1c-.761.153-1.524.3-2.339.466l-2.505.5.943-1c3.451-3.663,4.1-4.61,4.988-7.238a27.431,27.431,0,0,0,.353-15.253,32.69,32.69,0,0,0-16.109-21.629,32.677,32.677,0,0,0-26.873-2.115c-12.239,4.263-21.315,16.886-21.578,30.016-.077,3.839.193,8.3,2.782,12.291a23.648,23.648,0,0,0,2.151,2.688c.35.4.712.806,1.055,1.22l.793.955-2.158-.431-2.289-.458a7.337,7.337,0,0,0-1.445-.149,5.369,5.369,0,0,0-3.461,1.164,5.84,5.84,0,0,0-1.969,4.656v2.452l-.787.052c-.2.014-.338.024-.481.03a5,5,0,0,0-5.053,5.214l0,.368c-.014,1.134-.028,2.307.023,3.452a5,5,0,0,0,4.291,4.649c.326.045.654.077,1.032.114.186.018.382.038.593.06l.393.042v5.7q0,4.608-.011,9.217c-.01,3.514,1.514,5.412,4.938,6.153,2.571.556,5.182,1.133,7.707,1.691,6.463,1.428,13.146,2.9,19.752,4.164a24.823,24.823,0,0,0,9.114.139c7.468-1.405,15.018-3.088,22.318-4.714q3-.667,5.993-1.33c3.128-.689,4.652-2.632,4.659-5.94q.008-4.726,0-9.452v-5.668l.9-.074.742-.062a4.981,4.981,0,0,0,3.822-2.194C2445.218-22.688,2445.146-28.447,2443.759-30.292ZM2363.6-20.615c-.478,0-.971-.038-1.461-.084a2.862,2.862,0,0,1-2.48-2.883c-.046-1.3-.046-2.566,0-3.765a2.959,2.959,0,0,1,2.919-2.958,13.172,13.172,0,0,1,1.589-.005,2.973,2.973,0,0,1,2.991,3c.021.44.015.882.01,1.309,0,.088,0,.177,0,.265l0,.312q0,.09,0,.181c0,.114,0,.228,0,.341a4.266,4.266,0,0,1-.918,3.464A3.679,3.679,0,0,1,2363.6-20.615ZM2403.94,6.719h-5.606V1.349q0-9.018,0-18.036c0-.1,0-.191,0-.287a6.737,6.737,0,0,0-.018-.766c-.089-.865-.608-.97-.991-.973a.914.914,0,0,0-1.013.946,6.153,6.153,0,0,0-.022.776c0,.09,0,.181,0,.271q0,8.834.009,17.669l0,5.548-5.444-1.178-10.921-2.363Q2374.579,1.8,2369.215.644c-2.257-.484-3.22-1.658-3.221-3.928q0-1.912,0-3.824c0-3.464,0-7.045-.016-10.566a1.865,1.865,0,0,1,.939-1.792,4.571,4.571,0,0,0,2.272-3.823c.072-1.453.077-2.88.016-4.241a4.984,4.984,0,0,0-2.365-4.04,2.216,2.216,0,0,1-.816-1.4,9.124,9.124,0,0,1-.045-1.676c.006-.161.011-.321.014-.481A3.65,3.65,0,0,1,2367.265-38a3.62,3.62,0,0,1,3.065-.581q8.154,1.752,16.3,3.517,1.312.284,2.622.576c1.878.416,3.82.846,5.737,1.223a1.44,1.44,0,0,1,1.331,1.676c-.041,2.488-.026,5.021-.012,7.47l0,.32c0,.582.176,1.28.981,1.3.831.015,1.024-.723,1.04-1.349,0-.151,0-.3,0-.454v-8.385h5.606Zm1.3-41.645a25.971,25.971,0,0,1-4.05.316,25.361,25.361,0,0,1-4.068-.324c-3.9-.636-7.807-1.545-11.59-2.425q-1.566-.364-3.131-.723a2.358,2.358,0,0,1-1.6-1.266q-.1-.285-.194-.573a15.606,15.606,0,0,1-1.023-4.286c-.12-2.817-.1-5.691-.074-8.47.01-1.141.019-2.284.019-3.431v-.49l.487.053c4.61.5,7.329-2.443,10.209-5.562l.735-.794.322.287c1.568,1.4,3.313,1.448,5.836.16,4.067-2.074,7.137-5.363,9.6-8.306.436-.52.848-1.084,1.247-1.629.344-.47.7-.956,1.075-1.421a1.449,1.449,0,0,1,1.318-.54c5.078,1.74,8.525,4.246,10.85,7.884a12.482,12.482,0,0,1,1.691,6.51c.085,2.537.166,5.123.239,7.688a1.773,1.773,0,0,0,.429,1.254.8.8,0,0,0,.612.209c.853-.04.959-.926.947-1.452-.036-1.53-.084-3.085-.131-4.59q-.068-2.151-.125-4.3c-.018-.765,0-1.6.07-2.554.376-5.51-1.894-9.966-6.94-13.624-5.385-3.9-11.723-5.529-19.38-4.968a26.472,26.472,0,0,0-14.006,4.846c-4.708,3.4-7.042,7.378-7.135,12.152-.1,4.922-.079,9.931-.062,14.776q.008,2.265.013,4.529c0,.82.054,1.656.112,2.541.028.441.057.9.082,1.379l.046.888-.734-.5c-.174-.12-.339-.227-.5-.329a8.681,8.681,0,0,1-.911-.649,14.221,14.221,0,0,1-4.87-10.011,31.027,31.027,0,0,1,4.813-19.976,31.034,31.034,0,0,1,16.215-12.609,29.941,29.941,0,0,1,19.715.287,30.241,30.241,0,0,1,15.466,12.323,30.422,30.422,0,0,1,4.384,22.49,12.741,12.741,0,0,1-4.418,7.491c-.236.2-.5.4-.81.624a1.822,1.822,0,0,1-.348.183c-.062.027-.135.06-.223.1l-.669.319.106-1.91c.045-.793.087-1.534.123-2.275a1.643,1.643,0,0,0-.27-1.169.878.878,0,0,0-.643-.255c-.441-.022-.976.111-1.135,1.33l-.085.654c-.194,1.5-.394,3.048-.691,4.559a3.219,3.219,0,0,1-2.865,2.659c-1.864.365-3.753.79-5.579,1.2C2410.973-36.025,2408.1-35.379,2405.244-34.927ZM2386.3-71.561c4.886-3.272,10.524-4.626,17.235-4.138.685.05,1.35.138,2.12.24.375.049.77.1,1.2.154l.76.092-.463.61c-3.459,4.56-6.661,8.076-11.042,10.415l-.08.044a1.482,1.482,0,0,1-.591.218c-.515.045-1.036.072-1.54.1l-.564.03-.525.03.063-.522c.023-.185.036-.373.049-.561a5.441,5.441,0,0,1,.221-1.383c.308-.908-.043-1.238-.428-1.441-.469-.248-.862-.232-1.481.584l-.471.622c-1.326,1.75-2.7,3.56-4.193,5.221a7.678,7.678,0,0,1-4.779,2.673,5.955,5.955,0,0,1-.729.055,1.427,1.427,0,0,1-.991-.3c-.38-.334-.455-.859-.458-1.711C2379.593-64.986,2381.719-68.492,2386.3-71.561Zm-5.883,2.052,1.887-2.752c3.329-4.855,10.344-7.965,18.305-8.116,8.411-.158,15.8,2.926,19.754,8.252l2.5,3.365-3.143-2.773c-9.518-8.4-27.043-8.468-36.768-.146Zm55.946,66.472c-.006,2.013-1.03,3.213-3.132,3.669Q2427.367,1.9,2421.5,3.164l-6.594,1.42c-1.858.4-3.715.8-5.634,1.222l-3.211.7V-3.323c0-9.18,0-18.672-.026-28.008a1.728,1.728,0,0,1,1.6-2.012c5.8-1.215,11.686-2.483,17.38-3.71q3.427-.738,6.854-1.474a3.805,3.805,0,0,1,3.262.552,3.745,3.745,0,0,1,1.247,3.013c0,.083,0,.166,0,.249a2.953,2.953,0,0,0,0,.369,3.105,3.105,0,0,1-1.477,3.325,4.286,4.286,0,0,0-1.755,3.735l0,.436c-.006,1.042-.012,2.12,0,3.178a5.1,5.1,0,0,0,2.409,4.339,2,2,0,0,1,.794,1.465C2436.386-12.823,2436.38-7.759,2436.366-3.037Zm6.33-20.428a2.891,2.891,0,0,1-2.809,2.811q-.45.031-.921.031-.439,0-.891-.027a2.914,2.914,0,0,1-2.853-2.879c-.027-.468-.02-.937-.013-1.39,0-.077,0-.155,0-.232l-.018-.378c0-.061,0-.122,0-.183,0-.119,0-.23,0-.335a4.208,4.208,0,0,1,.871-3.4c.924-.923,2.4-.95,3.716-.857a2.945,2.945,0,0,1,2.907,2.849A38.495,38.495,0,0,1,2442.7-23.465Z" transform="translate(-2357.602 88.759)" fill="#31404b"/>
              <path id="Trazado_1964" data-name="Trazado 1964" d="M2541.362,113.036c-.2-.126-.793-.512-1.508.55a4.49,4.49,0,0,1-3.663,2.225h-.009a4.483,4.483,0,0,1-3.658-2.2c-.4-.584-.747-.741-1.015-.741a.888.888,0,0,0-.488.17,1.12,1.12,0,0,0-.2,1.631,6.13,6.13,0,0,0,10.747-.012C2542.191,113.571,2541.567,113.169,2541.362,113.036Z" transform="translate(-2492.559 -68.568)" fill="#31404b"/>
              <path id="Trazado_1965" data-name="Trazado 1965" d="M2630.257,209.1a1.9,1.9,0,0,0-.354.035c-.783.148-1.578.331-2.346.509-.5.115-.993.229-1.492.336q-2.23.478-4.46.95c-2.33.495-4.74,1.007-7.108,1.52a1.6,1.6,0,0,0-1.04.617.856.856,0,0,0-.113.667c.053.242.216.979,1.541.711,1.166-.236,2.35-.493,3.494-.741l.891-.194,3.583-.776q3.667-.8,7.336-1.583c.931-.2,1.082-.61,1.1-.951a1.115,1.115,0,0,0-.351-.883A1.052,1.052,0,0,0,2630.257,209.1Z" transform="translate(-2557.14 -143.661)" fill="#31404b"/>
              <path id="Trazado_1966" data-name="Trazado 1966" d="M2630.475,184.84a.365.365,0,0,0-.171-.031,3.791,3.791,0,0,0-.7.11l-.205.045c-2.105.434-4.242.9-6.309,1.344l-.548.119q-4.072.881-8.142,1.775c-1.084.238-1.015.9-.991,1.117a.952.952,0,0,0,1.056.908l.2-.025c.16-.02.325-.04.477-.073q2.184-.479,4.368-.961,2.526-.557,5.053-1.111,1.1-.241,2.205-.474c1.209-.257,2.46-.523,3.684-.8.379-.087,1-.322.867-.919A1.869,1.869,0,0,0,2630.475,184.84Z" transform="translate(-2557.202 -124.707)" fill="#31404b"/>
              <g id="Grupo_1811" data-name="Grupo 1811" transform="translate(28.776 31.348)">
                <path id="Trazado_1967" data-name="Trazado 1967" d="M2493.642,62.559c-2.63,0-4.514-5.845-5.032-7.65a.769.769,0,0,1,1.479-.425c.892,3.1,2.563,6.537,3.547,6.537h.015c.125,0,1.256-.2,2.387-5.64a.769.769,0,0,1,1.506.313c-.974,4.684-2.157,6.8-3.835,6.863Z" transform="translate(-2488.58 -53.929)" fill="#31404b"/>
              </g>
              <g id="Grupo_1812" data-name="Grupo 1812" transform="translate(49.755 31.348)">
                <path id="Trazado_1968" data-name="Trazado 1968" d="M2587.991,62.559h-.066c-1.678-.062-2.861-2.179-3.836-6.863a.769.769,0,0,1,1.506-.313c1.131,5.438,2.262,5.635,2.387,5.64.985.042,2.667-3.415,3.563-6.536a.769.769,0,1,1,1.478.424C2592.5,56.714,2590.621,62.559,2587.991,62.559Z" transform="translate(-2584.073 -53.928)" fill="#31404b"/>
              </g>
            </g>
          </g>
        </g>
      </g>
    </g>
  </g>
</svg>
