<svg xmlns="http://www.w3.org/2000/svg" width="39" height="39" viewBox="0 0 39 39">
  <g id="web_site" data-name="web site" transform="translate(23786 -7380)">
    <circle id="Elipse_75" data-name="Elipse 75" cx="19.5" cy="19.5" r="19.5" transform="translate(-23786 7380)" fill="#94c11f"/>
    <g id="Grupo_1784" data-name="Grupo 1784" transform="translate(-23779 7387)">
      <path id="Trazado_1163" data-name="Trazado 1163" d="M21.484,20.425a12.318,12.318,0,0,0-.265-16.563h0A12.332,12.332,0,0,0,12.7,0h-.952A12.332,12.332,0,0,0,3.228,3.863h0A12.777,12.777,0,0,0,0,12.276a12.324,12.324,0,0,0,3.069,8.149h.053A12.09,12.09,0,0,0,11.853,24.5h.9a12.079,12.079,0,0,0,8.731-4.075ZM.847,12.7h5.08a17.022,17.022,0,0,0,1.005,5.186,14.039,14.039,0,0,0-3.44,1.746A11.773,11.773,0,0,1,.847,12.7Zm2.91-8.043A16.248,16.248,0,0,0,7.091,6.3a15.122,15.122,0,0,0-1.164,5.556H.847a11.386,11.386,0,0,1,2.91-7.2Zm19.949,7.2h-5.08A15.351,15.351,0,0,0,17.462,6.3,16.248,16.248,0,0,0,20.8,4.657a11.386,11.386,0,0,1,2.91,7.2ZM11.853,6.35a16.413,16.413,0,0,1-3.6-.529,14.522,14.522,0,0,1,3.6-4.657Zm0,.847v4.657H6.773A14.779,14.779,0,0,1,7.884,6.562a17.233,17.233,0,0,0,3.969.635Zm.847,0a19.436,19.436,0,0,0,3.916-.582,14.779,14.779,0,0,1,1.111,5.292H12.7Zm0-.847V1.111a14.522,14.522,0,0,1,3.6,4.657,13.82,13.82,0,0,1-3.6.582Zm4.392-.794a15.766,15.766,0,0,0-3.334-4.6,10.971,10.971,0,0,1,6.4,3.122,14.959,14.959,0,0,1-3.069,1.482Zm-9.631,0A13.672,13.672,0,0,1,4.392,4.075a11.81,11.81,0,0,1,6.4-3.122,14.265,14.265,0,0,0-3.334,4.6ZM6.773,12.7h5.08v4.233a17.672,17.672,0,0,0-4.075.635A13.792,13.792,0,0,1,6.773,12.7Zm5.08,5.08v5.662A14.427,14.427,0,0,1,8.1,18.415a15.1,15.1,0,0,1,3.757-.635Zm.847,5.662V17.78a15.03,15.03,0,0,1,3.757.582,14.144,14.144,0,0,1-3.757,5.08Zm0-6.509V12.7h5.08a14.329,14.329,0,0,1-1.005,4.921,15.286,15.286,0,0,0-4.075-.688ZM18.626,12.7h5.08a11.439,11.439,0,0,1-2.646,6.932,14.039,14.039,0,0,0-3.44-1.746A17.022,17.022,0,0,0,18.626,12.7Zm-14.5,7.567A12.738,12.738,0,0,1,7.3,18.679a16.282,16.282,0,0,0,3.492,4.974,11.558,11.558,0,0,1-6.667-3.387ZM13.758,23.6a15.422,15.422,0,0,0,3.492-4.974,17.793,17.793,0,0,1,3.175,1.587A10.97,10.97,0,0,1,13.758,23.6Zm0,0" fill="none" stroke="#fff" stroke-width="1"/>
    </g>
  </g>
</svg>
