<svg id="mu_ndo" data-name="mu ndo" xmlns="http://www.w3.org/2000/svg" width="20.491" height="20.492" viewBox="0 0 20.491 20.492">
  <path id="Trazado_4" data-name="Trazado 4" d="M3.074,3.074A9.3,9.3,0,0,1,10.246,0a9.3,9.3,0,0,1,7.172,3.074,9.3,9.3,0,0,1,3.074,7.172,9.3,9.3,0,0,1-3.074,7.172,9.3,9.3,0,0,1-7.172,3.074,9.3,9.3,0,0,1-7.172-3.074A10.225,10.225,0,0,1,0,10.246,9.3,9.3,0,0,1,3.074,3.074Zm8.538,15.369a4.2,4.2,0,0,0,2.561-1.537,7.458,7.458,0,0,0,1.2-3.586,2.828,2.828,0,0,0-.854-2.049,3.006,3.006,0,0,0-2.22-1.025H10.587A4.986,4.986,0,0,1,9.05,9.9a1.55,1.55,0,0,1-.512-1.2.887.887,0,0,1,.342-.683,1.3,1.3,0,0,1,.683-.342,1.165,1.165,0,0,1,.854.512c.342.171.512.342.683.342a1.027,1.027,0,0,0,.683-.171,1.027,1.027,0,0,0,.171-.683A2.717,2.717,0,0,0,11.1,5.977a7.063,7.063,0,0,0,.854-3.244.367.367,0,0,0-.342-.342,5.279,5.279,0,0,0-1.366-.342,8.542,8.542,0,0,0-4.44,1.366A4.3,4.3,0,0,0,4.269,6.83a4.372,4.372,0,0,0,1.366,3.244A4.665,4.665,0,0,0,8.88,11.441h0v.683a2.192,2.192,0,0,0,.683,1.708A2.487,2.487,0,0,0,11.1,14.856V17.93c0,.171,0,.171.171.342S11.441,18.442,11.612,18.442Z" fill="#858585"/>
</svg>
