<svg xmlns="http://www.w3.org/2000/svg" width="46.555" height="45.462" viewBox="0 0 46.555 45.462">
    <defs>
        <filter id="prefix__XMLID_470_" width="46.555" height="45.462" x="0" y="0" filterUnits="userSpaceOnUse">
            <feOffset dy="3"/>
            <feGaussianBlur result="blur" stdDeviation="3"/>
            <feFlood flood-opacity=".161"/>
            <feComposite in2="blur" operator="in"/>
            <feComposite in="SourceGraphic"/>
        </filter>
        <style>
            .prefix__cls-1{fill:#fff}
        </style>
    </defs>
    <g id="prefix__XMLID_468_" transform="translate(9 6)">
        <path id="prefix__XMLID_469_" d="M94.52 88.326c-.056-.026-2.137-1.012-2.507-1.14a1.489 1.489 0 00-.485-.1.831.831 0 00-.7.4c-.208.3-.837 1-1.032 1.216-.025.028-.06.061-.081.061s-.341-.128-.438-.168a10.8 10.8 0 01-4.161-3.555.216.216 0 01-.035-.079.652.652 0 01.122-.139 5.82 5.82 0 00.355-.388l.168-.192a2.145 2.145 0 00.338-.516l.047-.09a.9.9 0 00-.028-.879c-.049-.095-.928-2.135-1.022-2.349-.225-.517-.522-.758-.934-.758-.038 0 0 0-.161.007a5.152 5.152 0 00-1.731.428 3.438 3.438 0 00-1.344 2.965 6.261 6.261 0 001.44 3.518l.059.082a13.43 13.43 0 005.816 4.85 9.773 9.773 0 003.513.864 5.7 5.7 0 00.572-.032l.1-.009a3.7 3.7 0 002.575-1.753 2.672 2.672 0 00.164-1.824 1.312 1.312 0 00-.61-.42z" class="prefix__cls-1" transform="translate(-73.391 -72.546)"/>
        <g transform="translate(-9 -6)">
            <path id="prefix__XMLID_470_2" d="M14.531 0C6.8 0 .506 6.005.506 13.387a12.9 12.9 0 001.923 6.77L.02 26.991a.347.347 0 00.087.364.378.378 0 00.265.107.382.382 0 00.112-.017l7.41-2.264a14.571 14.571 0 006.639 1.592c7.733 0 14.024-6 14.024-13.386S22.264 0 14.531 0zm0 23.984a11.432 11.432 0 01-6.113-1.753.384.384 0 00-.318-.041l-3.709 1.135 1.2-3.4a.346.346 0 00-.052-.325 10.188 10.188 0 01-2.115-6.213 10.875 10.875 0 0111.109-10.6 10.875 10.875 0 0111.108 10.6 10.874 10.874 0 01-11.11 10.597z" class="prefix__cls-1" data-name="XMLID_470_" transform="translate(9 6)"/>
        </g>
    </g>
</svg>
