<svg xmlns="http://www.w3.org/2000/svg" width="21.625" height="14.479" viewBox="0 0 21.625 14.479">
  <path id="XMLID_1_" d="M20.5,2.016C19.745,1.076,18.24.7,15.608.7H5.829C3.009.7,1.5,1.076.752,2.016S0,4.273,0,6.153V9.726C0,13.3.94,15.18,5.829,15.18H15.8c2.445,0,3.761-.376,4.513-1.128.94-.752,1.316-2.068,1.316-4.325V6.153C21.437,4.085,21.437,2.769,20.5,2.016ZM13.727,8.41,9.214,10.666a.353.353,0,0,1-.564,0c-.376-.188-.376-.376-.376-.564V5.589c0-.188.188-.376.376-.564s.376-.188.752,0l4.513,2.257c.376.188.376.564.376.94-.376,0-.376.188-.564.188Z" transform="translate(0 -0.7)" fill="#fff"/>
</svg>
